G04 #@! TF.FileFunction,Soldermask,Top*
%FSLAX46Y46*%
G04 Gerber Fmt 4.6, Leading zero omitted, Abs format (unit mm)*
G04 Created by KiCad (PCBNEW 4.0.7-e2-6376~61~ubuntu18.04.1) date Sat Feb  2 14:08:29 2019*
%MOMM*%
%LPD*%
G01*
G04 APERTURE LIST*
%ADD10C,0.100000*%
%ADD11R,1.822000X1.264000*%
%ADD12C,2.178000*%
%ADD13R,2.076000X1.264000*%
%ADD14R,1.050000X1.460000*%
%ADD15R,1.600000X1.600000*%
%ADD16R,0.900000X1.300000*%
%ADD17O,3.900000X2.400000*%
%ADD18R,1.950000X1.700000*%
%ADD19R,1.650000X1.400000*%
%ADD20R,1.400000X1.650000*%
%ADD21R,1.700000X1.100000*%
%ADD22R,1.100000X1.700000*%
%ADD23C,2.600000*%
%ADD24R,1.150000X1.200000*%
%ADD25R,1.200000X1.150000*%
%ADD26C,1.900000*%
%ADD27R,1.400000X1.400000*%
G04 APERTURE END LIST*
D10*
X116500000Y-125500000D02*
X116500000Y-128000000D01*
X111500000Y-125500000D02*
X111500000Y-128000000D01*
X114000000Y-123000000D02*
G75*
G03X111500000Y-125500000I0J-2500000D01*
G01*
X116500000Y-125500000D02*
G75*
G03X114000000Y-123000000I-2500000J0D01*
G01*
X100000000Y-128000000D02*
X111500000Y-128000000D01*
X105000000Y-100000000D02*
X128000000Y-100000000D01*
X128000000Y-123000000D02*
X128000000Y-100000000D01*
X116500000Y-128000000D02*
X123000000Y-128000000D01*
X100000000Y-128000000D02*
X100000000Y-105000000D01*
X100000000Y-105000000D02*
X102500000Y-105000000D01*
X105000000Y-102500000D02*
X105000000Y-100000000D01*
X105000000Y-102500000D02*
G75*
G02X102500000Y-105000000I-2500000J0D01*
G01*
X123000000Y-125500000D02*
G75*
G02X125500000Y-123000000I2500000J0D01*
G01*
X123000000Y-125500000D02*
X123000000Y-128000000D01*
X125500000Y-123000000D02*
X128000000Y-123000000D01*
D11*
X119177000Y-108505000D03*
X119177000Y-107235000D03*
X119177000Y-105965000D03*
X119177000Y-104695000D03*
X119177000Y-103425000D03*
X110199000Y-108505000D03*
X110199000Y-107235000D03*
X110199000Y-105965000D03*
X110199000Y-104695000D03*
D12*
X114688000Y-106655000D03*
D13*
X110371500Y-103425000D03*
D14*
X103312000Y-108755000D03*
X102362000Y-108755000D03*
X101412000Y-108755000D03*
X101412000Y-110955000D03*
X103312000Y-110955000D03*
X109159000Y-119464000D03*
X110109000Y-119464000D03*
X111059000Y-119464000D03*
X111059000Y-117264000D03*
X109159000Y-117264000D03*
D15*
X122004000Y-124206000D03*
X119804000Y-124206000D03*
X119804000Y-114808000D03*
X122004000Y-114808000D03*
D16*
X107811000Y-116840000D03*
X106311000Y-116840000D03*
D17*
X103505000Y-116840000D03*
X103505000Y-119380000D03*
X103505000Y-121920000D03*
D18*
X124884000Y-117257000D03*
X124884000Y-121757000D03*
X116924000Y-121757000D03*
X116924000Y-117257000D03*
D14*
X114996000Y-113073000D03*
X114046000Y-113073000D03*
X113096000Y-113073000D03*
X113096000Y-115273000D03*
X114996000Y-115273000D03*
X114046000Y-115273000D03*
D19*
X107696000Y-110093000D03*
X107696000Y-108093000D03*
X105156000Y-108855000D03*
X105156000Y-110855000D03*
X116840000Y-113173000D03*
X116840000Y-115173000D03*
X113030000Y-117364000D03*
X113030000Y-119364000D03*
D20*
X109172500Y-115316000D03*
X111172500Y-115316000D03*
D21*
X121793000Y-110170000D03*
X121793000Y-108270000D03*
X121793000Y-106995000D03*
X121793000Y-105095000D03*
X123825000Y-108270000D03*
X123825000Y-110170000D03*
D22*
X104264500Y-106870500D03*
X102364500Y-106870500D03*
D21*
X101409500Y-112588000D03*
X101409500Y-114488000D03*
D22*
X105090000Y-113538000D03*
X103190000Y-113538000D03*
X111059000Y-121412000D03*
X109159000Y-121412000D03*
D21*
X126365000Y-115377000D03*
X126365000Y-113477000D03*
X107696000Y-102809000D03*
X107696000Y-104709000D03*
D23*
X105250000Y-125750000D03*
X122750000Y-102250000D03*
D19*
X107442000Y-118507000D03*
X107442000Y-120507000D03*
D24*
X105918000Y-105041000D03*
X105918000Y-106541000D03*
D25*
X110859000Y-113538000D03*
X109359000Y-113538000D03*
D21*
X107696000Y-111635500D03*
X107696000Y-113535500D03*
D26*
X113665000Y-121793000D03*
X124079000Y-112268000D03*
X107950000Y-123825000D03*
D27*
X100965000Y-106870500D03*
X124079000Y-106045000D03*
M02*
