M48
INCH,TZ
T1C0.016
%
G90
G05
T1
X39926Y-43250
X41400Y-42425
X41650Y-48000
X41700Y-40950
X41950Y-48000
X42300Y-47850
X42400Y-40850
X42500Y-48250
X42881Y-42719
X42894Y-43344
X43350Y-47450
X44000Y-44700
X44150Y-45400
X44250Y-40700
X44250Y-41700
X44250Y-42800
X44850Y-40700
X44850Y-42800
X44900Y-44950
X45450Y-40700
X45450Y-42800
X46050Y-40700
X46050Y-41700
X46050Y-42800
X46500Y-44550
X46586Y-47936
X46700Y-48900
X47150Y-44700
X48500Y-45200
X48586Y-47936
X49225Y-43375
T0
M30
