G04 #@! TF.FileFunction,Copper,L2,Bot,Signal*
%FSLAX46Y46*%
G04 Gerber Fmt 4.6, Leading zero omitted, Abs format (unit mm)*
G04 Created by KiCad (PCBNEW 4.0.7-e2-6376~61~ubuntu18.04.1) date Sat Feb  2 14:08:29 2019*
%MOMM*%
%LPD*%
G01*
G04 APERTURE LIST*
%ADD10C,0.100000*%
%ADD11C,0.600000*%
%ADD12C,0.300000*%
%ADD13C,0.200000*%
G04 APERTURE END LIST*
D10*
X116500000Y-125500000D02*
X116500000Y-128000000D01*
X111500000Y-125500000D02*
X111500000Y-128000000D01*
X114000000Y-123000000D02*
G75*
G03X111500000Y-125500000I0J-2500000D01*
G01*
X116500000Y-125500000D02*
G75*
G03X114000000Y-123000000I-2500000J0D01*
G01*
X100000000Y-128000000D02*
X111500000Y-128000000D01*
X105000000Y-100000000D02*
X128000000Y-100000000D01*
X128000000Y-123000000D02*
X128000000Y-100000000D01*
X116500000Y-128000000D02*
X123000000Y-128000000D01*
X100000000Y-128000000D02*
X100000000Y-105000000D01*
X100000000Y-105000000D02*
X102500000Y-105000000D01*
X105000000Y-102500000D02*
X105000000Y-100000000D01*
X105000000Y-102500000D02*
G75*
G02X102500000Y-105000000I-2500000J0D01*
G01*
X123000000Y-125500000D02*
G75*
G02X125500000Y-123000000I2500000J0D01*
G01*
X123000000Y-125500000D02*
X123000000Y-128000000D01*
X125500000Y-123000000D02*
X128000000Y-123000000D01*
D11*
X116967000Y-105918000D03*
X116967000Y-108712000D03*
X115443000Y-108712000D03*
X113919000Y-108712000D03*
X112395000Y-108712000D03*
X112395000Y-105918000D03*
X112395000Y-103378000D03*
X113919000Y-103378000D03*
X115443000Y-103378000D03*
X116967000Y-103378000D03*
X101412000Y-109855000D03*
X108919000Y-108505000D03*
X118618000Y-124206000D03*
X125031500Y-110172500D03*
X107950000Y-122555000D03*
X107442000Y-121539000D03*
X118328000Y-121757000D03*
X123408000Y-121757000D03*
X123190000Y-114808000D03*
X114046000Y-114173000D03*
X105791000Y-121920000D03*
X106553000Y-121920000D03*
X111760000Y-113538000D03*
X112141000Y-115316000D03*
X118110000Y-113157000D03*
X108950000Y-110093000D03*
X105156000Y-107759500D03*
X105918000Y-104013000D03*
X110109000Y-120523000D03*
X119761000Y-113538000D03*
X107696000Y-103759000D03*
D12*
X119761000Y-113538000D02*
X119761000Y-112903000D01*
X119761000Y-112903000D02*
X119126000Y-112268000D01*
X119126000Y-112268000D02*
X109093000Y-112268000D01*
X109093000Y-112268000D02*
X107696000Y-110871000D01*
X107696000Y-110871000D02*
X107696000Y-103759000D01*
D13*
G36*
X127550000Y-122550000D02*
X125500000Y-122550000D01*
X125456529Y-122558647D01*
X125412209Y-122558647D01*
X124455505Y-122748947D01*
X124374392Y-122782544D01*
X124293284Y-122816139D01*
X124293281Y-122816142D01*
X123482230Y-123358069D01*
X123482226Y-123358071D01*
X123424552Y-123415746D01*
X123358071Y-123482227D01*
X123358069Y-123482231D01*
X122816142Y-124293281D01*
X122816139Y-124293284D01*
X122748947Y-124455500D01*
X122748947Y-124455505D01*
X122558647Y-125412209D01*
X122558647Y-125456529D01*
X122550000Y-125500000D01*
X122550000Y-127550000D01*
X116950000Y-127550000D01*
X116950000Y-125500000D01*
X116941353Y-125456529D01*
X116941353Y-125412209D01*
X116751053Y-124455505D01*
X116751053Y-124455500D01*
X116683861Y-124293284D01*
X116683858Y-124293281D01*
X116141929Y-123482227D01*
X116141929Y-123482226D01*
X116075448Y-123415746D01*
X116017773Y-123358071D01*
X116017769Y-123358069D01*
X115206719Y-122816142D01*
X115206716Y-122816139D01*
X115125608Y-122782544D01*
X115044500Y-122748947D01*
X115044495Y-122748947D01*
X114087796Y-122558648D01*
X114087791Y-122558646D01*
X114000000Y-122558647D01*
X113912209Y-122558646D01*
X113912204Y-122558648D01*
X112955505Y-122748947D01*
X112874392Y-122782544D01*
X112793284Y-122816139D01*
X112793281Y-122816142D01*
X111982230Y-123358069D01*
X111982226Y-123358071D01*
X111924552Y-123415746D01*
X111858071Y-123482227D01*
X111858069Y-123482231D01*
X111316142Y-124293281D01*
X111316139Y-124293284D01*
X111248947Y-124455500D01*
X111248947Y-124455505D01*
X111058647Y-125412209D01*
X111058647Y-125456529D01*
X111050000Y-125500000D01*
X111050000Y-127550000D01*
X100450000Y-127550000D01*
X100450000Y-126047059D01*
X103749740Y-126047059D01*
X103977620Y-126598572D01*
X104399209Y-127020897D01*
X104950323Y-127249739D01*
X105547059Y-127250260D01*
X106098572Y-127022380D01*
X106520897Y-126600791D01*
X106749739Y-126049677D01*
X106750260Y-125452941D01*
X106522380Y-124901428D01*
X106100791Y-124479103D01*
X105549677Y-124250261D01*
X104952941Y-124249740D01*
X104401428Y-124477620D01*
X103979103Y-124899209D01*
X103750261Y-125450323D01*
X103749740Y-126047059D01*
X100450000Y-126047059D01*
X100450000Y-105450000D01*
X102500000Y-105450000D01*
X102543471Y-105441353D01*
X102587791Y-105441353D01*
X103544495Y-105251053D01*
X103544500Y-105251053D01*
X103625608Y-105217456D01*
X103706716Y-105183861D01*
X103706719Y-105183858D01*
X104517769Y-104641931D01*
X104517773Y-104641929D01*
X104609702Y-104550000D01*
X104641929Y-104517774D01*
X104641931Y-104517770D01*
X105056296Y-103897628D01*
X106995879Y-103897628D01*
X107102223Y-104155000D01*
X107146000Y-104198854D01*
X107146000Y-110871000D01*
X107187866Y-111081476D01*
X107307091Y-111259909D01*
X108704089Y-112656906D01*
X108704091Y-112656909D01*
X108882524Y-112776134D01*
X109093000Y-112818000D01*
X118898182Y-112818000D01*
X119194554Y-113114371D01*
X119167915Y-113140964D01*
X119061122Y-113398150D01*
X119060879Y-113676628D01*
X119167223Y-113934000D01*
X119363964Y-114131085D01*
X119621150Y-114237878D01*
X119899628Y-114238121D01*
X120157000Y-114131777D01*
X120354085Y-113935036D01*
X120460878Y-113677850D01*
X120461121Y-113399372D01*
X120354777Y-113142000D01*
X120311000Y-113098146D01*
X120311000Y-112903005D01*
X120311001Y-112903000D01*
X120269134Y-112692524D01*
X120245336Y-112656908D01*
X120149909Y-112514091D01*
X120149906Y-112514089D01*
X119514909Y-111879091D01*
X119336476Y-111759866D01*
X119126000Y-111718000D01*
X109320817Y-111718000D01*
X108246000Y-110643182D01*
X108246000Y-106910273D01*
X113398777Y-106910273D01*
X113594602Y-107384206D01*
X113956887Y-107747124D01*
X114430477Y-107943776D01*
X114943273Y-107944223D01*
X115417206Y-107748398D01*
X115780124Y-107386113D01*
X115976776Y-106912523D01*
X115977223Y-106399727D01*
X115781398Y-105925794D01*
X115419113Y-105562876D01*
X114945523Y-105366224D01*
X114432727Y-105365777D01*
X113958794Y-105561602D01*
X113595876Y-105923887D01*
X113399224Y-106397477D01*
X113398777Y-106910273D01*
X108246000Y-106910273D01*
X108246000Y-104199046D01*
X108289085Y-104156036D01*
X108395878Y-103898850D01*
X108396121Y-103620372D01*
X108289777Y-103363000D01*
X108093036Y-103165915D01*
X107835850Y-103059122D01*
X107557372Y-103058879D01*
X107300000Y-103165223D01*
X107102915Y-103361964D01*
X106996122Y-103619150D01*
X106995879Y-103897628D01*
X105056296Y-103897628D01*
X105183858Y-103706719D01*
X105183861Y-103706716D01*
X105219625Y-103620372D01*
X105251053Y-103544500D01*
X105251053Y-103544495D01*
X105441353Y-102587791D01*
X105441353Y-102547059D01*
X121249740Y-102547059D01*
X121477620Y-103098572D01*
X121899209Y-103520897D01*
X122450323Y-103749739D01*
X123047059Y-103750260D01*
X123598572Y-103522380D01*
X124020897Y-103100791D01*
X124249739Y-102549677D01*
X124250260Y-101952941D01*
X124022380Y-101401428D01*
X123600791Y-100979103D01*
X123049677Y-100750261D01*
X122452941Y-100749740D01*
X121901428Y-100977620D01*
X121479103Y-101399209D01*
X121250261Y-101950323D01*
X121249740Y-102547059D01*
X105441353Y-102547059D01*
X105441353Y-102543471D01*
X105450000Y-102500000D01*
X105450000Y-100450000D01*
X127550000Y-100450000D01*
X127550000Y-122550000D01*
X127550000Y-122550000D01*
G37*
X127550000Y-122550000D02*
X125500000Y-122550000D01*
X125456529Y-122558647D01*
X125412209Y-122558647D01*
X124455505Y-122748947D01*
X124374392Y-122782544D01*
X124293284Y-122816139D01*
X124293281Y-122816142D01*
X123482230Y-123358069D01*
X123482226Y-123358071D01*
X123424552Y-123415746D01*
X123358071Y-123482227D01*
X123358069Y-123482231D01*
X122816142Y-124293281D01*
X122816139Y-124293284D01*
X122748947Y-124455500D01*
X122748947Y-124455505D01*
X122558647Y-125412209D01*
X122558647Y-125456529D01*
X122550000Y-125500000D01*
X122550000Y-127550000D01*
X116950000Y-127550000D01*
X116950000Y-125500000D01*
X116941353Y-125456529D01*
X116941353Y-125412209D01*
X116751053Y-124455505D01*
X116751053Y-124455500D01*
X116683861Y-124293284D01*
X116683858Y-124293281D01*
X116141929Y-123482227D01*
X116141929Y-123482226D01*
X116075448Y-123415746D01*
X116017773Y-123358071D01*
X116017769Y-123358069D01*
X115206719Y-122816142D01*
X115206716Y-122816139D01*
X115125608Y-122782544D01*
X115044500Y-122748947D01*
X115044495Y-122748947D01*
X114087796Y-122558648D01*
X114087791Y-122558646D01*
X114000000Y-122558647D01*
X113912209Y-122558646D01*
X113912204Y-122558648D01*
X112955505Y-122748947D01*
X112874392Y-122782544D01*
X112793284Y-122816139D01*
X112793281Y-122816142D01*
X111982230Y-123358069D01*
X111982226Y-123358071D01*
X111924552Y-123415746D01*
X111858071Y-123482227D01*
X111858069Y-123482231D01*
X111316142Y-124293281D01*
X111316139Y-124293284D01*
X111248947Y-124455500D01*
X111248947Y-124455505D01*
X111058647Y-125412209D01*
X111058647Y-125456529D01*
X111050000Y-125500000D01*
X111050000Y-127550000D01*
X100450000Y-127550000D01*
X100450000Y-126047059D01*
X103749740Y-126047059D01*
X103977620Y-126598572D01*
X104399209Y-127020897D01*
X104950323Y-127249739D01*
X105547059Y-127250260D01*
X106098572Y-127022380D01*
X106520897Y-126600791D01*
X106749739Y-126049677D01*
X106750260Y-125452941D01*
X106522380Y-124901428D01*
X106100791Y-124479103D01*
X105549677Y-124250261D01*
X104952941Y-124249740D01*
X104401428Y-124477620D01*
X103979103Y-124899209D01*
X103750261Y-125450323D01*
X103749740Y-126047059D01*
X100450000Y-126047059D01*
X100450000Y-105450000D01*
X102500000Y-105450000D01*
X102543471Y-105441353D01*
X102587791Y-105441353D01*
X103544495Y-105251053D01*
X103544500Y-105251053D01*
X103625608Y-105217456D01*
X103706716Y-105183861D01*
X103706719Y-105183858D01*
X104517769Y-104641931D01*
X104517773Y-104641929D01*
X104609702Y-104550000D01*
X104641929Y-104517774D01*
X104641931Y-104517770D01*
X105056296Y-103897628D01*
X106995879Y-103897628D01*
X107102223Y-104155000D01*
X107146000Y-104198854D01*
X107146000Y-110871000D01*
X107187866Y-111081476D01*
X107307091Y-111259909D01*
X108704089Y-112656906D01*
X108704091Y-112656909D01*
X108882524Y-112776134D01*
X109093000Y-112818000D01*
X118898182Y-112818000D01*
X119194554Y-113114371D01*
X119167915Y-113140964D01*
X119061122Y-113398150D01*
X119060879Y-113676628D01*
X119167223Y-113934000D01*
X119363964Y-114131085D01*
X119621150Y-114237878D01*
X119899628Y-114238121D01*
X120157000Y-114131777D01*
X120354085Y-113935036D01*
X120460878Y-113677850D01*
X120461121Y-113399372D01*
X120354777Y-113142000D01*
X120311000Y-113098146D01*
X120311000Y-112903005D01*
X120311001Y-112903000D01*
X120269134Y-112692524D01*
X120245336Y-112656908D01*
X120149909Y-112514091D01*
X120149906Y-112514089D01*
X119514909Y-111879091D01*
X119336476Y-111759866D01*
X119126000Y-111718000D01*
X109320817Y-111718000D01*
X108246000Y-110643182D01*
X108246000Y-106910273D01*
X113398777Y-106910273D01*
X113594602Y-107384206D01*
X113956887Y-107747124D01*
X114430477Y-107943776D01*
X114943273Y-107944223D01*
X115417206Y-107748398D01*
X115780124Y-107386113D01*
X115976776Y-106912523D01*
X115977223Y-106399727D01*
X115781398Y-105925794D01*
X115419113Y-105562876D01*
X114945523Y-105366224D01*
X114432727Y-105365777D01*
X113958794Y-105561602D01*
X113595876Y-105923887D01*
X113399224Y-106397477D01*
X113398777Y-106910273D01*
X108246000Y-106910273D01*
X108246000Y-104199046D01*
X108289085Y-104156036D01*
X108395878Y-103898850D01*
X108396121Y-103620372D01*
X108289777Y-103363000D01*
X108093036Y-103165915D01*
X107835850Y-103059122D01*
X107557372Y-103058879D01*
X107300000Y-103165223D01*
X107102915Y-103361964D01*
X106996122Y-103619150D01*
X106995879Y-103897628D01*
X105056296Y-103897628D01*
X105183858Y-103706719D01*
X105183861Y-103706716D01*
X105219625Y-103620372D01*
X105251053Y-103544500D01*
X105251053Y-103544495D01*
X105441353Y-102587791D01*
X105441353Y-102547059D01*
X121249740Y-102547059D01*
X121477620Y-103098572D01*
X121899209Y-103520897D01*
X122450323Y-103749739D01*
X123047059Y-103750260D01*
X123598572Y-103522380D01*
X124020897Y-103100791D01*
X124249739Y-102549677D01*
X124250260Y-101952941D01*
X124022380Y-101401428D01*
X123600791Y-100979103D01*
X123049677Y-100750261D01*
X122452941Y-100749740D01*
X121901428Y-100977620D01*
X121479103Y-101399209D01*
X121250261Y-101950323D01*
X121249740Y-102547059D01*
X105441353Y-102547059D01*
X105441353Y-102543471D01*
X105450000Y-102500000D01*
X105450000Y-100450000D01*
X127550000Y-100450000D01*
X127550000Y-122550000D01*
M02*
