G04 #@! TF.FileFunction,Copper,L1,Top,Signal*
%FSLAX46Y46*%
G04 Gerber Fmt 4.6, Leading zero omitted, Abs format (unit mm)*
G04 Created by KiCad (PCBNEW 4.0.7-e2-6376~61~ubuntu18.04.1) date Sat Feb  2 14:08:29 2019*
%MOMM*%
%LPD*%
G01*
G04 APERTURE LIST*
%ADD10C,0.100000*%
%ADD11R,1.422000X0.864000*%
%ADD12R,1.676000X0.864000*%
%ADD13R,0.650000X1.060000*%
%ADD14R,1.200000X1.200000*%
%ADD15R,0.500000X0.900000*%
%ADD16O,3.500000X2.000000*%
%ADD17R,1.550000X1.300000*%
%ADD18R,1.250000X1.000000*%
%ADD19R,1.000000X1.250000*%
%ADD20R,1.300000X0.700000*%
%ADD21R,0.700000X1.300000*%
%ADD22R,0.750000X0.800000*%
%ADD23R,0.800000X0.750000*%
%ADD24C,1.500000*%
%ADD25R,1.000000X1.000000*%
%ADD26C,0.600000*%
%ADD27C,0.350000*%
%ADD28C,0.300000*%
%ADD29C,0.750000*%
%ADD30C,0.500000*%
%ADD31C,0.200000*%
G04 APERTURE END LIST*
D10*
X116500000Y-125500000D02*
X116500000Y-128000000D01*
X111500000Y-125500000D02*
X111500000Y-128000000D01*
X114000000Y-123000000D02*
G75*
G03X111500000Y-125500000I0J-2500000D01*
G01*
X116500000Y-125500000D02*
G75*
G03X114000000Y-123000000I-2500000J0D01*
G01*
X100000000Y-128000000D02*
X111500000Y-128000000D01*
X105000000Y-100000000D02*
X128000000Y-100000000D01*
X128000000Y-123000000D02*
X128000000Y-100000000D01*
X116500000Y-128000000D02*
X123000000Y-128000000D01*
X100000000Y-128000000D02*
X100000000Y-105000000D01*
X100000000Y-105000000D02*
X102500000Y-105000000D01*
X105000000Y-102500000D02*
X105000000Y-100000000D01*
X105000000Y-102500000D02*
G75*
G02X102500000Y-105000000I-2500000J0D01*
G01*
X123000000Y-125500000D02*
G75*
G02X125500000Y-123000000I2500000J0D01*
G01*
X123000000Y-125500000D02*
X123000000Y-128000000D01*
X125500000Y-123000000D02*
X128000000Y-123000000D01*
D11*
X119177000Y-108505000D03*
X119177000Y-107235000D03*
X119177000Y-105965000D03*
X119177000Y-104695000D03*
X119177000Y-103425000D03*
X110199000Y-108505000D03*
X110199000Y-107235000D03*
X110199000Y-105965000D03*
X110199000Y-104695000D03*
D12*
X110371500Y-103425000D03*
D13*
X103312000Y-108755000D03*
X102362000Y-108755000D03*
X101412000Y-108755000D03*
X101412000Y-110955000D03*
X103312000Y-110955000D03*
X109159000Y-119464000D03*
X110109000Y-119464000D03*
X111059000Y-119464000D03*
X111059000Y-117264000D03*
X109159000Y-117264000D03*
D14*
X122004000Y-124206000D03*
X119804000Y-124206000D03*
X119804000Y-114808000D03*
X122004000Y-114808000D03*
D15*
X107811000Y-116840000D03*
X106311000Y-116840000D03*
D16*
X103505000Y-116840000D03*
X103505000Y-119380000D03*
X103505000Y-121920000D03*
D17*
X124884000Y-117257000D03*
X124884000Y-121757000D03*
X116924000Y-121757000D03*
X116924000Y-117257000D03*
D13*
X114996000Y-113073000D03*
X114046000Y-113073000D03*
X113096000Y-113073000D03*
X113096000Y-115273000D03*
X114996000Y-115273000D03*
X114046000Y-115273000D03*
D18*
X107696000Y-110093000D03*
X107696000Y-108093000D03*
X105156000Y-108855000D03*
X105156000Y-110855000D03*
X116840000Y-113173000D03*
X116840000Y-115173000D03*
X113030000Y-117364000D03*
X113030000Y-119364000D03*
D19*
X109172500Y-115316000D03*
X111172500Y-115316000D03*
D20*
X121793000Y-110170000D03*
X121793000Y-108270000D03*
X121793000Y-106995000D03*
X121793000Y-105095000D03*
X123825000Y-108270000D03*
X123825000Y-110170000D03*
D21*
X104264500Y-106870500D03*
X102364500Y-106870500D03*
D20*
X101409500Y-112588000D03*
X101409500Y-114488000D03*
D21*
X105090000Y-113538000D03*
X103190000Y-113538000D03*
X111059000Y-121412000D03*
X109159000Y-121412000D03*
D20*
X126365000Y-115377000D03*
X126365000Y-113477000D03*
X107696000Y-102809000D03*
X107696000Y-104709000D03*
D18*
X107442000Y-118507000D03*
X107442000Y-120507000D03*
D22*
X105918000Y-105041000D03*
X105918000Y-106541000D03*
D23*
X110859000Y-113538000D03*
X109359000Y-113538000D03*
D20*
X107696000Y-111635500D03*
X107696000Y-113535500D03*
D24*
X113665000Y-121793000D03*
X124079000Y-112268000D03*
X107950000Y-123825000D03*
D25*
X100965000Y-106870500D03*
X124079000Y-106045000D03*
D26*
X116967000Y-105918000D03*
X116967000Y-108712000D03*
X115443000Y-108712000D03*
X113919000Y-108712000D03*
X112395000Y-108712000D03*
X112395000Y-105918000D03*
X112395000Y-103378000D03*
X113919000Y-103378000D03*
X115443000Y-103378000D03*
X116967000Y-103378000D03*
X101412000Y-109855000D03*
X108919000Y-108505000D03*
X118618000Y-124206000D03*
X125031500Y-110172500D03*
X107950000Y-122555000D03*
X107442000Y-121539000D03*
X118328000Y-121757000D03*
X123408000Y-121757000D03*
X123190000Y-114808000D03*
X114046000Y-114173000D03*
X105791000Y-121920000D03*
X106553000Y-121920000D03*
X111760000Y-113538000D03*
X112141000Y-115316000D03*
X118110000Y-113157000D03*
X108950000Y-110093000D03*
X105156000Y-107759500D03*
X105918000Y-104013000D03*
X110109000Y-120523000D03*
X119761000Y-113538000D03*
X107696000Y-103759000D03*
D27*
X107811000Y-115824000D02*
X107811000Y-115812000D01*
X107811000Y-115812000D02*
X107188000Y-115189000D01*
X104140000Y-114808000D02*
X104140000Y-110955000D01*
X104521000Y-115189000D02*
X107188000Y-115189000D01*
X104140000Y-114808000D02*
X104521000Y-115189000D01*
X113665000Y-121793000D02*
X114996000Y-120462000D01*
X114996000Y-120462000D02*
X114996000Y-115273000D01*
X113665000Y-121793000D02*
X112839500Y-122618500D01*
X109159000Y-122367000D02*
X109159000Y-121412000D01*
X109410500Y-122618500D02*
X109159000Y-122367000D01*
X112839500Y-122618500D02*
X109410500Y-122618500D01*
X107811000Y-116840000D02*
X107811000Y-117487000D01*
X107442000Y-117856000D02*
X107442000Y-118507000D01*
X107811000Y-117487000D02*
X107442000Y-117856000D01*
X107442000Y-118507000D02*
X107442000Y-119523000D01*
X107442000Y-119523000D02*
X109100000Y-119523000D01*
X107811000Y-116840000D02*
X107811000Y-115824000D01*
X116740000Y-115273000D02*
X116840000Y-115173000D01*
X114996000Y-115273000D02*
X116740000Y-115273000D01*
X116840000Y-115173000D02*
X116824000Y-115189000D01*
X109159000Y-119464000D02*
X109159000Y-121412000D01*
X109100000Y-119523000D02*
X109159000Y-119464000D01*
X103312000Y-110955000D02*
X104140000Y-110955000D01*
X104140000Y-110955000D02*
X105056000Y-110955000D01*
X105056000Y-110955000D02*
X105156000Y-110855000D01*
X124079000Y-112268000D02*
X125857000Y-112268000D01*
X126365000Y-112776000D02*
X126365000Y-113477000D01*
X125857000Y-112268000D02*
X126365000Y-112776000D01*
X124079000Y-112268000D02*
X122428000Y-112268000D01*
X122428000Y-112268000D02*
X121793000Y-111633000D01*
X121793000Y-110170000D02*
X121793000Y-111633000D01*
X110236000Y-111633000D02*
X121793000Y-111633000D01*
X107693500Y-113538000D02*
X107696000Y-113535500D01*
X107698500Y-113538000D02*
X107696000Y-113535500D01*
X109359000Y-113538000D02*
X109359000Y-114224500D01*
X109359000Y-114224500D02*
X109172500Y-114411000D01*
X109172500Y-114411000D02*
X109172500Y-115316000D01*
X109359000Y-112510000D02*
X110236000Y-111633000D01*
X109359000Y-112510000D02*
X109359000Y-113538000D01*
X105090000Y-113538000D02*
X107693500Y-113538000D01*
X109359000Y-113538000D02*
X107698500Y-113538000D01*
X109159000Y-117264000D02*
X109159000Y-115329500D01*
X109159000Y-115329500D02*
X109172500Y-115316000D01*
D28*
X104264500Y-106870500D02*
X104902000Y-106870500D01*
X105231500Y-106541000D02*
X105918000Y-106541000D01*
X104902000Y-106870500D02*
X105231500Y-106541000D01*
X107327000Y-106541000D02*
X105918000Y-106541000D01*
X107903000Y-105965000D02*
X107327000Y-106541000D01*
D27*
X105906000Y-106553000D02*
X105918000Y-106541000D01*
D28*
X110199000Y-105965000D02*
X107903000Y-105965000D01*
X120396000Y-103647820D02*
X120173180Y-103425000D01*
X119177000Y-103425000D02*
X120173180Y-103425000D01*
X120777000Y-106045000D02*
X124079000Y-106045000D01*
X120777000Y-106045000D02*
X120396000Y-105664000D01*
X120396000Y-105664000D02*
X120396000Y-103647820D01*
D27*
X101412000Y-108755000D02*
X101412000Y-109855000D01*
X108919000Y-108505000D02*
X110199000Y-108505000D01*
X119804000Y-124206000D02*
X118618000Y-124206000D01*
X123825000Y-110170000D02*
X125029000Y-110170000D01*
X125029000Y-110170000D02*
X125031500Y-110172500D01*
X107950000Y-123825000D02*
X107950000Y-122555000D01*
X107442000Y-120507000D02*
X107442000Y-121539000D01*
D28*
X111887000Y-118364000D02*
X111887000Y-119364000D01*
X113030000Y-119364000D02*
X111887000Y-119364000D01*
X110109000Y-118364000D02*
X111887000Y-118364000D01*
X110109000Y-119464000D02*
X110109000Y-118364000D01*
D27*
X116924000Y-121757000D02*
X118328000Y-121757000D01*
X124884000Y-121757000D02*
X123408000Y-121757000D01*
X122004000Y-114808000D02*
X123190000Y-114808000D01*
D28*
X114046000Y-114173000D02*
X113411000Y-114173000D01*
X113096000Y-113858000D02*
X113096000Y-113073000D01*
X113411000Y-114173000D02*
X113096000Y-113858000D01*
D29*
X106553000Y-121920000D02*
X105791000Y-121920000D01*
X105791000Y-121920000D02*
X103505000Y-121920000D01*
D27*
X110859000Y-113538000D02*
X111760000Y-113538000D01*
X111172500Y-115316000D02*
X112141000Y-115316000D01*
X116840000Y-113173000D02*
X118094000Y-113173000D01*
X114046000Y-114173000D02*
X114046000Y-114173000D01*
X114046000Y-114173000D02*
X114046000Y-113073000D01*
X107696000Y-110093000D02*
X108950000Y-110093000D01*
X105156000Y-108855000D02*
X105156000Y-107759500D01*
X105918000Y-105041000D02*
X105918000Y-104013000D01*
X110109000Y-119464000D02*
X110109000Y-120523000D01*
D30*
X103505000Y-116840000D02*
X106311000Y-116840000D01*
D28*
X119177000Y-107235000D02*
X120316000Y-107235000D01*
X120316000Y-107235000D02*
X121351000Y-108270000D01*
X121351000Y-108270000D02*
X121793000Y-108270000D01*
X121793000Y-105095000D02*
X121793000Y-104267000D01*
X121793000Y-104267000D02*
X120562090Y-103036090D01*
X120562090Y-103036090D02*
X120562090Y-101131090D01*
X120562090Y-101131090D02*
X120015000Y-100584000D01*
X110371500Y-103425000D02*
X109267000Y-103425000D01*
X108966000Y-100965000D02*
X108966000Y-103124000D01*
X120015000Y-100584000D02*
X109347000Y-100584000D01*
X109347000Y-100584000D02*
X108966000Y-100965000D01*
X108966000Y-103124000D02*
X109267000Y-103425000D01*
X123251000Y-106995000D02*
X121793000Y-106995000D01*
X123825000Y-108270000D02*
X123825000Y-107569000D01*
X123825000Y-107569000D02*
X123251000Y-106995000D01*
X123825000Y-108270000D02*
X123825000Y-109220000D01*
X120062000Y-108505000D02*
X119177000Y-108505000D01*
X120777000Y-109220000D02*
X120062000Y-108505000D01*
X123825000Y-109220000D02*
X120777000Y-109220000D01*
D27*
X101409500Y-114488000D02*
X101409500Y-115125500D01*
X101409500Y-115125500D02*
X100965000Y-115570000D01*
X103505000Y-119380000D02*
X101346000Y-119380000D01*
X100965000Y-115570000D02*
X100965000Y-118999000D01*
X100965000Y-118999000D02*
X101346000Y-119380000D01*
D28*
X102364500Y-106870500D02*
X100965000Y-106870500D01*
X102364500Y-106870500D02*
X102364500Y-108752500D01*
D27*
X102364500Y-108752500D02*
X102362000Y-108755000D01*
D28*
X111059000Y-120396000D02*
X114046000Y-120396000D01*
X113096000Y-116144000D02*
X113096000Y-115273000D01*
X113284000Y-116332000D02*
X113096000Y-116144000D01*
X114046000Y-116332000D02*
X113284000Y-116332000D01*
X114300000Y-116586000D02*
X114046000Y-116332000D01*
X114300000Y-120142000D02*
X114300000Y-116586000D01*
X114046000Y-120396000D02*
X114300000Y-120142000D01*
D27*
X111059000Y-119464000D02*
X111059000Y-120396000D01*
X111059000Y-120396000D02*
X111059000Y-121412000D01*
D28*
X101412000Y-110955000D02*
X101412000Y-112585500D01*
D27*
X101412000Y-112585500D02*
X101409500Y-112588000D01*
X126365000Y-115377000D02*
X126365000Y-118872000D01*
X122004000Y-121412000D02*
X122004000Y-121328000D01*
X122004000Y-121412000D02*
X122004000Y-124206000D01*
X122004000Y-121328000D02*
X123888500Y-119443500D01*
X123888500Y-119443500D02*
X125793500Y-119443500D01*
X125793500Y-119443500D02*
X126365000Y-118872000D01*
X119761000Y-114765000D02*
X119761000Y-113538000D01*
D28*
X107696000Y-103759000D02*
X107696000Y-102809000D01*
D27*
X119761000Y-114765000D02*
X119804000Y-114808000D01*
X107710000Y-104695000D02*
X107696000Y-104709000D01*
D28*
X110199000Y-104695000D02*
X107710000Y-104695000D01*
X111059000Y-117264000D02*
X112930000Y-117264000D01*
X112930000Y-117264000D02*
X113030000Y-117364000D01*
X103190000Y-112588000D02*
X102362000Y-111760000D01*
X103190000Y-113538000D02*
X103190000Y-112588000D01*
X103309500Y-109855000D02*
X102362000Y-109855000D01*
X102362000Y-109855000D02*
X102362000Y-111760000D01*
X103312000Y-109852500D02*
X103312000Y-108755000D01*
X114996000Y-113073000D02*
X114996000Y-114173000D01*
X114996000Y-114173000D02*
X117983000Y-114173000D01*
X118491000Y-114681000D02*
X117983000Y-114173000D01*
X118491000Y-114681000D02*
X118491000Y-117257000D01*
X116924000Y-117257000D02*
X118491000Y-117257000D01*
X118491000Y-117257000D02*
X124884000Y-117257000D01*
D27*
X107696000Y-111635500D02*
X106809500Y-111635500D01*
X106809500Y-111635500D02*
X106426000Y-111252000D01*
X106426000Y-111252000D02*
X106426000Y-108458000D01*
X106426000Y-108458000D02*
X106791000Y-108093000D01*
X107696000Y-108093000D02*
X106791000Y-108093000D01*
X108554000Y-107235000D02*
X107696000Y-108093000D01*
X110199000Y-107235000D02*
X108554000Y-107235000D01*
X107696000Y-108093000D02*
X107680000Y-108093000D01*
D31*
G36*
X117800000Y-110900000D02*
X111550000Y-110900000D01*
X111550000Y-106763383D01*
X113397306Y-106763383D01*
X113442938Y-107012016D01*
X113535995Y-107247050D01*
X113672931Y-107459534D01*
X113848531Y-107641373D01*
X114056106Y-107785641D01*
X114287750Y-107886844D01*
X114534639Y-107941126D01*
X114787369Y-107946420D01*
X115036315Y-107902524D01*
X115271993Y-107811110D01*
X115485428Y-107675661D01*
X115668488Y-107501335D01*
X115814202Y-107294772D01*
X115917019Y-107063840D01*
X115973024Y-106817336D01*
X115977055Y-106528607D01*
X115927956Y-106280635D01*
X115831626Y-106046923D01*
X115691737Y-105836372D01*
X115513615Y-105657003D01*
X115304046Y-105515647D01*
X115071012Y-105417688D01*
X114823389Y-105366858D01*
X114570609Y-105365094D01*
X114322301Y-105412461D01*
X114087922Y-105507156D01*
X113876400Y-105645573D01*
X113695791Y-105822438D01*
X113552975Y-106031015D01*
X113453392Y-106263359D01*
X113400835Y-106510621D01*
X113397306Y-106763383D01*
X111550000Y-106763383D01*
X111550000Y-104069963D01*
X111595522Y-103968976D01*
X111611435Y-103857000D01*
X111611435Y-102993000D01*
X111606355Y-102929302D01*
X111572898Y-102821262D01*
X111550000Y-102786513D01*
X111550000Y-101134000D01*
X117800000Y-101134000D01*
X117800000Y-110900000D01*
X117800000Y-110900000D01*
G37*
X117800000Y-110900000D02*
X111550000Y-110900000D01*
X111550000Y-106763383D01*
X113397306Y-106763383D01*
X113442938Y-107012016D01*
X113535995Y-107247050D01*
X113672931Y-107459534D01*
X113848531Y-107641373D01*
X114056106Y-107785641D01*
X114287750Y-107886844D01*
X114534639Y-107941126D01*
X114787369Y-107946420D01*
X115036315Y-107902524D01*
X115271993Y-107811110D01*
X115485428Y-107675661D01*
X115668488Y-107501335D01*
X115814202Y-107294772D01*
X115917019Y-107063840D01*
X115973024Y-106817336D01*
X115977055Y-106528607D01*
X115927956Y-106280635D01*
X115831626Y-106046923D01*
X115691737Y-105836372D01*
X115513615Y-105657003D01*
X115304046Y-105515647D01*
X115071012Y-105417688D01*
X114823389Y-105366858D01*
X114570609Y-105365094D01*
X114322301Y-105412461D01*
X114087922Y-105507156D01*
X113876400Y-105645573D01*
X113695791Y-105822438D01*
X113552975Y-106031015D01*
X113453392Y-106263359D01*
X113400835Y-106510621D01*
X113397306Y-106763383D01*
X111550000Y-106763383D01*
X111550000Y-104069963D01*
X111595522Y-103968976D01*
X111611435Y-103857000D01*
X111611435Y-102993000D01*
X111606355Y-102929302D01*
X111572898Y-102821262D01*
X111550000Y-102786513D01*
X111550000Y-101134000D01*
X117800000Y-101134000D01*
X117800000Y-110900000D01*
M02*
