G04 #@! TF.GenerationSoftware,KiCad,Pcbnew,5.1.6-c6e7f7d~87~ubuntu18.04.1*
G04 #@! TF.CreationDate,2020-08-30T01:02:13+03:00*
G04 #@! TF.ProjectId,nikon_gps,6e696b6f-6e5f-4677-9073-2e6b69636164,B*
G04 #@! TF.SameCoordinates,Original*
G04 #@! TF.FileFunction,Other,Fab,Top*
%FSLAX46Y46*%
G04 Gerber Fmt 4.6, Leading zero omitted, Abs format (unit mm)*
G04 Created by KiCad (PCBNEW 5.1.6-c6e7f7d~87~ubuntu18.04.1) date 2020-08-30 01:02:13*
%MOMM*%
%LPD*%
G01*
G04 APERTURE LIST*
G04 #@! TA.AperFunction,Profile*
%ADD10C,0.100000*%
G04 #@! TD*
%ADD11C,0.100000*%
%ADD12C,0.060000*%
%ADD13C,0.050000*%
%ADD14C,0.075000*%
%ADD15C,0.040000*%
%ADD16C,0.150000*%
G04 APERTURE END LIST*
D10*
X116500000Y-125500000D02*
X116500000Y-128000000D01*
X111500000Y-125500000D02*
X111500000Y-128000000D01*
X114000000Y-123000000D02*
G75*
G03*
X111500000Y-125500000I0J-2500000D01*
G01*
X116500000Y-125500000D02*
G75*
G03*
X114000000Y-123000000I-2500000J0D01*
G01*
X100000000Y-128000000D02*
X111500000Y-128000000D01*
X105000000Y-100000000D02*
X128000000Y-100000000D01*
X128000000Y-123000000D02*
X128000000Y-100000000D01*
X116500000Y-128000000D02*
X123000000Y-128000000D01*
X100000000Y-128000000D02*
X100000000Y-105000000D01*
X100000000Y-105000000D02*
X102500000Y-105000000D01*
X105000000Y-102500000D02*
X105000000Y-100000000D01*
X105000000Y-102500000D02*
G75*
G02*
X102500000Y-105000000I-2500000J0D01*
G01*
X123000000Y-125500000D02*
G75*
G02*
X125500000Y-123000000I2500000J0D01*
G01*
X123000000Y-125500000D02*
X123000000Y-128000000D01*
X125500000Y-123000000D02*
X128000000Y-123000000D01*
D11*
X101073000Y-113449000D02*
X101073000Y-111849000D01*
X101873000Y-113449000D02*
X101073000Y-113449000D01*
X101873000Y-111849000D02*
X101873000Y-113449000D01*
X101073000Y-111849000D02*
X101873000Y-111849000D01*
X117904000Y-116507000D02*
X117904000Y-122507000D01*
X117904000Y-122507000D02*
X123904000Y-122507000D01*
X123904000Y-122507000D02*
X123904000Y-116507000D01*
X123904000Y-116507000D02*
X117904000Y-116507000D01*
X122654714Y-119507000D02*
G75*
G03*
X122654714Y-119507000I-1750714J0D01*
G01*
X113938000Y-115463500D02*
X113938000Y-117063500D01*
X113138000Y-115463500D02*
X113938000Y-115463500D01*
X113138000Y-117063500D02*
X113138000Y-115463500D01*
X113938000Y-117063500D02*
X113138000Y-117063500D01*
X127273000Y-111760000D02*
X127273000Y-113360000D01*
X126473000Y-111760000D02*
X127273000Y-111760000D01*
X126473000Y-113360000D02*
X126473000Y-111760000D01*
X127273000Y-113360000D02*
X126473000Y-113360000D01*
X111134600Y-122666000D02*
X111134600Y-120666000D01*
X112334600Y-122666000D02*
X111134600Y-122666000D01*
X112334600Y-120666000D02*
X112334600Y-122666000D01*
X111134600Y-120666000D02*
X112334600Y-120666000D01*
X101333400Y-108515200D02*
X102933400Y-108515200D01*
X101333400Y-109315200D02*
X101333400Y-108515200D01*
X102933400Y-109315200D02*
X101333400Y-109315200D01*
X102933400Y-108515200D02*
X102933400Y-109315200D01*
X103041500Y-105880000D02*
X103041500Y-107480000D01*
X102241500Y-105880000D02*
X103041500Y-105880000D01*
X102241500Y-107480000D02*
X102241500Y-105880000D01*
X103041500Y-107480000D02*
X102241500Y-107480000D01*
X122544000Y-110770000D02*
X122544000Y-107670000D01*
X122544000Y-107670000D02*
X124344000Y-107670000D01*
X124344000Y-110120000D02*
X124344000Y-107670000D01*
X122544000Y-110770000D02*
X123694000Y-110770000D01*
X124344000Y-110120000D02*
X123694000Y-110770000D01*
X125460000Y-106010000D02*
X123460000Y-106010000D01*
X125460000Y-104810000D02*
X125460000Y-106010000D01*
X123460000Y-104810000D02*
X125460000Y-104810000D01*
X123460000Y-106010000D02*
X123460000Y-104810000D01*
X122951000Y-101985000D02*
X122951000Y-102485000D01*
X122951000Y-102485000D02*
X121951000Y-102485000D01*
X121951000Y-102485000D02*
X121951000Y-101985000D01*
X121951000Y-101985000D02*
X122951000Y-101985000D01*
X121904000Y-115027000D02*
X121904000Y-113827000D01*
X119904000Y-115027000D02*
X121904000Y-115027000D01*
X119904000Y-114127000D02*
X119904000Y-115027000D01*
X120204000Y-113827000D02*
X119904000Y-114127000D01*
X121904000Y-113827000D02*
X120204000Y-113827000D01*
X123660000Y-112947500D02*
X125260000Y-112947500D01*
X123660000Y-113747500D02*
X123660000Y-112947500D01*
X125260000Y-113747500D02*
X123660000Y-113747500D01*
X125260000Y-112947500D02*
X125260000Y-113747500D01*
X121374000Y-100501500D02*
X122974000Y-100501500D01*
X121374000Y-101301500D02*
X121374000Y-100501500D01*
X122974000Y-101301500D02*
X121374000Y-101301500D01*
X122974000Y-100501500D02*
X122974000Y-101301500D01*
X106826000Y-123558500D02*
X106826000Y-125158500D01*
X106026000Y-123558500D02*
X106826000Y-123558500D01*
X106026000Y-125158500D02*
X106026000Y-123558500D01*
X106826000Y-125158500D02*
X106026000Y-125158500D01*
X109966000Y-121504000D02*
X107966000Y-121504000D01*
X109966000Y-120304000D02*
X109966000Y-121504000D01*
X107966000Y-120304000D02*
X109966000Y-120304000D01*
X107966000Y-121504000D02*
X107966000Y-120304000D01*
X119904000Y-123987000D02*
X119904000Y-125187000D01*
X121904000Y-123987000D02*
X119904000Y-123987000D01*
X121904000Y-124887000D02*
X121904000Y-123987000D01*
X121604000Y-125187000D02*
X121904000Y-124887000D01*
X119904000Y-125187000D02*
X121604000Y-125187000D01*
X127473000Y-108093000D02*
X127473000Y-110093000D01*
X126273000Y-108093000D02*
X127473000Y-108093000D01*
X126273000Y-110093000D02*
X126273000Y-108093000D01*
X127473000Y-110093000D02*
X126273000Y-110093000D01*
X111024000Y-116851000D02*
X107924000Y-116851000D01*
X107924000Y-116851000D02*
X107924000Y-115051000D01*
X110374000Y-115051000D02*
X107924000Y-115051000D01*
X111024000Y-116851000D02*
X111024000Y-115701000D01*
X110374000Y-115051000D02*
X111024000Y-115701000D01*
X107416000Y-122925000D02*
X110516000Y-122925000D01*
X110516000Y-122925000D02*
X110516000Y-124725000D01*
X108066000Y-124725000D02*
X110516000Y-124725000D01*
X107416000Y-122925000D02*
X107416000Y-124075000D01*
X108066000Y-124725000D02*
X107416000Y-124075000D01*
X109966000Y-127473000D02*
X107966000Y-127473000D01*
X109966000Y-126273000D02*
X109966000Y-127473000D01*
X107966000Y-126273000D02*
X109966000Y-126273000D01*
X107966000Y-127473000D02*
X107966000Y-126273000D01*
X113036400Y-120662800D02*
X113836400Y-120662800D01*
X113836400Y-120662800D02*
X113836400Y-122262800D01*
X113836400Y-122262800D02*
X113036400Y-122262800D01*
X113036400Y-122262800D02*
X113036400Y-120662800D01*
X122331500Y-112198100D02*
X122331500Y-111398100D01*
X122331500Y-111398100D02*
X123931500Y-111398100D01*
X123931500Y-111398100D02*
X123931500Y-112198100D01*
X123931500Y-112198100D02*
X122331500Y-112198100D01*
X106534000Y-117106500D02*
X106534000Y-115506500D01*
X107334000Y-117106500D02*
X106534000Y-117106500D01*
X107334000Y-115506500D02*
X107334000Y-117106500D01*
X106534000Y-115506500D02*
X107334000Y-115506500D01*
X121854000Y-126765000D02*
X120254000Y-126765000D01*
X121854000Y-125965000D02*
X121854000Y-126765000D01*
X120254000Y-125965000D02*
X121854000Y-125965000D01*
X120254000Y-126765000D02*
X120254000Y-125965000D01*
X111614000Y-115463500D02*
X112414000Y-115463500D01*
X112414000Y-115463500D02*
X112414000Y-117063500D01*
X112414000Y-117063500D02*
X111614000Y-117063500D01*
X111614000Y-117063500D02*
X111614000Y-115463500D01*
X121173000Y-103632000D02*
X122413000Y-103632000D01*
X121173000Y-105632000D02*
X121173000Y-103632000D01*
X122413000Y-105632000D02*
X121173000Y-105632000D01*
X122413000Y-103632000D02*
X122413000Y-105632000D01*
X103851000Y-110867000D02*
X103851000Y-110367000D01*
X103851000Y-110367000D02*
X104851000Y-110367000D01*
X104851000Y-110367000D02*
X104851000Y-110867000D01*
X104851000Y-110867000D02*
X103851000Y-110867000D01*
X101246000Y-110363000D02*
X101096000Y-110363000D01*
X101246000Y-110563000D02*
X101546000Y-110363000D01*
X101246000Y-110163000D02*
X101246000Y-110563000D01*
X101546000Y-110363000D02*
X101246000Y-110163000D01*
X101546000Y-110363000D02*
X101696000Y-110363000D01*
X101546000Y-110163000D02*
X101546000Y-110563000D01*
X100696000Y-110813000D02*
X100696000Y-109913000D01*
X101996000Y-110813000D02*
X100696000Y-110813000D01*
X101996000Y-109913000D02*
X101996000Y-110813000D01*
X100696000Y-109913000D02*
X101996000Y-109913000D01*
X105236000Y-107632500D02*
X105236000Y-109232500D01*
X104436000Y-107632500D02*
X105236000Y-107632500D01*
X104436000Y-109232500D02*
X104436000Y-107632500D01*
X105236000Y-109232500D02*
X104436000Y-109232500D01*
X118356000Y-123575000D02*
X118356000Y-124075000D01*
X118356000Y-124075000D02*
X117356000Y-124075000D01*
X117356000Y-124075000D02*
X117356000Y-123575000D01*
X117356000Y-123575000D02*
X118356000Y-123575000D01*
X114662000Y-117063500D02*
X114662000Y-115463500D01*
X115462000Y-117063500D02*
X114662000Y-117063500D01*
X115462000Y-115463500D02*
X115462000Y-117063500D01*
X114662000Y-115463500D02*
X115462000Y-115463500D01*
X118956000Y-125931000D02*
X118456000Y-125431000D01*
X116756000Y-126781000D02*
X116756000Y-125431000D01*
X118956000Y-126781000D02*
X116756000Y-126781000D01*
X118456000Y-125431000D02*
X116756000Y-125431000D01*
X118956000Y-126781000D02*
X118956000Y-125931000D01*
X103711000Y-111549000D02*
X103211000Y-112049000D01*
X104561000Y-113749000D02*
X103211000Y-113749000D01*
X104561000Y-111549000D02*
X104561000Y-113749000D01*
X103211000Y-112049000D02*
X103211000Y-113749000D01*
X104561000Y-111549000D02*
X103711000Y-111549000D01*
D12*
X101653952Y-112715666D02*
X101463476Y-112849000D01*
X101653952Y-112944238D02*
X101253952Y-112944238D01*
X101253952Y-112791857D01*
X101273000Y-112753761D01*
X101292047Y-112734714D01*
X101330142Y-112715666D01*
X101387285Y-112715666D01*
X101425380Y-112734714D01*
X101444428Y-112753761D01*
X101463476Y-112791857D01*
X101463476Y-112944238D01*
X101253952Y-112353761D02*
X101253952Y-112544238D01*
X101444428Y-112563285D01*
X101425380Y-112544238D01*
X101406333Y-112506142D01*
X101406333Y-112410904D01*
X101425380Y-112372809D01*
X101444428Y-112353761D01*
X101482523Y-112334714D01*
X101577761Y-112334714D01*
X101615857Y-112353761D01*
X101634904Y-112372809D01*
X101653952Y-112410904D01*
X101653952Y-112506142D01*
X101634904Y-112544238D01*
X101615857Y-112563285D01*
D13*
X120370666Y-119033904D02*
X120427809Y-119052952D01*
X120523047Y-119052952D01*
X120561142Y-119033904D01*
X120580190Y-119014857D01*
X120599238Y-118976761D01*
X120599238Y-118938666D01*
X120580190Y-118900571D01*
X120561142Y-118881523D01*
X120523047Y-118862476D01*
X120446857Y-118843428D01*
X120408761Y-118824380D01*
X120389714Y-118805333D01*
X120370666Y-118767238D01*
X120370666Y-118729142D01*
X120389714Y-118691047D01*
X120408761Y-118672000D01*
X120446857Y-118652952D01*
X120542095Y-118652952D01*
X120599238Y-118672000D01*
X120732571Y-118652952D02*
X120827809Y-119052952D01*
X120904000Y-118767238D01*
X120980190Y-119052952D01*
X121075428Y-118652952D01*
X121437333Y-119052952D02*
X121208761Y-119052952D01*
X121323047Y-119052952D02*
X121323047Y-118652952D01*
X121284952Y-118710095D01*
X121246857Y-118748190D01*
X121208761Y-118767238D01*
D14*
X113718952Y-116330166D02*
X113528476Y-116463500D01*
X113718952Y-116558738D02*
X113318952Y-116558738D01*
X113318952Y-116406357D01*
X113338000Y-116368261D01*
X113357047Y-116349214D01*
X113395142Y-116330166D01*
X113452285Y-116330166D01*
X113490380Y-116349214D01*
X113509428Y-116368261D01*
X113528476Y-116406357D01*
X113528476Y-116558738D01*
X113718952Y-116139690D02*
X113718952Y-116063500D01*
X113699904Y-116025404D01*
X113680857Y-116006357D01*
X113623714Y-115968261D01*
X113547523Y-115949214D01*
X113395142Y-115949214D01*
X113357047Y-115968261D01*
X113338000Y-115987309D01*
X113318952Y-116025404D01*
X113318952Y-116101595D01*
X113338000Y-116139690D01*
X113357047Y-116158738D01*
X113395142Y-116177785D01*
X113490380Y-116177785D01*
X113528476Y-116158738D01*
X113547523Y-116139690D01*
X113566571Y-116101595D01*
X113566571Y-116025404D01*
X113547523Y-115987309D01*
X113528476Y-115968261D01*
X113490380Y-115949214D01*
X127053952Y-112626666D02*
X126863476Y-112760000D01*
X127053952Y-112855238D02*
X126653952Y-112855238D01*
X126653952Y-112702857D01*
X126673000Y-112664761D01*
X126692047Y-112645714D01*
X126730142Y-112626666D01*
X126787285Y-112626666D01*
X126825380Y-112645714D01*
X126844428Y-112664761D01*
X126863476Y-112702857D01*
X126863476Y-112855238D01*
X126825380Y-112398095D02*
X126806333Y-112436190D01*
X126787285Y-112455238D01*
X126749190Y-112474285D01*
X126730142Y-112474285D01*
X126692047Y-112455238D01*
X126673000Y-112436190D01*
X126653952Y-112398095D01*
X126653952Y-112321904D01*
X126673000Y-112283809D01*
X126692047Y-112264761D01*
X126730142Y-112245714D01*
X126749190Y-112245714D01*
X126787285Y-112264761D01*
X126806333Y-112283809D01*
X126825380Y-112321904D01*
X126825380Y-112398095D01*
X126844428Y-112436190D01*
X126863476Y-112455238D01*
X126901571Y-112474285D01*
X126977761Y-112474285D01*
X127015857Y-112455238D01*
X127034904Y-112436190D01*
X127053952Y-112398095D01*
X127053952Y-112321904D01*
X127034904Y-112283809D01*
X127015857Y-112264761D01*
X126977761Y-112245714D01*
X126901571Y-112245714D01*
X126863476Y-112264761D01*
X126844428Y-112283809D01*
X126825380Y-112321904D01*
D13*
X111659171Y-121749333D02*
X111682980Y-121773142D01*
X111706790Y-121844571D01*
X111706790Y-121892190D01*
X111682980Y-121963619D01*
X111635361Y-122011238D01*
X111587742Y-122035047D01*
X111492504Y-122058857D01*
X111421076Y-122058857D01*
X111325838Y-122035047D01*
X111278219Y-122011238D01*
X111230600Y-121963619D01*
X111206790Y-121892190D01*
X111206790Y-121844571D01*
X111230600Y-121773142D01*
X111254409Y-121749333D01*
X111206790Y-121582666D02*
X111206790Y-121249333D01*
X111706790Y-121463619D01*
D12*
X102066733Y-109096152D02*
X101933400Y-108905676D01*
X101838161Y-109096152D02*
X101838161Y-108696152D01*
X101990542Y-108696152D01*
X102028638Y-108715200D01*
X102047685Y-108734247D01*
X102066733Y-108772342D01*
X102066733Y-108829485D01*
X102047685Y-108867580D01*
X102028638Y-108886628D01*
X101990542Y-108905676D01*
X101838161Y-108905676D01*
X102409590Y-108829485D02*
X102409590Y-109096152D01*
X102314352Y-108677104D02*
X102219114Y-108962819D01*
X102466733Y-108962819D01*
X102822452Y-106746666D02*
X102631976Y-106880000D01*
X102822452Y-106975238D02*
X102422452Y-106975238D01*
X102422452Y-106822857D01*
X102441500Y-106784761D01*
X102460547Y-106765714D01*
X102498642Y-106746666D01*
X102555785Y-106746666D01*
X102593880Y-106765714D01*
X102612928Y-106784761D01*
X102631976Y-106822857D01*
X102631976Y-106975238D01*
X102422452Y-106613333D02*
X102422452Y-106365714D01*
X102574833Y-106499047D01*
X102574833Y-106441904D01*
X102593880Y-106403809D01*
X102612928Y-106384761D01*
X102651023Y-106365714D01*
X102746261Y-106365714D01*
X102784357Y-106384761D01*
X102803404Y-106403809D01*
X102822452Y-106441904D01*
X102822452Y-106556190D01*
X102803404Y-106594285D01*
X102784357Y-106613333D01*
D14*
X122662190Y-109600952D02*
X123066952Y-109600952D01*
X123114571Y-109577142D01*
X123138380Y-109553333D01*
X123162190Y-109505714D01*
X123162190Y-109410476D01*
X123138380Y-109362857D01*
X123114571Y-109339047D01*
X123066952Y-109315238D01*
X122662190Y-109315238D01*
X122662190Y-108839047D02*
X122662190Y-109077142D01*
X122900285Y-109100952D01*
X122876476Y-109077142D01*
X122852666Y-109029523D01*
X122852666Y-108910476D01*
X122876476Y-108862857D01*
X122900285Y-108839047D01*
X122947904Y-108815238D01*
X123066952Y-108815238D01*
X123114571Y-108839047D01*
X123138380Y-108862857D01*
X123162190Y-108910476D01*
X123162190Y-109029523D01*
X123138380Y-109077142D01*
X123114571Y-109100952D01*
D13*
X124473500Y-105799714D02*
X124330642Y-105799714D01*
X124330642Y-105499714D01*
X124730642Y-105799714D02*
X124559214Y-105799714D01*
X124644928Y-105799714D02*
X124644928Y-105499714D01*
X124616357Y-105542571D01*
X124587785Y-105571142D01*
X124559214Y-105585428D01*
D15*
X122409333Y-102070285D02*
X122397428Y-102082190D01*
X122361714Y-102094095D01*
X122337904Y-102094095D01*
X122302190Y-102082190D01*
X122278380Y-102058380D01*
X122266476Y-102034571D01*
X122254571Y-101986952D01*
X122254571Y-101951238D01*
X122266476Y-101903619D01*
X122278380Y-101879809D01*
X122302190Y-101856000D01*
X122337904Y-101844095D01*
X122361714Y-101844095D01*
X122397428Y-101856000D01*
X122409333Y-101867904D01*
X122504571Y-101867904D02*
X122516476Y-101856000D01*
X122540285Y-101844095D01*
X122599809Y-101844095D01*
X122623619Y-101856000D01*
X122635523Y-101867904D01*
X122647428Y-101891714D01*
X122647428Y-101915523D01*
X122635523Y-101951238D01*
X122492666Y-102094095D01*
X122647428Y-102094095D01*
D13*
X125516666Y-102430952D02*
X125516666Y-102030952D01*
X125650000Y-102316666D01*
X125783333Y-102030952D01*
X125783333Y-102430952D01*
X125973809Y-102430952D02*
X125973809Y-102030952D01*
X125973809Y-102221428D02*
X126202380Y-102221428D01*
X126202380Y-102430952D02*
X126202380Y-102030952D01*
X126373809Y-102069047D02*
X126392857Y-102050000D01*
X126430952Y-102030952D01*
X126526190Y-102030952D01*
X126564285Y-102050000D01*
X126583333Y-102069047D01*
X126602380Y-102107142D01*
X126602380Y-102145238D01*
X126583333Y-102202380D01*
X126354761Y-102430952D01*
X126602380Y-102430952D01*
X121652095Y-114611523D02*
X121402095Y-114611523D01*
X121402095Y-114552000D01*
X121414000Y-114516285D01*
X121437809Y-114492476D01*
X121461619Y-114480571D01*
X121509238Y-114468666D01*
X121544952Y-114468666D01*
X121592571Y-114480571D01*
X121616380Y-114492476D01*
X121640190Y-114516285D01*
X121652095Y-114552000D01*
X121652095Y-114611523D01*
X121402095Y-114385333D02*
X121402095Y-114230571D01*
X121497333Y-114313904D01*
X121497333Y-114278190D01*
X121509238Y-114254380D01*
X121521142Y-114242476D01*
X121544952Y-114230571D01*
X121604476Y-114230571D01*
X121628285Y-114242476D01*
X121640190Y-114254380D01*
X121652095Y-114278190D01*
X121652095Y-114349619D01*
X121640190Y-114373428D01*
X121628285Y-114385333D01*
D14*
X124393333Y-113528452D02*
X124260000Y-113337976D01*
X124164761Y-113528452D02*
X124164761Y-113128452D01*
X124317142Y-113128452D01*
X124355238Y-113147500D01*
X124374285Y-113166547D01*
X124393333Y-113204642D01*
X124393333Y-113261785D01*
X124374285Y-113299880D01*
X124355238Y-113318928D01*
X124317142Y-113337976D01*
X124164761Y-113337976D01*
X124526666Y-113128452D02*
X124793333Y-113128452D01*
X124621904Y-113528452D01*
X122107333Y-100764952D02*
X121974000Y-100574476D01*
X121878761Y-100764952D02*
X121878761Y-100364952D01*
X122031142Y-100364952D01*
X122069238Y-100384000D01*
X122088285Y-100403047D01*
X122107333Y-100441142D01*
X122107333Y-100498285D01*
X122088285Y-100536380D01*
X122069238Y-100555428D01*
X122031142Y-100574476D01*
X121878761Y-100574476D01*
X122259714Y-100403047D02*
X122278761Y-100384000D01*
X122316857Y-100364952D01*
X122412095Y-100364952D01*
X122450190Y-100384000D01*
X122469238Y-100403047D01*
X122488285Y-100441142D01*
X122488285Y-100479238D01*
X122469238Y-100536380D01*
X122240666Y-100764952D01*
X122488285Y-100764952D01*
D12*
X106397428Y-124491833D02*
X106397428Y-124625166D01*
X106606952Y-124625166D02*
X106206952Y-124625166D01*
X106206952Y-124434690D01*
X106606952Y-124072785D02*
X106606952Y-124301357D01*
X106606952Y-124187071D02*
X106206952Y-124187071D01*
X106264095Y-124225166D01*
X106302190Y-124263261D01*
X106321238Y-124301357D01*
D13*
X108979500Y-121293714D02*
X108836642Y-121293714D01*
X108836642Y-120993714D01*
X109065214Y-121022285D02*
X109079500Y-121008000D01*
X109108071Y-120993714D01*
X109179500Y-120993714D01*
X109208071Y-121008000D01*
X109222357Y-121022285D01*
X109236642Y-121050857D01*
X109236642Y-121079428D01*
X109222357Y-121122285D01*
X109050928Y-121293714D01*
X109236642Y-121293714D01*
X120382095Y-124771523D02*
X120132095Y-124771523D01*
X120132095Y-124712000D01*
X120144000Y-124676285D01*
X120167809Y-124652476D01*
X120191619Y-124640571D01*
X120239238Y-124628666D01*
X120274952Y-124628666D01*
X120322571Y-124640571D01*
X120346380Y-124652476D01*
X120370190Y-124676285D01*
X120382095Y-124712000D01*
X120382095Y-124771523D01*
X120155904Y-124533428D02*
X120144000Y-124521523D01*
X120132095Y-124497714D01*
X120132095Y-124438190D01*
X120144000Y-124414380D01*
X120155904Y-124402476D01*
X120179714Y-124390571D01*
X120203523Y-124390571D01*
X120239238Y-124402476D01*
X120382095Y-124545333D01*
X120382095Y-124390571D01*
X101126952Y-119513333D02*
X101412666Y-119513333D01*
X101469809Y-119532380D01*
X101507904Y-119570476D01*
X101526952Y-119627619D01*
X101526952Y-119665714D01*
X101526952Y-119113333D02*
X101526952Y-119341904D01*
X101526952Y-119227619D02*
X101126952Y-119227619D01*
X101184095Y-119265714D01*
X101222190Y-119303809D01*
X101241238Y-119341904D01*
X126726142Y-109206500D02*
X126740428Y-109220785D01*
X126754714Y-109263642D01*
X126754714Y-109292214D01*
X126740428Y-109335071D01*
X126711857Y-109363642D01*
X126683285Y-109377928D01*
X126626142Y-109392214D01*
X126583285Y-109392214D01*
X126526142Y-109377928D01*
X126497571Y-109363642D01*
X126469000Y-109335071D01*
X126454714Y-109292214D01*
X126454714Y-109263642D01*
X126469000Y-109220785D01*
X126483285Y-109206500D01*
X126583285Y-109035071D02*
X126569000Y-109063642D01*
X126554714Y-109077928D01*
X126526142Y-109092214D01*
X126511857Y-109092214D01*
X126483285Y-109077928D01*
X126469000Y-109063642D01*
X126454714Y-109035071D01*
X126454714Y-108977928D01*
X126469000Y-108949357D01*
X126483285Y-108935071D01*
X126511857Y-108920785D01*
X126526142Y-108920785D01*
X126554714Y-108935071D01*
X126569000Y-108949357D01*
X126583285Y-108977928D01*
X126583285Y-109035071D01*
X126597571Y-109063642D01*
X126611857Y-109077928D01*
X126640428Y-109092214D01*
X126697571Y-109092214D01*
X126726142Y-109077928D01*
X126740428Y-109063642D01*
X126754714Y-109035071D01*
X126754714Y-108977928D01*
X126740428Y-108949357D01*
X126726142Y-108935071D01*
X126697571Y-108920785D01*
X126640428Y-108920785D01*
X126611857Y-108935071D01*
X126597571Y-108949357D01*
X126583285Y-108977928D01*
X102016666Y-125930952D02*
X102016666Y-125530952D01*
X102150000Y-125816666D01*
X102283333Y-125530952D01*
X102283333Y-125930952D01*
X102473809Y-125930952D02*
X102473809Y-125530952D01*
X102473809Y-125721428D02*
X102702380Y-125721428D01*
X102702380Y-125930952D02*
X102702380Y-125530952D01*
X103102380Y-125930952D02*
X102873809Y-125930952D01*
X102988095Y-125930952D02*
X102988095Y-125530952D01*
X102950000Y-125588095D01*
X102911904Y-125626190D01*
X102873809Y-125645238D01*
D14*
X109093047Y-116185190D02*
X109093047Y-116589952D01*
X109116857Y-116637571D01*
X109140666Y-116661380D01*
X109188285Y-116685190D01*
X109283523Y-116685190D01*
X109331142Y-116661380D01*
X109354952Y-116637571D01*
X109378761Y-116589952D01*
X109378761Y-116185190D01*
X109569238Y-116185190D02*
X109878761Y-116185190D01*
X109712095Y-116375666D01*
X109783523Y-116375666D01*
X109831142Y-116399476D01*
X109854952Y-116423285D01*
X109878761Y-116470904D01*
X109878761Y-116589952D01*
X109854952Y-116637571D01*
X109831142Y-116661380D01*
X109783523Y-116685190D01*
X109640666Y-116685190D01*
X109593047Y-116661380D01*
X109569238Y-116637571D01*
X108585047Y-123043190D02*
X108585047Y-123447952D01*
X108608857Y-123495571D01*
X108632666Y-123519380D01*
X108680285Y-123543190D01*
X108775523Y-123543190D01*
X108823142Y-123519380D01*
X108846952Y-123495571D01*
X108870761Y-123447952D01*
X108870761Y-123043190D01*
X109323142Y-123209857D02*
X109323142Y-123543190D01*
X109204095Y-123019380D02*
X109085047Y-123376523D01*
X109394571Y-123376523D01*
D13*
X108882666Y-127305571D02*
X108858857Y-127329380D01*
X108787428Y-127353190D01*
X108739809Y-127353190D01*
X108668380Y-127329380D01*
X108620761Y-127281761D01*
X108596952Y-127234142D01*
X108573142Y-127138904D01*
X108573142Y-127067476D01*
X108596952Y-126972238D01*
X108620761Y-126924619D01*
X108668380Y-126877000D01*
X108739809Y-126853190D01*
X108787428Y-126853190D01*
X108858857Y-126877000D01*
X108882666Y-126900809D01*
X109335047Y-126853190D02*
X109096952Y-126853190D01*
X109073142Y-127091285D01*
X109096952Y-127067476D01*
X109144571Y-127043666D01*
X109263619Y-127043666D01*
X109311238Y-127067476D01*
X109335047Y-127091285D01*
X109358857Y-127138904D01*
X109358857Y-127257952D01*
X109335047Y-127305571D01*
X109311238Y-127329380D01*
X109263619Y-127353190D01*
X109144571Y-127353190D01*
X109096952Y-127329380D01*
X109073142Y-127305571D01*
X113652685Y-121504466D02*
X113664590Y-121516371D01*
X113676495Y-121552085D01*
X113676495Y-121575895D01*
X113664590Y-121611609D01*
X113640780Y-121635419D01*
X113616971Y-121647323D01*
X113569352Y-121659228D01*
X113533638Y-121659228D01*
X113486019Y-121647323D01*
X113462209Y-121635419D01*
X113438400Y-121611609D01*
X113426495Y-121575895D01*
X113426495Y-121552085D01*
X113438400Y-121516371D01*
X113450304Y-121504466D01*
X113426495Y-121290180D02*
X113426495Y-121337800D01*
X113438400Y-121361609D01*
X113450304Y-121373514D01*
X113486019Y-121397323D01*
X113533638Y-121409228D01*
X113628876Y-121409228D01*
X113652685Y-121397323D01*
X113664590Y-121385419D01*
X113676495Y-121361609D01*
X113676495Y-121313990D01*
X113664590Y-121290180D01*
X113652685Y-121278276D01*
X113628876Y-121266371D01*
X113569352Y-121266371D01*
X113545542Y-121278276D01*
X113533638Y-121290180D01*
X113521733Y-121313990D01*
X113521733Y-121361609D01*
X113533638Y-121385419D01*
X113545542Y-121397323D01*
X113569352Y-121409228D01*
X123089833Y-111760385D02*
X123077928Y-111772290D01*
X123042214Y-111784195D01*
X123018404Y-111784195D01*
X122982690Y-111772290D01*
X122958880Y-111748480D01*
X122946976Y-111724671D01*
X122935071Y-111677052D01*
X122935071Y-111641338D01*
X122946976Y-111593719D01*
X122958880Y-111569909D01*
X122982690Y-111546100D01*
X123018404Y-111534195D01*
X123042214Y-111534195D01*
X123077928Y-111546100D01*
X123089833Y-111558004D01*
X123208880Y-111784195D02*
X123256500Y-111784195D01*
X123280309Y-111772290D01*
X123292214Y-111760385D01*
X123316023Y-111724671D01*
X123327928Y-111677052D01*
X123327928Y-111581814D01*
X123316023Y-111558004D01*
X123304119Y-111546100D01*
X123280309Y-111534195D01*
X123232690Y-111534195D01*
X123208880Y-111546100D01*
X123196976Y-111558004D01*
X123185071Y-111581814D01*
X123185071Y-111641338D01*
X123196976Y-111665147D01*
X123208880Y-111677052D01*
X123232690Y-111688957D01*
X123280309Y-111688957D01*
X123304119Y-111677052D01*
X123316023Y-111665147D01*
X123327928Y-111641338D01*
D14*
X107114952Y-116373166D02*
X106924476Y-116506500D01*
X107114952Y-116601738D02*
X106714952Y-116601738D01*
X106714952Y-116449357D01*
X106734000Y-116411261D01*
X106753047Y-116392214D01*
X106791142Y-116373166D01*
X106848285Y-116373166D01*
X106886380Y-116392214D01*
X106905428Y-116411261D01*
X106924476Y-116449357D01*
X106924476Y-116601738D01*
X106714952Y-116030309D02*
X106714952Y-116106500D01*
X106734000Y-116144595D01*
X106753047Y-116163642D01*
X106810190Y-116201738D01*
X106886380Y-116220785D01*
X107038761Y-116220785D01*
X107076857Y-116201738D01*
X107095904Y-116182690D01*
X107114952Y-116144595D01*
X107114952Y-116068404D01*
X107095904Y-116030309D01*
X107076857Y-116011261D01*
X107038761Y-115992214D01*
X106943523Y-115992214D01*
X106905428Y-116011261D01*
X106886380Y-116030309D01*
X106867333Y-116068404D01*
X106867333Y-116144595D01*
X106886380Y-116182690D01*
X106905428Y-116201738D01*
X106943523Y-116220785D01*
X120796857Y-126545952D02*
X120663523Y-126355476D01*
X120568285Y-126545952D02*
X120568285Y-126145952D01*
X120720666Y-126145952D01*
X120758761Y-126165000D01*
X120777809Y-126184047D01*
X120796857Y-126222142D01*
X120796857Y-126279285D01*
X120777809Y-126317380D01*
X120758761Y-126336428D01*
X120720666Y-126355476D01*
X120568285Y-126355476D01*
X121177809Y-126545952D02*
X120949238Y-126545952D01*
X121063523Y-126545952D02*
X121063523Y-126145952D01*
X121025428Y-126203095D01*
X120987333Y-126241190D01*
X120949238Y-126260238D01*
X121425428Y-126145952D02*
X121463523Y-126145952D01*
X121501619Y-126165000D01*
X121520666Y-126184047D01*
X121539714Y-126222142D01*
X121558761Y-126298333D01*
X121558761Y-126393571D01*
X121539714Y-126469761D01*
X121520666Y-126507857D01*
X121501619Y-126526904D01*
X121463523Y-126545952D01*
X121425428Y-126545952D01*
X121387333Y-126526904D01*
X121368285Y-126507857D01*
X121349238Y-126469761D01*
X121330190Y-126393571D01*
X121330190Y-126298333D01*
X121349238Y-126222142D01*
X121368285Y-126184047D01*
X121387333Y-126165000D01*
X121425428Y-126145952D01*
D13*
X112230285Y-116305166D02*
X112242190Y-116317071D01*
X112254095Y-116352785D01*
X112254095Y-116376595D01*
X112242190Y-116412309D01*
X112218380Y-116436119D01*
X112194571Y-116448023D01*
X112146952Y-116459928D01*
X112111238Y-116459928D01*
X112063619Y-116448023D01*
X112039809Y-116436119D01*
X112016000Y-116412309D01*
X112004095Y-116376595D01*
X112004095Y-116352785D01*
X112016000Y-116317071D01*
X112027904Y-116305166D01*
X112087428Y-116090880D02*
X112254095Y-116090880D01*
X111992190Y-116150404D02*
X112170761Y-116209928D01*
X112170761Y-116055166D01*
X121717571Y-104715333D02*
X121741380Y-104739142D01*
X121765190Y-104810571D01*
X121765190Y-104858190D01*
X121741380Y-104929619D01*
X121693761Y-104977238D01*
X121646142Y-105001047D01*
X121550904Y-105024857D01*
X121479476Y-105024857D01*
X121384238Y-105001047D01*
X121336619Y-104977238D01*
X121289000Y-104929619D01*
X121265190Y-104858190D01*
X121265190Y-104810571D01*
X121289000Y-104739142D01*
X121312809Y-104715333D01*
X121765190Y-104239142D02*
X121765190Y-104524857D01*
X121765190Y-104382000D02*
X121265190Y-104382000D01*
X121336619Y-104429619D01*
X121384238Y-104477238D01*
X121408047Y-104524857D01*
D15*
X104309333Y-110706285D02*
X104297428Y-110718190D01*
X104261714Y-110730095D01*
X104237904Y-110730095D01*
X104202190Y-110718190D01*
X104178380Y-110694380D01*
X104166476Y-110670571D01*
X104154571Y-110622952D01*
X104154571Y-110587238D01*
X104166476Y-110539619D01*
X104178380Y-110515809D01*
X104202190Y-110492000D01*
X104237904Y-110480095D01*
X104261714Y-110480095D01*
X104297428Y-110492000D01*
X104309333Y-110503904D01*
X104392666Y-110480095D02*
X104547428Y-110480095D01*
X104464095Y-110575333D01*
X104499809Y-110575333D01*
X104523619Y-110587238D01*
X104535523Y-110599142D01*
X104547428Y-110622952D01*
X104547428Y-110682476D01*
X104535523Y-110706285D01*
X104523619Y-110718190D01*
X104499809Y-110730095D01*
X104428380Y-110730095D01*
X104404571Y-110718190D01*
X104392666Y-110706285D01*
D16*
X100607904Y-112115380D02*
X100607904Y-111115380D01*
X100846000Y-111115380D01*
X100988857Y-111163000D01*
X101084095Y-111258238D01*
X101131714Y-111353476D01*
X101179333Y-111543952D01*
X101179333Y-111686809D01*
X101131714Y-111877285D01*
X101084095Y-111972523D01*
X100988857Y-112067761D01*
X100846000Y-112115380D01*
X100607904Y-112115380D01*
X102131714Y-112115380D02*
X101560285Y-112115380D01*
X101846000Y-112115380D02*
X101846000Y-111115380D01*
X101750761Y-111258238D01*
X101655523Y-111353476D01*
X101560285Y-111401095D01*
D12*
X105016952Y-108499166D02*
X104826476Y-108632500D01*
X105016952Y-108727738D02*
X104616952Y-108727738D01*
X104616952Y-108575357D01*
X104636000Y-108537261D01*
X104655047Y-108518214D01*
X104693142Y-108499166D01*
X104750285Y-108499166D01*
X104788380Y-108518214D01*
X104807428Y-108537261D01*
X104826476Y-108575357D01*
X104826476Y-108727738D01*
X105016952Y-108118214D02*
X105016952Y-108346785D01*
X105016952Y-108232500D02*
X104616952Y-108232500D01*
X104674095Y-108270595D01*
X104712190Y-108308690D01*
X104731238Y-108346785D01*
D15*
X117695285Y-123914285D02*
X117683380Y-123926190D01*
X117647666Y-123938095D01*
X117623857Y-123938095D01*
X117588142Y-123926190D01*
X117564333Y-123902380D01*
X117552428Y-123878571D01*
X117540523Y-123830952D01*
X117540523Y-123795238D01*
X117552428Y-123747619D01*
X117564333Y-123723809D01*
X117588142Y-123700000D01*
X117623857Y-123688095D01*
X117647666Y-123688095D01*
X117683380Y-123700000D01*
X117695285Y-123711904D01*
X117933380Y-123938095D02*
X117790523Y-123938095D01*
X117861952Y-123938095D02*
X117861952Y-123688095D01*
X117838142Y-123723809D01*
X117814333Y-123747619D01*
X117790523Y-123759523D01*
X118088142Y-123688095D02*
X118111952Y-123688095D01*
X118135761Y-123700000D01*
X118147666Y-123711904D01*
X118159571Y-123735714D01*
X118171476Y-123783333D01*
X118171476Y-123842857D01*
X118159571Y-123890476D01*
X118147666Y-123914285D01*
X118135761Y-123926190D01*
X118111952Y-123938095D01*
X118088142Y-123938095D01*
X118064333Y-123926190D01*
X118052428Y-123914285D01*
X118040523Y-123890476D01*
X118028619Y-123842857D01*
X118028619Y-123783333D01*
X118040523Y-123735714D01*
X118052428Y-123711904D01*
X118064333Y-123700000D01*
X118088142Y-123688095D01*
D12*
X115242952Y-116520642D02*
X115052476Y-116653976D01*
X115242952Y-116749214D02*
X114842952Y-116749214D01*
X114842952Y-116596833D01*
X114862000Y-116558738D01*
X114881047Y-116539690D01*
X114919142Y-116520642D01*
X114976285Y-116520642D01*
X115014380Y-116539690D01*
X115033428Y-116558738D01*
X115052476Y-116596833D01*
X115052476Y-116749214D01*
X115242952Y-116139690D02*
X115242952Y-116368261D01*
X115242952Y-116253976D02*
X114842952Y-116253976D01*
X114900095Y-116292071D01*
X114938190Y-116330166D01*
X114957238Y-116368261D01*
X115242952Y-115758738D02*
X115242952Y-115987309D01*
X115242952Y-115873023D02*
X114842952Y-115873023D01*
X114900095Y-115911119D01*
X114938190Y-115949214D01*
X114957238Y-115987309D01*
D14*
X117808380Y-126384809D02*
X117760761Y-126361000D01*
X117713142Y-126313380D01*
X117641714Y-126241952D01*
X117594095Y-126218142D01*
X117546476Y-126218142D01*
X117570285Y-126337190D02*
X117522666Y-126313380D01*
X117475047Y-126265761D01*
X117451238Y-126170523D01*
X117451238Y-126003857D01*
X117475047Y-125908619D01*
X117522666Y-125861000D01*
X117570285Y-125837190D01*
X117665523Y-125837190D01*
X117713142Y-125861000D01*
X117760761Y-125908619D01*
X117784571Y-126003857D01*
X117784571Y-126170523D01*
X117760761Y-126265761D01*
X117713142Y-126313380D01*
X117665523Y-126337190D01*
X117570285Y-126337190D01*
X118260761Y-126337190D02*
X117975047Y-126337190D01*
X118117904Y-126337190D02*
X118117904Y-125837190D01*
X118070285Y-125908619D01*
X118022666Y-125956238D01*
X117975047Y-125980047D01*
X103612190Y-113029952D02*
X104016952Y-113029952D01*
X104064571Y-113006142D01*
X104088380Y-112982333D01*
X104112190Y-112934714D01*
X104112190Y-112839476D01*
X104088380Y-112791857D01*
X104064571Y-112768047D01*
X104016952Y-112744238D01*
X103612190Y-112744238D01*
X103659809Y-112529952D02*
X103636000Y-112506142D01*
X103612190Y-112458523D01*
X103612190Y-112339476D01*
X103636000Y-112291857D01*
X103659809Y-112268047D01*
X103707428Y-112244238D01*
X103755047Y-112244238D01*
X103826476Y-112268047D01*
X104112190Y-112553761D01*
X104112190Y-112244238D01*
M02*
