M48
; DRILL file {KiCad 5.1.6-c6e7f7d~87~ubuntu18.04.1} date Sun Aug 30 01:02:04 2020
; FORMAT={2:4/ absolute / inch / suppress leading zeros}
; #@! TF.CreationDate,2020-08-30T01:02:04+03:00
; #@! TF.GenerationSoftware,Kicad,Pcbnew,5.1.6-c6e7f7d~87~ubuntu18.04.1
; #@! TF.FileFunction,Plated,1,2,PTH
FMAT,2
INCH,TZ
T1C0.0157
%
G90
G05
T1
X40010Y-42430
X40892Y-43900
X40904Y-44606
X41300Y-49500
X41650Y-44094
X41850Y-47000
X42150Y-47000
X42726Y-45650
X42900Y-49600
X43500Y-45650
X43800Y-48700
X43990Y-46600
X45300Y-45050
X45910Y-48750
X46450Y-47250
X46586Y-47936
X47000Y-40719
X47231Y-47250
X47400Y-40800
X47650Y-40250
X48125Y-46875
X48586Y-47936
X48600Y-42626
X48690Y-45050
X49185Y-44015
X49450Y-42581
X49850Y-41500
X43780Y-40695
X43780Y-41719
X43780Y-42781
X44370Y-40695
X44370Y-42781
X45000Y-40695
X45000Y-42781
X45591Y-40695
X45591Y-41719
X45591Y-42781
T0
M30
