G04 #@! TF.GenerationSoftware,KiCad,Pcbnew,5.1.6-c6e7f7d~87~ubuntu18.04.1*
G04 #@! TF.CreationDate,2020-08-30T01:02:13+03:00*
G04 #@! TF.ProjectId,nikon_gps,6e696b6f-6e5f-4677-9073-2e6b69636164,B*
G04 #@! TF.SameCoordinates,Original*
G04 #@! TF.FileFunction,Soldermask,Top*
G04 #@! TF.FilePolarity,Negative*
%FSLAX46Y46*%
G04 Gerber Fmt 4.6, Leading zero omitted, Abs format (unit mm)*
G04 Created by KiCad (PCBNEW 5.1.6-c6e7f7d~87~ubuntu18.04.1) date 2020-08-30 01:02:13*
%MOMM*%
%LPD*%
G01*
G04 APERTURE LIST*
G04 #@! TA.AperFunction,Profile*
%ADD10C,0.100000*%
G04 #@! TD*
%ADD11R,1.950000X1.700000*%
%ADD12C,1.400000*%
%ADD13R,1.460000X1.050000*%
%ADD14C,2.600000*%
%ADD15O,3.900000X2.400000*%
%ADD16R,1.050000X1.460000*%
%ADD17R,1.700000X1.100000*%
%ADD18R,2.076000X1.264000*%
%ADD19C,2.178000*%
%ADD20R,1.822000X1.264000*%
%ADD21R,1.000000X1.100000*%
%ADD22R,0.850000X1.100000*%
%ADD23R,1.050000X0.800000*%
G04 APERTURE END LIST*
D10*
X116500000Y-125500000D02*
X116500000Y-128000000D01*
X111500000Y-125500000D02*
X111500000Y-128000000D01*
X114000000Y-123000000D02*
G75*
G03*
X111500000Y-125500000I0J-2500000D01*
G01*
X116500000Y-125500000D02*
G75*
G03*
X114000000Y-123000000I-2500000J0D01*
G01*
X100000000Y-128000000D02*
X111500000Y-128000000D01*
X105000000Y-100000000D02*
X128000000Y-100000000D01*
X128000000Y-123000000D02*
X128000000Y-100000000D01*
X116500000Y-128000000D02*
X123000000Y-128000000D01*
X100000000Y-128000000D02*
X100000000Y-105000000D01*
X100000000Y-105000000D02*
X102500000Y-105000000D01*
X105000000Y-102500000D02*
X105000000Y-100000000D01*
X105000000Y-102500000D02*
G75*
G02*
X102500000Y-105000000I-2500000J0D01*
G01*
X123000000Y-125500000D02*
G75*
G02*
X125500000Y-123000000I2500000J0D01*
G01*
X123000000Y-125500000D02*
X123000000Y-128000000D01*
X125500000Y-123000000D02*
X128000000Y-123000000D01*
G36*
G01*
X101116750Y-112799000D02*
X101829250Y-112799000D01*
G75*
G02*
X102148000Y-113117750I0J-318750D01*
G01*
X102148000Y-113755250D01*
G75*
G02*
X101829250Y-114074000I-318750J0D01*
G01*
X101116750Y-114074000D01*
G75*
G02*
X100798000Y-113755250I0J318750D01*
G01*
X100798000Y-113117750D01*
G75*
G02*
X101116750Y-112799000I318750J0D01*
G01*
G37*
G36*
G01*
X101116750Y-111224000D02*
X101829250Y-111224000D01*
G75*
G02*
X102148000Y-111542750I0J-318750D01*
G01*
X102148000Y-112180250D01*
G75*
G02*
X101829250Y-112499000I-318750J0D01*
G01*
X101116750Y-112499000D01*
G75*
G02*
X100798000Y-112180250I0J318750D01*
G01*
X100798000Y-111542750D01*
G75*
G02*
X101116750Y-111224000I318750J0D01*
G01*
G37*
D11*
X116924000Y-121757000D03*
X116924000Y-117257000D03*
X124884000Y-117257000D03*
X124884000Y-121757000D03*
G36*
G01*
X113894250Y-116113500D02*
X113181750Y-116113500D01*
G75*
G02*
X112863000Y-115794750I0J318750D01*
G01*
X112863000Y-115157250D01*
G75*
G02*
X113181750Y-114838500I318750J0D01*
G01*
X113894250Y-114838500D01*
G75*
G02*
X114213000Y-115157250I0J-318750D01*
G01*
X114213000Y-115794750D01*
G75*
G02*
X113894250Y-116113500I-318750J0D01*
G01*
G37*
G36*
G01*
X113894250Y-117688500D02*
X113181750Y-117688500D01*
G75*
G02*
X112863000Y-117369750I0J318750D01*
G01*
X112863000Y-116732250D01*
G75*
G02*
X113181750Y-116413500I318750J0D01*
G01*
X113894250Y-116413500D01*
G75*
G02*
X114213000Y-116732250I0J-318750D01*
G01*
X114213000Y-117369750D01*
G75*
G02*
X113894250Y-117688500I-318750J0D01*
G01*
G37*
G36*
G01*
X127229250Y-112410000D02*
X126516750Y-112410000D01*
G75*
G02*
X126198000Y-112091250I0J318750D01*
G01*
X126198000Y-111453750D01*
G75*
G02*
X126516750Y-111135000I318750J0D01*
G01*
X127229250Y-111135000D01*
G75*
G02*
X127548000Y-111453750I0J-318750D01*
G01*
X127548000Y-112091250D01*
G75*
G02*
X127229250Y-112410000I-318750J0D01*
G01*
G37*
G36*
G01*
X127229250Y-113985000D02*
X126516750Y-113985000D01*
G75*
G02*
X126198000Y-113666250I0J318750D01*
G01*
X126198000Y-113028750D01*
G75*
G02*
X126516750Y-112710000I318750J0D01*
G01*
X127229250Y-112710000D01*
G75*
G02*
X127548000Y-113028750I0J-318750D01*
G01*
X127548000Y-113666250D01*
G75*
G02*
X127229250Y-113985000I-318750J0D01*
G01*
G37*
G36*
G01*
X111178350Y-121916000D02*
X112290850Y-121916000D01*
G75*
G02*
X112634600Y-122259750I0J-343750D01*
G01*
X112634600Y-122947250D01*
G75*
G02*
X112290850Y-123291000I-343750J0D01*
G01*
X111178350Y-123291000D01*
G75*
G02*
X110834600Y-122947250I0J343750D01*
G01*
X110834600Y-122259750D01*
G75*
G02*
X111178350Y-121916000I343750J0D01*
G01*
G37*
G36*
G01*
X111178350Y-120041000D02*
X112290850Y-120041000D01*
G75*
G02*
X112634600Y-120384750I0J-343750D01*
G01*
X112634600Y-121072250D01*
G75*
G02*
X112290850Y-121416000I-343750J0D01*
G01*
X111178350Y-121416000D01*
G75*
G02*
X110834600Y-121072250I0J343750D01*
G01*
X110834600Y-120384750D01*
G75*
G02*
X111178350Y-120041000I343750J0D01*
G01*
G37*
D12*
X101028500Y-106489500D03*
G36*
G01*
X101983400Y-108558950D02*
X101983400Y-109271450D01*
G75*
G02*
X101664650Y-109590200I-318750J0D01*
G01*
X101027150Y-109590200D01*
G75*
G02*
X100708400Y-109271450I0J318750D01*
G01*
X100708400Y-108558950D01*
G75*
G02*
X101027150Y-108240200I318750J0D01*
G01*
X101664650Y-108240200D01*
G75*
G02*
X101983400Y-108558950I0J-318750D01*
G01*
G37*
G36*
G01*
X103558400Y-108558950D02*
X103558400Y-109271450D01*
G75*
G02*
X103239650Y-109590200I-318750J0D01*
G01*
X102602150Y-109590200D01*
G75*
G02*
X102283400Y-109271450I0J318750D01*
G01*
X102283400Y-108558950D01*
G75*
G02*
X102602150Y-108240200I318750J0D01*
G01*
X103239650Y-108240200D01*
G75*
G02*
X103558400Y-108558950I0J-318750D01*
G01*
G37*
G36*
G01*
X102997750Y-106530000D02*
X102285250Y-106530000D01*
G75*
G02*
X101966500Y-106211250I0J318750D01*
G01*
X101966500Y-105573750D01*
G75*
G02*
X102285250Y-105255000I318750J0D01*
G01*
X102997750Y-105255000D01*
G75*
G02*
X103316500Y-105573750I0J-318750D01*
G01*
X103316500Y-106211250D01*
G75*
G02*
X102997750Y-106530000I-318750J0D01*
G01*
G37*
G36*
G01*
X102997750Y-108105000D02*
X102285250Y-108105000D01*
G75*
G02*
X101966500Y-107786250I0J318750D01*
G01*
X101966500Y-107148750D01*
G75*
G02*
X102285250Y-106830000I318750J0D01*
G01*
X102997750Y-106830000D01*
G75*
G02*
X103316500Y-107148750I0J-318750D01*
G01*
X103316500Y-107786250D01*
G75*
G02*
X102997750Y-108105000I-318750J0D01*
G01*
G37*
D13*
X124544000Y-110170000D03*
X124544000Y-109220000D03*
X124544000Y-108270000D03*
X122344000Y-108270000D03*
X122344000Y-110170000D03*
G36*
G01*
X124710000Y-105966250D02*
X124710000Y-104853750D01*
G75*
G02*
X125053750Y-104510000I343750J0D01*
G01*
X125741250Y-104510000D01*
G75*
G02*
X126085000Y-104853750I0J-343750D01*
G01*
X126085000Y-105966250D01*
G75*
G02*
X125741250Y-106310000I-343750J0D01*
G01*
X125053750Y-106310000D01*
G75*
G02*
X124710000Y-105966250I0J343750D01*
G01*
G37*
G36*
G01*
X122835000Y-105966250D02*
X122835000Y-104853750D01*
G75*
G02*
X123178750Y-104510000I343750J0D01*
G01*
X123866250Y-104510000D01*
G75*
G02*
X124210000Y-104853750I0J-343750D01*
G01*
X124210000Y-105966250D01*
G75*
G02*
X123866250Y-106310000I-343750J0D01*
G01*
X123178750Y-106310000D01*
G75*
G02*
X122835000Y-105966250I0J343750D01*
G01*
G37*
G36*
G01*
X122461000Y-101962500D02*
X122461000Y-102507500D01*
G75*
G02*
X122213500Y-102755000I-247500J0D01*
G01*
X121718500Y-102755000D01*
G75*
G02*
X121471000Y-102507500I0J247500D01*
G01*
X121471000Y-101962500D01*
G75*
G02*
X121718500Y-101715000I247500J0D01*
G01*
X122213500Y-101715000D01*
G75*
G02*
X122461000Y-101962500I0J-247500D01*
G01*
G37*
G36*
G01*
X123431000Y-101962500D02*
X123431000Y-102507500D01*
G75*
G02*
X123183500Y-102755000I-247500J0D01*
G01*
X122688500Y-102755000D01*
G75*
G02*
X122441000Y-102507500I0J247500D01*
G01*
X122441000Y-101962500D01*
G75*
G02*
X122688500Y-101715000I247500J0D01*
G01*
X123183500Y-101715000D01*
G75*
G02*
X123431000Y-101962500I0J-247500D01*
G01*
G37*
D14*
X125750000Y-102250000D03*
G36*
G01*
X121154000Y-114983250D02*
X121154000Y-113870750D01*
G75*
G02*
X121497750Y-113527000I343750J0D01*
G01*
X122185250Y-113527000D01*
G75*
G02*
X122529000Y-113870750I0J-343750D01*
G01*
X122529000Y-114983250D01*
G75*
G02*
X122185250Y-115327000I-343750J0D01*
G01*
X121497750Y-115327000D01*
G75*
G02*
X121154000Y-114983250I0J343750D01*
G01*
G37*
G36*
G01*
X119279000Y-114983250D02*
X119279000Y-113870750D01*
G75*
G02*
X119622750Y-113527000I343750J0D01*
G01*
X120310250Y-113527000D01*
G75*
G02*
X120654000Y-113870750I0J-343750D01*
G01*
X120654000Y-114983250D01*
G75*
G02*
X120310250Y-115327000I-343750J0D01*
G01*
X119622750Y-115327000D01*
G75*
G02*
X119279000Y-114983250I0J343750D01*
G01*
G37*
G36*
G01*
X124310000Y-112991250D02*
X124310000Y-113703750D01*
G75*
G02*
X123991250Y-114022500I-318750J0D01*
G01*
X123353750Y-114022500D01*
G75*
G02*
X123035000Y-113703750I0J318750D01*
G01*
X123035000Y-112991250D01*
G75*
G02*
X123353750Y-112672500I318750J0D01*
G01*
X123991250Y-112672500D01*
G75*
G02*
X124310000Y-112991250I0J-318750D01*
G01*
G37*
G36*
G01*
X125885000Y-112991250D02*
X125885000Y-113703750D01*
G75*
G02*
X125566250Y-114022500I-318750J0D01*
G01*
X124928750Y-114022500D01*
G75*
G02*
X124610000Y-113703750I0J318750D01*
G01*
X124610000Y-112991250D01*
G75*
G02*
X124928750Y-112672500I318750J0D01*
G01*
X125566250Y-112672500D01*
G75*
G02*
X125885000Y-112991250I0J-318750D01*
G01*
G37*
G36*
G01*
X122024000Y-100545250D02*
X122024000Y-101257750D01*
G75*
G02*
X121705250Y-101576500I-318750J0D01*
G01*
X121067750Y-101576500D01*
G75*
G02*
X120749000Y-101257750I0J318750D01*
G01*
X120749000Y-100545250D01*
G75*
G02*
X121067750Y-100226500I318750J0D01*
G01*
X121705250Y-100226500D01*
G75*
G02*
X122024000Y-100545250I0J-318750D01*
G01*
G37*
G36*
G01*
X123599000Y-100545250D02*
X123599000Y-101257750D01*
G75*
G02*
X123280250Y-101576500I-318750J0D01*
G01*
X122642750Y-101576500D01*
G75*
G02*
X122324000Y-101257750I0J318750D01*
G01*
X122324000Y-100545250D01*
G75*
G02*
X122642750Y-100226500I318750J0D01*
G01*
X123280250Y-100226500D01*
G75*
G02*
X123599000Y-100545250I0J-318750D01*
G01*
G37*
G36*
G01*
X106782250Y-124208500D02*
X106069750Y-124208500D01*
G75*
G02*
X105751000Y-123889750I0J318750D01*
G01*
X105751000Y-123252250D01*
G75*
G02*
X106069750Y-122933500I318750J0D01*
G01*
X106782250Y-122933500D01*
G75*
G02*
X107101000Y-123252250I0J-318750D01*
G01*
X107101000Y-123889750D01*
G75*
G02*
X106782250Y-124208500I-318750J0D01*
G01*
G37*
G36*
G01*
X106782250Y-125783500D02*
X106069750Y-125783500D01*
G75*
G02*
X105751000Y-125464750I0J318750D01*
G01*
X105751000Y-124827250D01*
G75*
G02*
X106069750Y-124508500I318750J0D01*
G01*
X106782250Y-124508500D01*
G75*
G02*
X107101000Y-124827250I0J-318750D01*
G01*
X107101000Y-125464750D01*
G75*
G02*
X106782250Y-125783500I-318750J0D01*
G01*
G37*
G36*
G01*
X109216000Y-121460250D02*
X109216000Y-120347750D01*
G75*
G02*
X109559750Y-120004000I343750J0D01*
G01*
X110247250Y-120004000D01*
G75*
G02*
X110591000Y-120347750I0J-343750D01*
G01*
X110591000Y-121460250D01*
G75*
G02*
X110247250Y-121804000I-343750J0D01*
G01*
X109559750Y-121804000D01*
G75*
G02*
X109216000Y-121460250I0J343750D01*
G01*
G37*
G36*
G01*
X107341000Y-121460250D02*
X107341000Y-120347750D01*
G75*
G02*
X107684750Y-120004000I343750J0D01*
G01*
X108372250Y-120004000D01*
G75*
G02*
X108716000Y-120347750I0J-343750D01*
G01*
X108716000Y-121460250D01*
G75*
G02*
X108372250Y-121804000I-343750J0D01*
G01*
X107684750Y-121804000D01*
G75*
G02*
X107341000Y-121460250I0J343750D01*
G01*
G37*
G36*
G01*
X120654000Y-124030750D02*
X120654000Y-125143250D01*
G75*
G02*
X120310250Y-125487000I-343750J0D01*
G01*
X119622750Y-125487000D01*
G75*
G02*
X119279000Y-125143250I0J343750D01*
G01*
X119279000Y-124030750D01*
G75*
G02*
X119622750Y-123687000I343750J0D01*
G01*
X120310250Y-123687000D01*
G75*
G02*
X120654000Y-124030750I0J-343750D01*
G01*
G37*
G36*
G01*
X122529000Y-124030750D02*
X122529000Y-125143250D01*
G75*
G02*
X122185250Y-125487000I-343750J0D01*
G01*
X121497750Y-125487000D01*
G75*
G02*
X121154000Y-125143250I0J343750D01*
G01*
X121154000Y-124030750D01*
G75*
G02*
X121497750Y-123687000I343750J0D01*
G01*
X122185250Y-123687000D01*
G75*
G02*
X122529000Y-124030750I0J-343750D01*
G01*
G37*
D15*
X103886000Y-121920000D03*
X103886000Y-119380000D03*
X103886000Y-116840000D03*
G36*
G01*
X127429250Y-108843000D02*
X126316750Y-108843000D01*
G75*
G02*
X125973000Y-108499250I0J343750D01*
G01*
X125973000Y-107811750D01*
G75*
G02*
X126316750Y-107468000I343750J0D01*
G01*
X127429250Y-107468000D01*
G75*
G02*
X127773000Y-107811750I0J-343750D01*
G01*
X127773000Y-108499250D01*
G75*
G02*
X127429250Y-108843000I-343750J0D01*
G01*
G37*
G36*
G01*
X127429250Y-110718000D02*
X126316750Y-110718000D01*
G75*
G02*
X125973000Y-110374250I0J343750D01*
G01*
X125973000Y-109686750D01*
G75*
G02*
X126316750Y-109343000I343750J0D01*
G01*
X127429250Y-109343000D01*
G75*
G02*
X127773000Y-109686750I0J-343750D01*
G01*
X127773000Y-110374250D01*
G75*
G02*
X127429250Y-110718000I-343750J0D01*
G01*
G37*
D14*
X102250000Y-125750000D03*
D16*
X110424000Y-114851000D03*
X109474000Y-114851000D03*
X108524000Y-114851000D03*
X108524000Y-117051000D03*
X110424000Y-117051000D03*
X108016000Y-124925000D03*
X108966000Y-124925000D03*
X109916000Y-124925000D03*
X109916000Y-122725000D03*
X108016000Y-122725000D03*
G36*
G01*
X109216000Y-127429250D02*
X109216000Y-126316750D01*
G75*
G02*
X109559750Y-125973000I343750J0D01*
G01*
X110247250Y-125973000D01*
G75*
G02*
X110591000Y-126316750I0J-343750D01*
G01*
X110591000Y-127429250D01*
G75*
G02*
X110247250Y-127773000I-343750J0D01*
G01*
X109559750Y-127773000D01*
G75*
G02*
X109216000Y-127429250I0J343750D01*
G01*
G37*
G36*
G01*
X107341000Y-127429250D02*
X107341000Y-126316750D01*
G75*
G02*
X107684750Y-125973000I343750J0D01*
G01*
X108372250Y-125973000D01*
G75*
G02*
X108716000Y-126316750I0J-343750D01*
G01*
X108716000Y-127429250D01*
G75*
G02*
X108372250Y-127773000I-343750J0D01*
G01*
X107684750Y-127773000D01*
G75*
G02*
X107341000Y-127429250I0J343750D01*
G01*
G37*
G36*
G01*
X113080150Y-121612800D02*
X113792650Y-121612800D01*
G75*
G02*
X114111400Y-121931550I0J-318750D01*
G01*
X114111400Y-122569050D01*
G75*
G02*
X113792650Y-122887800I-318750J0D01*
G01*
X113080150Y-122887800D01*
G75*
G02*
X112761400Y-122569050I0J318750D01*
G01*
X112761400Y-121931550D01*
G75*
G02*
X113080150Y-121612800I318750J0D01*
G01*
G37*
G36*
G01*
X113080150Y-120037800D02*
X113792650Y-120037800D01*
G75*
G02*
X114111400Y-120356550I0J-318750D01*
G01*
X114111400Y-120994050D01*
G75*
G02*
X113792650Y-121312800I-318750J0D01*
G01*
X113080150Y-121312800D01*
G75*
G02*
X112761400Y-120994050I0J318750D01*
G01*
X112761400Y-120356550D01*
G75*
G02*
X113080150Y-120037800I318750J0D01*
G01*
G37*
G36*
G01*
X123281500Y-112154350D02*
X123281500Y-111441850D01*
G75*
G02*
X123600250Y-111123100I318750J0D01*
G01*
X124237750Y-111123100D01*
G75*
G02*
X124556500Y-111441850I0J-318750D01*
G01*
X124556500Y-112154350D01*
G75*
G02*
X124237750Y-112473100I-318750J0D01*
G01*
X123600250Y-112473100D01*
G75*
G02*
X123281500Y-112154350I0J318750D01*
G01*
G37*
G36*
G01*
X121706500Y-112154350D02*
X121706500Y-111441850D01*
G75*
G02*
X122025250Y-111123100I318750J0D01*
G01*
X122662750Y-111123100D01*
G75*
G02*
X122981500Y-111441850I0J-318750D01*
G01*
X122981500Y-112154350D01*
G75*
G02*
X122662750Y-112473100I-318750J0D01*
G01*
X122025250Y-112473100D01*
G75*
G02*
X121706500Y-112154350I0J318750D01*
G01*
G37*
D12*
X106426000Y-126873000D03*
X115011200Y-120726100D03*
X104902000Y-126873000D03*
G36*
G01*
X106577750Y-116456500D02*
X107290250Y-116456500D01*
G75*
G02*
X107609000Y-116775250I0J-318750D01*
G01*
X107609000Y-117412750D01*
G75*
G02*
X107290250Y-117731500I-318750J0D01*
G01*
X106577750Y-117731500D01*
G75*
G02*
X106259000Y-117412750I0J318750D01*
G01*
X106259000Y-116775250D01*
G75*
G02*
X106577750Y-116456500I318750J0D01*
G01*
G37*
G36*
G01*
X106577750Y-114881500D02*
X107290250Y-114881500D01*
G75*
G02*
X107609000Y-115200250I0J-318750D01*
G01*
X107609000Y-115837750D01*
G75*
G02*
X107290250Y-116156500I-318750J0D01*
G01*
X106577750Y-116156500D01*
G75*
G02*
X106259000Y-115837750I0J318750D01*
G01*
X106259000Y-115200250D01*
G75*
G02*
X106577750Y-114881500I318750J0D01*
G01*
G37*
G36*
G01*
X121204000Y-126721250D02*
X121204000Y-126008750D01*
G75*
G02*
X121522750Y-125690000I318750J0D01*
G01*
X122160250Y-125690000D01*
G75*
G02*
X122479000Y-126008750I0J-318750D01*
G01*
X122479000Y-126721250D01*
G75*
G02*
X122160250Y-127040000I-318750J0D01*
G01*
X121522750Y-127040000D01*
G75*
G02*
X121204000Y-126721250I0J318750D01*
G01*
G37*
G36*
G01*
X119629000Y-126721250D02*
X119629000Y-126008750D01*
G75*
G02*
X119947750Y-125690000I318750J0D01*
G01*
X120585250Y-125690000D01*
G75*
G02*
X120904000Y-126008750I0J-318750D01*
G01*
X120904000Y-126721250D01*
G75*
G02*
X120585250Y-127040000I-318750J0D01*
G01*
X119947750Y-127040000D01*
G75*
G02*
X119629000Y-126721250I0J318750D01*
G01*
G37*
G36*
G01*
X111657750Y-116413500D02*
X112370250Y-116413500D01*
G75*
G02*
X112689000Y-116732250I0J-318750D01*
G01*
X112689000Y-117369750D01*
G75*
G02*
X112370250Y-117688500I-318750J0D01*
G01*
X111657750Y-117688500D01*
G75*
G02*
X111339000Y-117369750I0J318750D01*
G01*
X111339000Y-116732250D01*
G75*
G02*
X111657750Y-116413500I318750J0D01*
G01*
G37*
G36*
G01*
X111657750Y-114838500D02*
X112370250Y-114838500D01*
G75*
G02*
X112689000Y-115157250I0J-318750D01*
G01*
X112689000Y-115794750D01*
G75*
G02*
X112370250Y-116113500I-318750J0D01*
G01*
X111657750Y-116113500D01*
G75*
G02*
X111339000Y-115794750I0J318750D01*
G01*
X111339000Y-115157250D01*
G75*
G02*
X111657750Y-114838500I318750J0D01*
G01*
G37*
D17*
X121793000Y-105632000D03*
X121793000Y-103632000D03*
G36*
G01*
X104341000Y-110889500D02*
X104341000Y-110344500D01*
G75*
G02*
X104588500Y-110097000I247500J0D01*
G01*
X105083500Y-110097000D01*
G75*
G02*
X105331000Y-110344500I0J-247500D01*
G01*
X105331000Y-110889500D01*
G75*
G02*
X105083500Y-111137000I-247500J0D01*
G01*
X104588500Y-111137000D01*
G75*
G02*
X104341000Y-110889500I0J247500D01*
G01*
G37*
G36*
G01*
X103371000Y-110889500D02*
X103371000Y-110344500D01*
G75*
G02*
X103618500Y-110097000I247500J0D01*
G01*
X104113500Y-110097000D01*
G75*
G02*
X104361000Y-110344500I0J-247500D01*
G01*
X104361000Y-110889500D01*
G75*
G02*
X104113500Y-111137000I-247500J0D01*
G01*
X103618500Y-111137000D01*
G75*
G02*
X103371000Y-110889500I0J247500D01*
G01*
G37*
D12*
X127127000Y-106553000D03*
D18*
X117816500Y-108505000D03*
D19*
X113500000Y-105275000D03*
D20*
X117989000Y-107235000D03*
X117989000Y-105965000D03*
X117989000Y-104695000D03*
X117989000Y-103425000D03*
X109011000Y-108505000D03*
X109011000Y-107235000D03*
X109011000Y-105965000D03*
X109011000Y-104695000D03*
X109011000Y-103425000D03*
D21*
X100646000Y-110363000D03*
X102046000Y-110363000D03*
G36*
G01*
X105192250Y-108282500D02*
X104479750Y-108282500D01*
G75*
G02*
X104161000Y-107963750I0J318750D01*
G01*
X104161000Y-107326250D01*
G75*
G02*
X104479750Y-107007500I318750J0D01*
G01*
X105192250Y-107007500D01*
G75*
G02*
X105511000Y-107326250I0J-318750D01*
G01*
X105511000Y-107963750D01*
G75*
G02*
X105192250Y-108282500I-318750J0D01*
G01*
G37*
G36*
G01*
X105192250Y-109857500D02*
X104479750Y-109857500D01*
G75*
G02*
X104161000Y-109538750I0J318750D01*
G01*
X104161000Y-108901250D01*
G75*
G02*
X104479750Y-108582500I318750J0D01*
G01*
X105192250Y-108582500D01*
G75*
G02*
X105511000Y-108901250I0J-318750D01*
G01*
X105511000Y-109538750D01*
G75*
G02*
X105192250Y-109857500I-318750J0D01*
G01*
G37*
G36*
G01*
X117866000Y-123552500D02*
X117866000Y-124097500D01*
G75*
G02*
X117618500Y-124345000I-247500J0D01*
G01*
X117123500Y-124345000D01*
G75*
G02*
X116876000Y-124097500I0J247500D01*
G01*
X116876000Y-123552500D01*
G75*
G02*
X117123500Y-123305000I247500J0D01*
G01*
X117618500Y-123305000D01*
G75*
G02*
X117866000Y-123552500I0J-247500D01*
G01*
G37*
G36*
G01*
X118836000Y-123552500D02*
X118836000Y-124097500D01*
G75*
G02*
X118588500Y-124345000I-247500J0D01*
G01*
X118093500Y-124345000D01*
G75*
G02*
X117846000Y-124097500I0J247500D01*
G01*
X117846000Y-123552500D01*
G75*
G02*
X118093500Y-123305000I247500J0D01*
G01*
X118588500Y-123305000D01*
G75*
G02*
X118836000Y-123552500I0J-247500D01*
G01*
G37*
G36*
G01*
X114705750Y-116413500D02*
X115418250Y-116413500D01*
G75*
G02*
X115737000Y-116732250I0J-318750D01*
G01*
X115737000Y-117369750D01*
G75*
G02*
X115418250Y-117688500I-318750J0D01*
G01*
X114705750Y-117688500D01*
G75*
G02*
X114387000Y-117369750I0J318750D01*
G01*
X114387000Y-116732250D01*
G75*
G02*
X114705750Y-116413500I318750J0D01*
G01*
G37*
G36*
G01*
X114705750Y-114838500D02*
X115418250Y-114838500D01*
G75*
G02*
X115737000Y-115157250I0J-318750D01*
G01*
X115737000Y-115794750D01*
G75*
G02*
X115418250Y-116113500I-318750J0D01*
G01*
X114705750Y-116113500D01*
G75*
G02*
X114387000Y-115794750I0J318750D01*
G01*
X114387000Y-115157250D01*
G75*
G02*
X114705750Y-114838500I318750J0D01*
G01*
G37*
D22*
X117856000Y-127111000D03*
X117206000Y-125111000D03*
X118506000Y-125111000D03*
D23*
X104836000Y-111999000D03*
X104836000Y-113299000D03*
X102936000Y-112649000D03*
X102936000Y-113299000D03*
X102936000Y-111999000D03*
M02*
