G04 #@! TF.GenerationSoftware,KiCad,Pcbnew,5.1.6-c6e7f7d~87~ubuntu18.04.1*
G04 #@! TF.CreationDate,2020-08-30T01:02:13+03:00*
G04 #@! TF.ProjectId,nikon_gps,6e696b6f-6e5f-4677-9073-2e6b69636164,B*
G04 #@! TF.SameCoordinates,Original*
G04 #@! TF.FileFunction,Legend,Bot*
G04 #@! TF.FilePolarity,Positive*
%FSLAX46Y46*%
G04 Gerber Fmt 4.6, Leading zero omitted, Abs format (unit mm)*
G04 Created by KiCad (PCBNEW 5.1.6-c6e7f7d~87~ubuntu18.04.1) date 2020-08-30 01:02:13*
%MOMM*%
%LPD*%
G01*
G04 APERTURE LIST*
%ADD10C,0.200000*%
G04 #@! TA.AperFunction,Profile*
%ADD11C,0.100000*%
G04 #@! TD*
G04 APERTURE END LIST*
D10*
X120903142Y-110537000D02*
X120998380Y-110489380D01*
X121141238Y-110489380D01*
X121284095Y-110537000D01*
X121379333Y-110632238D01*
X121426952Y-110727476D01*
X121474571Y-110917952D01*
X121474571Y-111060809D01*
X121426952Y-111251285D01*
X121379333Y-111346523D01*
X121284095Y-111441761D01*
X121141238Y-111489380D01*
X121046000Y-111489380D01*
X120903142Y-111441761D01*
X120855523Y-111394142D01*
X120855523Y-111060809D01*
X121046000Y-111060809D01*
X120426952Y-111489380D02*
X120426952Y-110489380D01*
X120046000Y-110489380D01*
X119950761Y-110537000D01*
X119903142Y-110584619D01*
X119855523Y-110679857D01*
X119855523Y-110822714D01*
X119903142Y-110917952D01*
X119950761Y-110965571D01*
X120046000Y-111013190D01*
X120426952Y-111013190D01*
X119474571Y-111441761D02*
X119331714Y-111489380D01*
X119093619Y-111489380D01*
X118998380Y-111441761D01*
X118950761Y-111394142D01*
X118903142Y-111298904D01*
X118903142Y-111203666D01*
X118950761Y-111108428D01*
X118998380Y-111060809D01*
X119093619Y-111013190D01*
X119284095Y-110965571D01*
X119379333Y-110917952D01*
X119426952Y-110870333D01*
X119474571Y-110775095D01*
X119474571Y-110679857D01*
X119426952Y-110584619D01*
X119379333Y-110537000D01*
X119284095Y-110489380D01*
X119046000Y-110489380D01*
X118903142Y-110537000D01*
X117855523Y-110822714D02*
X117474571Y-110822714D01*
X117712666Y-111489380D02*
X117712666Y-110632238D01*
X117665047Y-110537000D01*
X117569809Y-110489380D01*
X117474571Y-110489380D01*
X116998380Y-111489380D02*
X117093619Y-111441761D01*
X117141238Y-111394142D01*
X117188857Y-111298904D01*
X117188857Y-111013190D01*
X117141238Y-110917952D01*
X117093619Y-110870333D01*
X116998380Y-110822714D01*
X116855523Y-110822714D01*
X116760285Y-110870333D01*
X116712666Y-110917952D01*
X116665047Y-111013190D01*
X116665047Y-111298904D01*
X116712666Y-111394142D01*
X116760285Y-111441761D01*
X116855523Y-111489380D01*
X116998380Y-111489380D01*
X116236476Y-111489380D02*
X116236476Y-110822714D01*
X116236476Y-111013190D02*
X116188857Y-110917952D01*
X116141238Y-110870333D01*
X116046000Y-110822714D01*
X115950761Y-110822714D01*
X114855523Y-111489380D02*
X114855523Y-110489380D01*
X114284095Y-111489380D01*
X114284095Y-110489380D01*
X113807904Y-111489380D02*
X113807904Y-110822714D01*
X113807904Y-110489380D02*
X113855523Y-110537000D01*
X113807904Y-110584619D01*
X113760285Y-110537000D01*
X113807904Y-110489380D01*
X113807904Y-110584619D01*
X113331714Y-111489380D02*
X113331714Y-110489380D01*
X113236476Y-111108428D02*
X112950761Y-111489380D01*
X112950761Y-110822714D02*
X113331714Y-111203666D01*
X112379333Y-111489380D02*
X112474571Y-111441761D01*
X112522190Y-111394142D01*
X112569809Y-111298904D01*
X112569809Y-111013190D01*
X112522190Y-110917952D01*
X112474571Y-110870333D01*
X112379333Y-110822714D01*
X112236476Y-110822714D01*
X112141238Y-110870333D01*
X112093619Y-110917952D01*
X112046000Y-111013190D01*
X112046000Y-111298904D01*
X112093619Y-111394142D01*
X112141238Y-111441761D01*
X112236476Y-111489380D01*
X112379333Y-111489380D01*
X111617428Y-110822714D02*
X111617428Y-111489380D01*
X111617428Y-110917952D02*
X111569809Y-110870333D01*
X111474571Y-110822714D01*
X111331714Y-110822714D01*
X111236476Y-110870333D01*
X111188857Y-110965571D01*
X111188857Y-111489380D01*
X109950761Y-111489380D02*
X109950761Y-110489380D01*
X109712666Y-110489380D01*
X109569809Y-110537000D01*
X109474571Y-110632238D01*
X109426952Y-110727476D01*
X109379333Y-110917952D01*
X109379333Y-111060809D01*
X109426952Y-111251285D01*
X109474571Y-111346523D01*
X109569809Y-111441761D01*
X109712666Y-111489380D01*
X109950761Y-111489380D01*
X108998380Y-111441761D02*
X108855523Y-111489380D01*
X108617428Y-111489380D01*
X108522190Y-111441761D01*
X108474571Y-111394142D01*
X108426952Y-111298904D01*
X108426952Y-111203666D01*
X108474571Y-111108428D01*
X108522190Y-111060809D01*
X108617428Y-111013190D01*
X108807904Y-110965571D01*
X108903142Y-110917952D01*
X108950761Y-110870333D01*
X108998380Y-110775095D01*
X108998380Y-110679857D01*
X108950761Y-110584619D01*
X108903142Y-110537000D01*
X108807904Y-110489380D01*
X108569809Y-110489380D01*
X108426952Y-110537000D01*
X107522190Y-111489380D02*
X107998380Y-111489380D01*
X107998380Y-110489380D01*
X106617428Y-111489380D02*
X106950761Y-111013190D01*
X107188857Y-111489380D02*
X107188857Y-110489380D01*
X106807904Y-110489380D01*
X106712666Y-110537000D01*
X106665047Y-110584619D01*
X106617428Y-110679857D01*
X106617428Y-110822714D01*
X106665047Y-110917952D01*
X106712666Y-110965571D01*
X106807904Y-111013190D01*
X107188857Y-111013190D01*
X115665047Y-113189380D02*
X115998380Y-112713190D01*
X116236476Y-113189380D02*
X116236476Y-112189380D01*
X115855523Y-112189380D01*
X115760285Y-112237000D01*
X115712666Y-112284619D01*
X115665047Y-112379857D01*
X115665047Y-112522714D01*
X115712666Y-112617952D01*
X115760285Y-112665571D01*
X115855523Y-112713190D01*
X116236476Y-112713190D01*
X114855523Y-113141761D02*
X114950761Y-113189380D01*
X115141238Y-113189380D01*
X115236476Y-113141761D01*
X115284095Y-113046523D01*
X115284095Y-112665571D01*
X115236476Y-112570333D01*
X115141238Y-112522714D01*
X114950761Y-112522714D01*
X114855523Y-112570333D01*
X114807904Y-112665571D01*
X114807904Y-112760809D01*
X115284095Y-112856047D01*
X114474571Y-112522714D02*
X114236476Y-113189380D01*
X113998380Y-112522714D01*
X113617428Y-113094142D02*
X113569809Y-113141761D01*
X113617428Y-113189380D01*
X113665047Y-113141761D01*
X113617428Y-113094142D01*
X113617428Y-113189380D01*
X112046000Y-112665571D02*
X111903142Y-112713190D01*
X111855523Y-112760809D01*
X111807904Y-112856047D01*
X111807904Y-112998904D01*
X111855523Y-113094142D01*
X111903142Y-113141761D01*
X111998380Y-113189380D01*
X112379333Y-113189380D01*
X112379333Y-112189380D01*
X112046000Y-112189380D01*
X111950761Y-112237000D01*
X111903142Y-112284619D01*
X111855523Y-112379857D01*
X111855523Y-112475095D01*
X111903142Y-112570333D01*
X111950761Y-112617952D01*
X112046000Y-112665571D01*
X112379333Y-112665571D01*
X118252333Y-117204380D02*
X118252333Y-116204380D01*
X118014238Y-116204380D01*
X117871380Y-116252000D01*
X117776142Y-116347238D01*
X117728523Y-116442476D01*
X117680904Y-116632952D01*
X117680904Y-116775809D01*
X117728523Y-116966285D01*
X117776142Y-117061523D01*
X117871380Y-117156761D01*
X118014238Y-117204380D01*
X118252333Y-117204380D01*
X116871380Y-117156761D02*
X116966619Y-117204380D01*
X117157095Y-117204380D01*
X117252333Y-117156761D01*
X117299952Y-117061523D01*
X117299952Y-116680571D01*
X117252333Y-116585333D01*
X117157095Y-116537714D01*
X116966619Y-116537714D01*
X116871380Y-116585333D01*
X116823761Y-116680571D01*
X116823761Y-116775809D01*
X117299952Y-116871047D01*
X116442809Y-117156761D02*
X116347571Y-117204380D01*
X116157095Y-117204380D01*
X116061857Y-117156761D01*
X116014238Y-117061523D01*
X116014238Y-117013904D01*
X116061857Y-116918666D01*
X116157095Y-116871047D01*
X116299952Y-116871047D01*
X116395190Y-116823428D01*
X116442809Y-116728190D01*
X116442809Y-116680571D01*
X116395190Y-116585333D01*
X116299952Y-116537714D01*
X116157095Y-116537714D01*
X116061857Y-116585333D01*
X115585666Y-117204380D02*
X115585666Y-116537714D01*
X115585666Y-116204380D02*
X115633285Y-116252000D01*
X115585666Y-116299619D01*
X115538047Y-116252000D01*
X115585666Y-116204380D01*
X115585666Y-116299619D01*
X114680904Y-116537714D02*
X114680904Y-117347238D01*
X114728523Y-117442476D01*
X114776142Y-117490095D01*
X114871380Y-117537714D01*
X115014238Y-117537714D01*
X115109476Y-117490095D01*
X114680904Y-117156761D02*
X114776142Y-117204380D01*
X114966619Y-117204380D01*
X115061857Y-117156761D01*
X115109476Y-117109142D01*
X115157095Y-117013904D01*
X115157095Y-116728190D01*
X115109476Y-116632952D01*
X115061857Y-116585333D01*
X114966619Y-116537714D01*
X114776142Y-116537714D01*
X114680904Y-116585333D01*
X114204714Y-116537714D02*
X114204714Y-117204380D01*
X114204714Y-116632952D02*
X114157095Y-116585333D01*
X114061857Y-116537714D01*
X113919000Y-116537714D01*
X113823761Y-116585333D01*
X113776142Y-116680571D01*
X113776142Y-117204380D01*
X112919000Y-117156761D02*
X113014238Y-117204380D01*
X113204714Y-117204380D01*
X113299952Y-117156761D01*
X113347571Y-117061523D01*
X113347571Y-116680571D01*
X113299952Y-116585333D01*
X113204714Y-116537714D01*
X113014238Y-116537714D01*
X112919000Y-116585333D01*
X112871380Y-116680571D01*
X112871380Y-116775809D01*
X113347571Y-116871047D01*
X112014238Y-117204380D02*
X112014238Y-116204380D01*
X112014238Y-117156761D02*
X112109476Y-117204380D01*
X112299952Y-117204380D01*
X112395190Y-117156761D01*
X112442809Y-117109142D01*
X112490428Y-117013904D01*
X112490428Y-116728190D01*
X112442809Y-116632952D01*
X112395190Y-116585333D01*
X112299952Y-116537714D01*
X112109476Y-116537714D01*
X112014238Y-116585333D01*
X110776142Y-117204380D02*
X110776142Y-116204380D01*
X110776142Y-116585333D02*
X110680904Y-116537714D01*
X110490428Y-116537714D01*
X110395190Y-116585333D01*
X110347571Y-116632952D01*
X110299952Y-116728190D01*
X110299952Y-117013904D01*
X110347571Y-117109142D01*
X110395190Y-117156761D01*
X110490428Y-117204380D01*
X110680904Y-117204380D01*
X110776142Y-117156761D01*
X109966619Y-116537714D02*
X109728523Y-117204380D01*
X109490428Y-116537714D02*
X109728523Y-117204380D01*
X109823761Y-117442476D01*
X109871380Y-117490095D01*
X109966619Y-117537714D01*
X124252333Y-118904380D02*
X124252333Y-117904380D01*
X124014238Y-117904380D01*
X123871380Y-117952000D01*
X123776142Y-118047238D01*
X123728523Y-118142476D01*
X123680904Y-118332952D01*
X123680904Y-118475809D01*
X123728523Y-118666285D01*
X123776142Y-118761523D01*
X123871380Y-118856761D01*
X124014238Y-118904380D01*
X124252333Y-118904380D01*
X123252333Y-118904380D02*
X123252333Y-118237714D01*
X123252333Y-118332952D02*
X123204714Y-118285333D01*
X123109476Y-118237714D01*
X122966619Y-118237714D01*
X122871380Y-118285333D01*
X122823761Y-118380571D01*
X122823761Y-118904380D01*
X122823761Y-118380571D02*
X122776142Y-118285333D01*
X122680904Y-118237714D01*
X122538047Y-118237714D01*
X122442809Y-118285333D01*
X122395190Y-118380571D01*
X122395190Y-118904380D01*
X121919000Y-118904380D02*
X121919000Y-118237714D01*
X121919000Y-117904380D02*
X121966619Y-117952000D01*
X121919000Y-117999619D01*
X121871380Y-117952000D01*
X121919000Y-117904380D01*
X121919000Y-117999619D01*
X121585666Y-118237714D02*
X121204714Y-118237714D01*
X121442809Y-117904380D02*
X121442809Y-118761523D01*
X121395190Y-118856761D01*
X121299952Y-118904380D01*
X121204714Y-118904380D01*
X120871380Y-118904380D02*
X120871380Y-118237714D01*
X120871380Y-118428190D02*
X120823761Y-118332952D01*
X120776142Y-118285333D01*
X120680904Y-118237714D01*
X120585666Y-118237714D01*
X120347571Y-118237714D02*
X120109476Y-118904380D01*
X119871380Y-118237714D02*
X120109476Y-118904380D01*
X120204714Y-119142476D01*
X120252333Y-119190095D01*
X120347571Y-119237714D01*
X118728523Y-118904380D02*
X118728523Y-117904380D01*
X118395190Y-118618666D01*
X118061857Y-117904380D01*
X118061857Y-118904380D01*
X117204714Y-118856761D02*
X117299952Y-118904380D01*
X117490428Y-118904380D01*
X117585666Y-118856761D01*
X117633285Y-118761523D01*
X117633285Y-118380571D01*
X117585666Y-118285333D01*
X117490428Y-118237714D01*
X117299952Y-118237714D01*
X117204714Y-118285333D01*
X117157095Y-118380571D01*
X117157095Y-118475809D01*
X117633285Y-118571047D01*
X116585666Y-118904380D02*
X116680904Y-118856761D01*
X116728523Y-118761523D01*
X116728523Y-117904380D01*
X116204714Y-118237714D02*
X116204714Y-118904380D01*
X116204714Y-118332952D02*
X116157095Y-118285333D01*
X116061857Y-118237714D01*
X115919000Y-118237714D01*
X115823761Y-118285333D01*
X115776142Y-118380571D01*
X115776142Y-118904380D01*
X115299952Y-118904380D02*
X115299952Y-118237714D01*
X115299952Y-117904380D02*
X115347571Y-117952000D01*
X115299952Y-117999619D01*
X115252333Y-117952000D01*
X115299952Y-117904380D01*
X115299952Y-117999619D01*
X114395190Y-118856761D02*
X114490428Y-118904380D01*
X114680904Y-118904380D01*
X114776142Y-118856761D01*
X114823761Y-118809142D01*
X114871380Y-118713904D01*
X114871380Y-118428190D01*
X114823761Y-118332952D01*
X114776142Y-118285333D01*
X114680904Y-118237714D01*
X114490428Y-118237714D01*
X114395190Y-118285333D01*
X113966619Y-118904380D02*
X113966619Y-117904380D01*
X113538047Y-118904380D02*
X113538047Y-118380571D01*
X113585666Y-118285333D01*
X113680904Y-118237714D01*
X113823761Y-118237714D01*
X113919000Y-118285333D01*
X113966619Y-118332952D01*
X112633285Y-118904380D02*
X112633285Y-118380571D01*
X112680904Y-118285333D01*
X112776142Y-118237714D01*
X112966619Y-118237714D01*
X113061857Y-118285333D01*
X112633285Y-118856761D02*
X112728523Y-118904380D01*
X112966619Y-118904380D01*
X113061857Y-118856761D01*
X113109476Y-118761523D01*
X113109476Y-118666285D01*
X113061857Y-118571047D01*
X112966619Y-118523428D01*
X112728523Y-118523428D01*
X112633285Y-118475809D01*
X112157095Y-118237714D02*
X112157095Y-118904380D01*
X112157095Y-118332952D02*
X112109476Y-118285333D01*
X112014238Y-118237714D01*
X111871380Y-118237714D01*
X111776142Y-118285333D01*
X111728523Y-118380571D01*
X111728523Y-118904380D01*
X111299952Y-118856761D02*
X111204714Y-118904380D01*
X111014238Y-118904380D01*
X110919000Y-118856761D01*
X110871380Y-118761523D01*
X110871380Y-118713904D01*
X110919000Y-118618666D01*
X111014238Y-118571047D01*
X111157095Y-118571047D01*
X111252333Y-118523428D01*
X111299952Y-118428190D01*
X111299952Y-118380571D01*
X111252333Y-118285333D01*
X111157095Y-118237714D01*
X111014238Y-118237714D01*
X110919000Y-118285333D01*
X110442809Y-118904380D02*
X110442809Y-117904380D01*
X110347571Y-118523428D02*
X110061857Y-118904380D01*
X110061857Y-118237714D02*
X110442809Y-118618666D01*
X109728523Y-118237714D02*
X109490428Y-118904380D01*
X109252333Y-118237714D02*
X109490428Y-118904380D01*
X109585666Y-119142476D01*
X109633285Y-119190095D01*
X109728523Y-119237714D01*
X107680904Y-118237714D02*
X107680904Y-118904380D01*
X107919000Y-117856761D02*
X108157095Y-118571047D01*
X107538047Y-118571047D01*
X107252333Y-117904380D02*
X106585666Y-118904380D01*
X106585666Y-117904380D02*
X107252333Y-118904380D01*
X105680904Y-118904380D02*
X106252333Y-118904380D01*
X105966619Y-118904380D02*
X105966619Y-117904380D01*
X106061857Y-118047238D01*
X106157095Y-118142476D01*
X106252333Y-118190095D01*
X105252333Y-118904380D02*
X105252333Y-117904380D01*
X104919000Y-118618666D01*
X104585666Y-117904380D01*
X104585666Y-118904380D01*
X104109476Y-118904380D02*
X104109476Y-117904380D01*
X103871380Y-117904380D01*
X103728523Y-117952000D01*
X103633285Y-118047238D01*
X103585666Y-118142476D01*
X103538047Y-118332952D01*
X103538047Y-118475809D01*
X103585666Y-118666285D01*
X103633285Y-118761523D01*
X103728523Y-118856761D01*
X103871380Y-118904380D01*
X104109476Y-118904380D01*
X127210285Y-121229380D02*
X127210285Y-120229380D01*
X126803142Y-121229380D02*
X126803142Y-120705571D01*
X126848380Y-120610333D01*
X126938857Y-120562714D01*
X127074571Y-120562714D01*
X127165047Y-120610333D01*
X127210285Y-120657952D01*
X126486476Y-120562714D02*
X126124571Y-120562714D01*
X126350761Y-120229380D02*
X126350761Y-121086523D01*
X126305523Y-121181761D01*
X126215047Y-121229380D01*
X126124571Y-121229380D01*
X125943619Y-120562714D02*
X125581714Y-120562714D01*
X125807904Y-120229380D02*
X125807904Y-121086523D01*
X125762666Y-121181761D01*
X125672190Y-121229380D01*
X125581714Y-121229380D01*
X125265047Y-120562714D02*
X125265047Y-121562714D01*
X125265047Y-120610333D02*
X125174571Y-120562714D01*
X124993619Y-120562714D01*
X124903142Y-120610333D01*
X124857904Y-120657952D01*
X124812666Y-120753190D01*
X124812666Y-121038904D01*
X124857904Y-121134142D01*
X124903142Y-121181761D01*
X124993619Y-121229380D01*
X125174571Y-121229380D01*
X125265047Y-121181761D01*
X124405523Y-121134142D02*
X124360285Y-121181761D01*
X124405523Y-121229380D01*
X124450761Y-121181761D01*
X124405523Y-121134142D01*
X124405523Y-121229380D01*
X124405523Y-120610333D02*
X124360285Y-120657952D01*
X124405523Y-120705571D01*
X124450761Y-120657952D01*
X124405523Y-120610333D01*
X124405523Y-120705571D01*
X123274571Y-120181761D02*
X124088857Y-121467476D01*
X122279333Y-120181761D02*
X123093619Y-121467476D01*
X121555523Y-120562714D02*
X121555523Y-121372238D01*
X121600761Y-121467476D01*
X121646000Y-121515095D01*
X121736476Y-121562714D01*
X121872190Y-121562714D01*
X121962666Y-121515095D01*
X121555523Y-121181761D02*
X121646000Y-121229380D01*
X121826952Y-121229380D01*
X121917428Y-121181761D01*
X121962666Y-121134142D01*
X122007904Y-121038904D01*
X122007904Y-120753190D01*
X121962666Y-120657952D01*
X121917428Y-120610333D01*
X121826952Y-120562714D01*
X121646000Y-120562714D01*
X121555523Y-120610333D01*
X121103142Y-121229380D02*
X121103142Y-120562714D01*
X121103142Y-120229380D02*
X121148380Y-120277000D01*
X121103142Y-120324619D01*
X121057904Y-120277000D01*
X121103142Y-120229380D01*
X121103142Y-120324619D01*
X120786476Y-120562714D02*
X120424571Y-120562714D01*
X120650761Y-120229380D02*
X120650761Y-121086523D01*
X120605523Y-121181761D01*
X120515047Y-121229380D01*
X120424571Y-121229380D01*
X120107904Y-121229380D02*
X120107904Y-120229380D01*
X119700761Y-121229380D02*
X119700761Y-120705571D01*
X119746000Y-120610333D01*
X119836476Y-120562714D01*
X119972190Y-120562714D01*
X120062666Y-120610333D01*
X120107904Y-120657952D01*
X118841238Y-120562714D02*
X118841238Y-121229380D01*
X119248380Y-120562714D02*
X119248380Y-121086523D01*
X119203142Y-121181761D01*
X119112666Y-121229380D01*
X118976952Y-121229380D01*
X118886476Y-121181761D01*
X118841238Y-121134142D01*
X118388857Y-121229380D02*
X118388857Y-120229380D01*
X118388857Y-120610333D02*
X118298380Y-120562714D01*
X118117428Y-120562714D01*
X118026952Y-120610333D01*
X117981714Y-120657952D01*
X117936476Y-120753190D01*
X117936476Y-121038904D01*
X117981714Y-121134142D01*
X118026952Y-121181761D01*
X118117428Y-121229380D01*
X118298380Y-121229380D01*
X118388857Y-121181761D01*
X117529333Y-121134142D02*
X117484095Y-121181761D01*
X117529333Y-121229380D01*
X117574571Y-121181761D01*
X117529333Y-121134142D01*
X117529333Y-121229380D01*
X116669809Y-121181761D02*
X116760285Y-121229380D01*
X116941238Y-121229380D01*
X117031714Y-121181761D01*
X117076952Y-121134142D01*
X117122190Y-121038904D01*
X117122190Y-120753190D01*
X117076952Y-120657952D01*
X117031714Y-120610333D01*
X116941238Y-120562714D01*
X116760285Y-120562714D01*
X116669809Y-120610333D01*
X116126952Y-121229380D02*
X116217428Y-121181761D01*
X116262666Y-121134142D01*
X116307904Y-121038904D01*
X116307904Y-120753190D01*
X116262666Y-120657952D01*
X116217428Y-120610333D01*
X116126952Y-120562714D01*
X115991238Y-120562714D01*
X115900761Y-120610333D01*
X115855523Y-120657952D01*
X115810285Y-120753190D01*
X115810285Y-121038904D01*
X115855523Y-121134142D01*
X115900761Y-121181761D01*
X115991238Y-121229380D01*
X116126952Y-121229380D01*
X115403142Y-121229380D02*
X115403142Y-120562714D01*
X115403142Y-120657952D02*
X115357904Y-120610333D01*
X115267428Y-120562714D01*
X115131714Y-120562714D01*
X115041238Y-120610333D01*
X114996000Y-120705571D01*
X114996000Y-121229380D01*
X114996000Y-120705571D02*
X114950761Y-120610333D01*
X114860285Y-120562714D01*
X114724571Y-120562714D01*
X114634095Y-120610333D01*
X114588857Y-120705571D01*
X114588857Y-121229380D01*
X113457904Y-120181761D02*
X114272190Y-121467476D01*
X112734095Y-120562714D02*
X112734095Y-121229380D01*
X112960285Y-120181761D02*
X113186476Y-120896047D01*
X112598380Y-120896047D01*
X112326952Y-121229380D02*
X111829333Y-120562714D01*
X112326952Y-120562714D02*
X111829333Y-121229380D01*
X110969809Y-121229380D02*
X111512666Y-121229380D01*
X111241238Y-121229380D02*
X111241238Y-120229380D01*
X111331714Y-120372238D01*
X111422190Y-120467476D01*
X111512666Y-120515095D01*
X110562666Y-121229380D02*
X110562666Y-120562714D01*
X110562666Y-120657952D02*
X110517428Y-120610333D01*
X110426952Y-120562714D01*
X110291238Y-120562714D01*
X110200761Y-120610333D01*
X110155523Y-120705571D01*
X110155523Y-121229380D01*
X110155523Y-120705571D02*
X110110285Y-120610333D01*
X110019809Y-120562714D01*
X109884095Y-120562714D01*
X109793619Y-120610333D01*
X109748380Y-120705571D01*
X109748380Y-121229380D01*
X108888857Y-121229380D02*
X108888857Y-120229380D01*
X108888857Y-121181761D02*
X108979333Y-121229380D01*
X109160285Y-121229380D01*
X109250761Y-121181761D01*
X109296000Y-121134142D01*
X109341238Y-121038904D01*
X109341238Y-120753190D01*
X109296000Y-120657952D01*
X109250761Y-120610333D01*
X109160285Y-120562714D01*
X108979333Y-120562714D01*
X108888857Y-120610333D01*
X107757904Y-120181761D02*
X108572190Y-121467476D01*
X107441238Y-120562714D02*
X107441238Y-121229380D01*
X107441238Y-120657952D02*
X107396000Y-120610333D01*
X107305523Y-120562714D01*
X107169809Y-120562714D01*
X107079333Y-120610333D01*
X107034095Y-120705571D01*
X107034095Y-121229380D01*
X106581714Y-121229380D02*
X106581714Y-120562714D01*
X106581714Y-120229380D02*
X106626952Y-120277000D01*
X106581714Y-120324619D01*
X106536476Y-120277000D01*
X106581714Y-120229380D01*
X106581714Y-120324619D01*
X106129333Y-121229380D02*
X106129333Y-120229380D01*
X106038857Y-120848428D02*
X105767428Y-121229380D01*
X105767428Y-120562714D02*
X106129333Y-120943666D01*
X105224571Y-121229380D02*
X105315047Y-121181761D01*
X105360285Y-121134142D01*
X105405523Y-121038904D01*
X105405523Y-120753190D01*
X105360285Y-120657952D01*
X105315047Y-120610333D01*
X105224571Y-120562714D01*
X105088857Y-120562714D01*
X104998380Y-120610333D01*
X104953142Y-120657952D01*
X104907904Y-120753190D01*
X104907904Y-121038904D01*
X104953142Y-121134142D01*
X104998380Y-121181761D01*
X105088857Y-121229380D01*
X105224571Y-121229380D01*
X104500761Y-120562714D02*
X104500761Y-121229380D01*
X104500761Y-120657952D02*
X104455523Y-120610333D01*
X104365047Y-120562714D01*
X104229333Y-120562714D01*
X104138857Y-120610333D01*
X104093619Y-120705571D01*
X104093619Y-121229380D01*
X103867428Y-121324619D02*
X103143619Y-121324619D01*
X102510285Y-120562714D02*
X102510285Y-121372238D01*
X102555523Y-121467476D01*
X102600761Y-121515095D01*
X102691238Y-121562714D01*
X102826952Y-121562714D01*
X102917428Y-121515095D01*
X102510285Y-121181761D02*
X102600761Y-121229380D01*
X102781714Y-121229380D01*
X102872190Y-121181761D01*
X102917428Y-121134142D01*
X102962666Y-121038904D01*
X102962666Y-120753190D01*
X102917428Y-120657952D01*
X102872190Y-120610333D01*
X102781714Y-120562714D01*
X102600761Y-120562714D01*
X102510285Y-120610333D01*
X102057904Y-120562714D02*
X102057904Y-121562714D01*
X102057904Y-120610333D02*
X101967428Y-120562714D01*
X101786476Y-120562714D01*
X101696000Y-120610333D01*
X101650761Y-120657952D01*
X101605523Y-120753190D01*
X101605523Y-121038904D01*
X101650761Y-121134142D01*
X101696000Y-121181761D01*
X101786476Y-121229380D01*
X101967428Y-121229380D01*
X102057904Y-121181761D01*
X101243619Y-121181761D02*
X101153142Y-121229380D01*
X100972190Y-121229380D01*
X100881714Y-121181761D01*
X100836476Y-121086523D01*
X100836476Y-121038904D01*
X100881714Y-120943666D01*
X100972190Y-120896047D01*
X101107904Y-120896047D01*
X101198380Y-120848428D01*
X101243619Y-120753190D01*
X101243619Y-120705571D01*
X101198380Y-120610333D01*
X101107904Y-120562714D01*
X100972190Y-120562714D01*
X100881714Y-120610333D01*
D11*
X116500000Y-125500000D02*
X116500000Y-128000000D01*
X111500000Y-125500000D02*
X111500000Y-128000000D01*
X114000000Y-123000000D02*
G75*
G03*
X111500000Y-125500000I0J-2500000D01*
G01*
X116500000Y-125500000D02*
G75*
G03*
X114000000Y-123000000I-2500000J0D01*
G01*
X100000000Y-128000000D02*
X111500000Y-128000000D01*
X105000000Y-100000000D02*
X128000000Y-100000000D01*
X128000000Y-123000000D02*
X128000000Y-100000000D01*
X116500000Y-128000000D02*
X123000000Y-128000000D01*
X100000000Y-128000000D02*
X100000000Y-105000000D01*
X100000000Y-105000000D02*
X102500000Y-105000000D01*
X105000000Y-102500000D02*
X105000000Y-100000000D01*
X105000000Y-102500000D02*
G75*
G02*
X102500000Y-105000000I-2500000J0D01*
G01*
X123000000Y-125500000D02*
G75*
G02*
X125500000Y-123000000I2500000J0D01*
G01*
X123000000Y-125500000D02*
X123000000Y-128000000D01*
X125500000Y-123000000D02*
X128000000Y-123000000D01*
M02*
