G04 #@! TF.GenerationSoftware,KiCad,Pcbnew,5.1.6-c6e7f7d~87~ubuntu18.04.1*
G04 #@! TF.CreationDate,2020-08-30T01:02:13+03:00*
G04 #@! TF.ProjectId,nikon_gps,6e696b6f-6e5f-4677-9073-2e6b69636164,B*
G04 #@! TF.SameCoordinates,Original*
G04 #@! TF.FileFunction,Copper,L2,Bot*
G04 #@! TF.FilePolarity,Positive*
%FSLAX46Y46*%
G04 Gerber Fmt 4.6, Leading zero omitted, Abs format (unit mm)*
G04 Created by KiCad (PCBNEW 5.1.6-c6e7f7d~87~ubuntu18.04.1) date 2020-08-30 01:02:13*
%MOMM*%
%LPD*%
G01*
G04 APERTURE LIST*
G04 #@! TA.AperFunction,Profile*
%ADD10C,0.100000*%
G04 #@! TD*
G04 #@! TA.AperFunction,ViaPad*
%ADD11C,0.800000*%
G04 #@! TD*
G04 #@! TA.AperFunction,ViaPad*
%ADD12C,0.600000*%
G04 #@! TD*
G04 #@! TA.AperFunction,Conductor*
%ADD13C,0.350000*%
G04 #@! TD*
G04 #@! TA.AperFunction,Conductor*
%ADD14C,0.200000*%
G04 #@! TD*
G04 APERTURE END LIST*
D10*
X116500000Y-125500000D02*
X116500000Y-128000000D01*
X111500000Y-125500000D02*
X111500000Y-128000000D01*
X114000000Y-123000000D02*
G75*
G03*
X111500000Y-125500000I0J-2500000D01*
G01*
X116500000Y-125500000D02*
G75*
G03*
X114000000Y-123000000I-2500000J0D01*
G01*
X100000000Y-128000000D02*
X111500000Y-128000000D01*
X105000000Y-100000000D02*
X128000000Y-100000000D01*
X128000000Y-123000000D02*
X128000000Y-100000000D01*
X116500000Y-128000000D02*
X123000000Y-128000000D01*
X100000000Y-128000000D02*
X100000000Y-105000000D01*
X100000000Y-105000000D02*
X102500000Y-105000000D01*
X105000000Y-102500000D02*
X105000000Y-100000000D01*
X105000000Y-102500000D02*
G75*
G02*
X102500000Y-105000000I-2500000J0D01*
G01*
X123000000Y-125500000D02*
G75*
G02*
X125500000Y-123000000I2500000J0D01*
G01*
X123000000Y-125500000D02*
X123000000Y-128000000D01*
X125500000Y-123000000D02*
X128000000Y-123000000D01*
D11*
X115800000Y-105965000D03*
X111200000Y-105965000D03*
X115800000Y-108665000D03*
X112700000Y-108665000D03*
X114300000Y-108665000D03*
X111200000Y-108665000D03*
X115800000Y-103365000D03*
X114300000Y-103365000D03*
X112700000Y-103365000D03*
X111200000Y-103365000D03*
D12*
X111734600Y-118364000D03*
X126619000Y-105410000D03*
X117983000Y-120015000D03*
X123672500Y-114427000D03*
X122237500Y-119062500D03*
X119966500Y-120015000D03*
X105791000Y-111999000D03*
X110490000Y-115951000D03*
X118328000Y-121757000D03*
X123408000Y-121757000D03*
X119380000Y-103425000D03*
X121031000Y-102235000D03*
X120396000Y-103632000D03*
X101625400Y-107772200D03*
X108966000Y-125984000D03*
X111252000Y-123698000D03*
X104902000Y-125730000D03*
X116611704Y-123825000D03*
X108524000Y-115951000D03*
X123444000Y-108270000D03*
X125603000Y-108155500D03*
X115062000Y-114427000D03*
X124929900Y-111798100D03*
X106299000Y-119380000D03*
X107061000Y-119380000D03*
X103896400Y-113299000D03*
X103866000Y-111506000D03*
D13*
X126619000Y-111480500D02*
X126619000Y-110744000D01*
X123672500Y-114427000D02*
X126619000Y-111480500D01*
X126619000Y-105410000D02*
X126619000Y-110744000D01*
X119918000Y-120015000D02*
X119966500Y-120063500D01*
X117983000Y-120015000D02*
X119918000Y-120015000D01*
X117983000Y-120015000D02*
X119966500Y-120015000D01*
X121285000Y-120015000D02*
X122237500Y-119062500D01*
X119966500Y-120015000D02*
X121285000Y-120015000D01*
X111734600Y-114528600D02*
X110094000Y-112888000D01*
X110094000Y-112888000D02*
X106680000Y-112888000D01*
X111734600Y-118364000D02*
X111734600Y-114528600D01*
X106680000Y-112888000D02*
X105791000Y-111999000D01*
D14*
G36*
X127550000Y-122550000D02*
G01*
X125477895Y-122550000D01*
X125457364Y-122552022D01*
X125441763Y-122551913D01*
X125435509Y-122552526D01*
X124950267Y-122603527D01*
X124910283Y-122611735D01*
X124870251Y-122619371D01*
X124864236Y-122621187D01*
X124398143Y-122765467D01*
X124360554Y-122781268D01*
X124322727Y-122796551D01*
X124317180Y-122799500D01*
X123887987Y-123031564D01*
X123854167Y-123054376D01*
X123820047Y-123076703D01*
X123815178Y-123080674D01*
X123439233Y-123391683D01*
X123410507Y-123420610D01*
X123381353Y-123449160D01*
X123377348Y-123454001D01*
X123068972Y-123832108D01*
X123046406Y-123866072D01*
X123023359Y-123899732D01*
X123020371Y-123905258D01*
X122791309Y-124336062D01*
X122775761Y-124373782D01*
X122759699Y-124411258D01*
X122757841Y-124417260D01*
X122616818Y-124884350D01*
X122608886Y-124924408D01*
X122600417Y-124964253D01*
X122599760Y-124970501D01*
X122552190Y-125455659D01*
X122550000Y-125477896D01*
X122550001Y-127550000D01*
X116950000Y-127550000D01*
X116950000Y-125477895D01*
X116947978Y-125457364D01*
X116948087Y-125441763D01*
X116947474Y-125435509D01*
X116896473Y-124950267D01*
X116888265Y-124910283D01*
X116880629Y-124870251D01*
X116878813Y-124864236D01*
X116734533Y-124398143D01*
X116718732Y-124360554D01*
X116703449Y-124322727D01*
X116700500Y-124317180D01*
X116468436Y-123887987D01*
X116445624Y-123854167D01*
X116423297Y-123820047D01*
X116419326Y-123815178D01*
X116108317Y-123439233D01*
X116079390Y-123410507D01*
X116050840Y-123381353D01*
X116045999Y-123377348D01*
X115667892Y-123068972D01*
X115633928Y-123046406D01*
X115600268Y-123023359D01*
X115594742Y-123020371D01*
X115163938Y-122791309D01*
X115126218Y-122775761D01*
X115088742Y-122759699D01*
X115082744Y-122757842D01*
X115082738Y-122757840D01*
X114615650Y-122616818D01*
X114575592Y-122608886D01*
X114535747Y-122600417D01*
X114529499Y-122599760D01*
X114043912Y-122552148D01*
X114024253Y-122552148D01*
X114004710Y-122550025D01*
X113998427Y-122550003D01*
X113980974Y-122550064D01*
X113961418Y-122552050D01*
X113941763Y-122551913D01*
X113935509Y-122552526D01*
X113450267Y-122603527D01*
X113410283Y-122611735D01*
X113370251Y-122619371D01*
X113364236Y-122621187D01*
X112898143Y-122765467D01*
X112860554Y-122781268D01*
X112822727Y-122796551D01*
X112817180Y-122799500D01*
X112387987Y-123031564D01*
X112354167Y-123054376D01*
X112320047Y-123076703D01*
X112315178Y-123080674D01*
X111939233Y-123391683D01*
X111910507Y-123420610D01*
X111881353Y-123449160D01*
X111877348Y-123454001D01*
X111568972Y-123832108D01*
X111546406Y-123866072D01*
X111523359Y-123899732D01*
X111520371Y-123905258D01*
X111291309Y-124336062D01*
X111275761Y-124373782D01*
X111259699Y-124411258D01*
X111257841Y-124417260D01*
X111116818Y-124884350D01*
X111108886Y-124924408D01*
X111100417Y-124964253D01*
X111099760Y-124970501D01*
X111052190Y-125455659D01*
X111050000Y-125477896D01*
X111050001Y-127550000D01*
X100450000Y-127550000D01*
X100450000Y-125602263D01*
X100750000Y-125602263D01*
X100750000Y-125897737D01*
X100807644Y-126187534D01*
X100920717Y-126460517D01*
X101084874Y-126706194D01*
X101293806Y-126915126D01*
X101539483Y-127079283D01*
X101812466Y-127192356D01*
X102102263Y-127250000D01*
X102397737Y-127250000D01*
X102687534Y-127192356D01*
X102960517Y-127079283D01*
X103206194Y-126915126D01*
X103415126Y-126706194D01*
X103579283Y-126460517D01*
X103692356Y-126187534D01*
X103750000Y-125897737D01*
X103750000Y-125602263D01*
X103692356Y-125312466D01*
X103579283Y-125039483D01*
X103415126Y-124793806D01*
X103206194Y-124584874D01*
X102960517Y-124420717D01*
X102687534Y-124307644D01*
X102397737Y-124250000D01*
X102102263Y-124250000D01*
X101812466Y-124307644D01*
X101539483Y-124420717D01*
X101293806Y-124584874D01*
X101084874Y-124793806D01*
X100920717Y-125039483D01*
X100807644Y-125312466D01*
X100750000Y-125602263D01*
X100450000Y-125602263D01*
X100450000Y-119946056D01*
X117283000Y-119946056D01*
X117283000Y-120083944D01*
X117309901Y-120219182D01*
X117362668Y-120346574D01*
X117439274Y-120461224D01*
X117536776Y-120558726D01*
X117651426Y-120635332D01*
X117778818Y-120688099D01*
X117914056Y-120715000D01*
X118051944Y-120715000D01*
X118187182Y-120688099D01*
X118314574Y-120635332D01*
X118382419Y-120590000D01*
X119567081Y-120590000D01*
X119634926Y-120635332D01*
X119762318Y-120688099D01*
X119897556Y-120715000D01*
X120035444Y-120715000D01*
X120170682Y-120688099D01*
X120298074Y-120635332D01*
X120365919Y-120590000D01*
X121256757Y-120590000D01*
X121285000Y-120592782D01*
X121313243Y-120590000D01*
X121313246Y-120590000D01*
X121397720Y-120581680D01*
X121506108Y-120548801D01*
X121605998Y-120495408D01*
X121693554Y-120423554D01*
X121711565Y-120401607D01*
X122361655Y-119751518D01*
X122441682Y-119735599D01*
X122569074Y-119682832D01*
X122683724Y-119606226D01*
X122781226Y-119508724D01*
X122857832Y-119394074D01*
X122910599Y-119266682D01*
X122937500Y-119131444D01*
X122937500Y-118993556D01*
X122910599Y-118858318D01*
X122857832Y-118730926D01*
X122781226Y-118616276D01*
X122683724Y-118518774D01*
X122569074Y-118442168D01*
X122441682Y-118389401D01*
X122306444Y-118362500D01*
X122168556Y-118362500D01*
X122033318Y-118389401D01*
X121905926Y-118442168D01*
X121791276Y-118518774D01*
X121693774Y-118616276D01*
X121617168Y-118730926D01*
X121564401Y-118858318D01*
X121548482Y-118938345D01*
X121046828Y-119440000D01*
X120365919Y-119440000D01*
X120298074Y-119394668D01*
X120170682Y-119341901D01*
X120035444Y-119315000D01*
X119897556Y-119315000D01*
X119762318Y-119341901D01*
X119634926Y-119394668D01*
X119567081Y-119440000D01*
X118382419Y-119440000D01*
X118314574Y-119394668D01*
X118187182Y-119341901D01*
X118051944Y-119315000D01*
X117914056Y-119315000D01*
X117778818Y-119341901D01*
X117651426Y-119394668D01*
X117536776Y-119471274D01*
X117439274Y-119568776D01*
X117362668Y-119683426D01*
X117309901Y-119810818D01*
X117283000Y-119946056D01*
X100450000Y-119946056D01*
X100450000Y-111930056D01*
X105091000Y-111930056D01*
X105091000Y-112067944D01*
X105117901Y-112203182D01*
X105170668Y-112330574D01*
X105247274Y-112445224D01*
X105344776Y-112542726D01*
X105459426Y-112619332D01*
X105586818Y-112672099D01*
X105666845Y-112688018D01*
X106253439Y-113274612D01*
X106271446Y-113296554D01*
X106293386Y-113314559D01*
X106359001Y-113368408D01*
X106458892Y-113421801D01*
X106567280Y-113454680D01*
X106651754Y-113463000D01*
X106651757Y-113463000D01*
X106680000Y-113465782D01*
X106708243Y-113463000D01*
X109855828Y-113463000D01*
X111159601Y-114766774D01*
X111159600Y-117964581D01*
X111114268Y-118032426D01*
X111061501Y-118159818D01*
X111034600Y-118295056D01*
X111034600Y-118432944D01*
X111061501Y-118568182D01*
X111114268Y-118695574D01*
X111190874Y-118810224D01*
X111288376Y-118907726D01*
X111403026Y-118984332D01*
X111530418Y-119037099D01*
X111665656Y-119064000D01*
X111803544Y-119064000D01*
X111938782Y-119037099D01*
X112066174Y-118984332D01*
X112180824Y-118907726D01*
X112278326Y-118810224D01*
X112354932Y-118695574D01*
X112407699Y-118568182D01*
X112434600Y-118432944D01*
X112434600Y-118295056D01*
X112407699Y-118159818D01*
X112354932Y-118032426D01*
X112309600Y-117964581D01*
X112309600Y-114556843D01*
X112312382Y-114528600D01*
X112309600Y-114500354D01*
X112301280Y-114415880D01*
X112283740Y-114358056D01*
X122972500Y-114358056D01*
X122972500Y-114495944D01*
X122999401Y-114631182D01*
X123052168Y-114758574D01*
X123128774Y-114873224D01*
X123226276Y-114970726D01*
X123340926Y-115047332D01*
X123468318Y-115100099D01*
X123603556Y-115127000D01*
X123741444Y-115127000D01*
X123876682Y-115100099D01*
X124004074Y-115047332D01*
X124118724Y-114970726D01*
X124216226Y-114873224D01*
X124292832Y-114758574D01*
X124345599Y-114631182D01*
X124361518Y-114551154D01*
X127005613Y-111907060D01*
X127027554Y-111889054D01*
X127061782Y-111847347D01*
X127099408Y-111801499D01*
X127152801Y-111701608D01*
X127163170Y-111667426D01*
X127185680Y-111593220D01*
X127194000Y-111508746D01*
X127194000Y-111508744D01*
X127196782Y-111480501D01*
X127194000Y-111452258D01*
X127194000Y-105809419D01*
X127239332Y-105741574D01*
X127292099Y-105614182D01*
X127319000Y-105478944D01*
X127319000Y-105341056D01*
X127292099Y-105205818D01*
X127239332Y-105078426D01*
X127162726Y-104963776D01*
X127065224Y-104866274D01*
X126950574Y-104789668D01*
X126823182Y-104736901D01*
X126687944Y-104710000D01*
X126550056Y-104710000D01*
X126414818Y-104736901D01*
X126287426Y-104789668D01*
X126172776Y-104866274D01*
X126075274Y-104963776D01*
X125998668Y-105078426D01*
X125945901Y-105205818D01*
X125919000Y-105341056D01*
X125919000Y-105478944D01*
X125945901Y-105614182D01*
X125998668Y-105741574D01*
X126044000Y-105809419D01*
X126044001Y-110715744D01*
X126044000Y-110715754D01*
X126044000Y-111242327D01*
X123548346Y-113737982D01*
X123468318Y-113753901D01*
X123340926Y-113806668D01*
X123226276Y-113883274D01*
X123128774Y-113980776D01*
X123052168Y-114095426D01*
X122999401Y-114222818D01*
X122972500Y-114358056D01*
X112283740Y-114358056D01*
X112268401Y-114307492D01*
X112215008Y-114207601D01*
X112161159Y-114141986D01*
X112143154Y-114120046D01*
X112121212Y-114102039D01*
X110520565Y-112501393D01*
X110502554Y-112479446D01*
X110414998Y-112407592D01*
X110315108Y-112354199D01*
X110206720Y-112321320D01*
X110122246Y-112313000D01*
X110122243Y-112313000D01*
X110094000Y-112310218D01*
X110065757Y-112313000D01*
X106918173Y-112313000D01*
X106480018Y-111874845D01*
X106464099Y-111794818D01*
X106411332Y-111667426D01*
X106334726Y-111552776D01*
X106237224Y-111455274D01*
X106122574Y-111378668D01*
X105995182Y-111325901D01*
X105859944Y-111299000D01*
X105722056Y-111299000D01*
X105586818Y-111325901D01*
X105459426Y-111378668D01*
X105344776Y-111455274D01*
X105247274Y-111552776D01*
X105170668Y-111667426D01*
X105117901Y-111794818D01*
X105091000Y-111930056D01*
X100450000Y-111930056D01*
X100450000Y-105450000D01*
X102522105Y-105450000D01*
X102542636Y-105447978D01*
X102558238Y-105448087D01*
X102564491Y-105447474D01*
X103049733Y-105396473D01*
X103089692Y-105388270D01*
X103129748Y-105380629D01*
X103135763Y-105378813D01*
X103601857Y-105234533D01*
X103639460Y-105218726D01*
X103677272Y-105203449D01*
X103682820Y-105200500D01*
X103779833Y-105148045D01*
X112211000Y-105148045D01*
X112211000Y-105401955D01*
X112260535Y-105650987D01*
X112357703Y-105885570D01*
X112498768Y-106096690D01*
X112678310Y-106276232D01*
X112889430Y-106417297D01*
X113124013Y-106514465D01*
X113373045Y-106564000D01*
X113626955Y-106564000D01*
X113875987Y-106514465D01*
X114110570Y-106417297D01*
X114321690Y-106276232D01*
X114501232Y-106096690D01*
X114642297Y-105885570D01*
X114739465Y-105650987D01*
X114789000Y-105401955D01*
X114789000Y-105148045D01*
X114739465Y-104899013D01*
X114642297Y-104664430D01*
X114501232Y-104453310D01*
X114321690Y-104273768D01*
X114110570Y-104132703D01*
X113875987Y-104035535D01*
X113626955Y-103986000D01*
X113373045Y-103986000D01*
X113124013Y-104035535D01*
X112889430Y-104132703D01*
X112678310Y-104273768D01*
X112498768Y-104453310D01*
X112357703Y-104664430D01*
X112260535Y-104899013D01*
X112211000Y-105148045D01*
X103779833Y-105148045D01*
X104112013Y-104968436D01*
X104145852Y-104945611D01*
X104179953Y-104923296D01*
X104184822Y-104919325D01*
X104560768Y-104608317D01*
X104589546Y-104579337D01*
X104618647Y-104550840D01*
X104622647Y-104546005D01*
X104622652Y-104546000D01*
X104622656Y-104545995D01*
X104931029Y-104167892D01*
X104953627Y-104133879D01*
X104976641Y-104100268D01*
X104979625Y-104094749D01*
X104979630Y-104094741D01*
X104979633Y-104094733D01*
X105208692Y-103663938D01*
X105224237Y-103626223D01*
X105240301Y-103588743D01*
X105242159Y-103582740D01*
X105383182Y-103115651D01*
X105391115Y-103075585D01*
X105399583Y-103035747D01*
X105400240Y-103029498D01*
X105447852Y-102543912D01*
X105450000Y-102522105D01*
X105450000Y-102102263D01*
X124250000Y-102102263D01*
X124250000Y-102397737D01*
X124307644Y-102687534D01*
X124420717Y-102960517D01*
X124584874Y-103206194D01*
X124793806Y-103415126D01*
X125039483Y-103579283D01*
X125312466Y-103692356D01*
X125602263Y-103750000D01*
X125897737Y-103750000D01*
X126187534Y-103692356D01*
X126460517Y-103579283D01*
X126706194Y-103415126D01*
X126915126Y-103206194D01*
X127079283Y-102960517D01*
X127192356Y-102687534D01*
X127250000Y-102397737D01*
X127250000Y-102102263D01*
X127192356Y-101812466D01*
X127079283Y-101539483D01*
X126915126Y-101293806D01*
X126706194Y-101084874D01*
X126460517Y-100920717D01*
X126187534Y-100807644D01*
X125897737Y-100750000D01*
X125602263Y-100750000D01*
X125312466Y-100807644D01*
X125039483Y-100920717D01*
X124793806Y-101084874D01*
X124584874Y-101293806D01*
X124420717Y-101539483D01*
X124307644Y-101812466D01*
X124250000Y-102102263D01*
X105450000Y-102102263D01*
X105450000Y-100450000D01*
X127550001Y-100450000D01*
X127550000Y-122550000D01*
G37*
X127550000Y-122550000D02*
X125477895Y-122550000D01*
X125457364Y-122552022D01*
X125441763Y-122551913D01*
X125435509Y-122552526D01*
X124950267Y-122603527D01*
X124910283Y-122611735D01*
X124870251Y-122619371D01*
X124864236Y-122621187D01*
X124398143Y-122765467D01*
X124360554Y-122781268D01*
X124322727Y-122796551D01*
X124317180Y-122799500D01*
X123887987Y-123031564D01*
X123854167Y-123054376D01*
X123820047Y-123076703D01*
X123815178Y-123080674D01*
X123439233Y-123391683D01*
X123410507Y-123420610D01*
X123381353Y-123449160D01*
X123377348Y-123454001D01*
X123068972Y-123832108D01*
X123046406Y-123866072D01*
X123023359Y-123899732D01*
X123020371Y-123905258D01*
X122791309Y-124336062D01*
X122775761Y-124373782D01*
X122759699Y-124411258D01*
X122757841Y-124417260D01*
X122616818Y-124884350D01*
X122608886Y-124924408D01*
X122600417Y-124964253D01*
X122599760Y-124970501D01*
X122552190Y-125455659D01*
X122550000Y-125477896D01*
X122550001Y-127550000D01*
X116950000Y-127550000D01*
X116950000Y-125477895D01*
X116947978Y-125457364D01*
X116948087Y-125441763D01*
X116947474Y-125435509D01*
X116896473Y-124950267D01*
X116888265Y-124910283D01*
X116880629Y-124870251D01*
X116878813Y-124864236D01*
X116734533Y-124398143D01*
X116718732Y-124360554D01*
X116703449Y-124322727D01*
X116700500Y-124317180D01*
X116468436Y-123887987D01*
X116445624Y-123854167D01*
X116423297Y-123820047D01*
X116419326Y-123815178D01*
X116108317Y-123439233D01*
X116079390Y-123410507D01*
X116050840Y-123381353D01*
X116045999Y-123377348D01*
X115667892Y-123068972D01*
X115633928Y-123046406D01*
X115600268Y-123023359D01*
X115594742Y-123020371D01*
X115163938Y-122791309D01*
X115126218Y-122775761D01*
X115088742Y-122759699D01*
X115082744Y-122757842D01*
X115082738Y-122757840D01*
X114615650Y-122616818D01*
X114575592Y-122608886D01*
X114535747Y-122600417D01*
X114529499Y-122599760D01*
X114043912Y-122552148D01*
X114024253Y-122552148D01*
X114004710Y-122550025D01*
X113998427Y-122550003D01*
X113980974Y-122550064D01*
X113961418Y-122552050D01*
X113941763Y-122551913D01*
X113935509Y-122552526D01*
X113450267Y-122603527D01*
X113410283Y-122611735D01*
X113370251Y-122619371D01*
X113364236Y-122621187D01*
X112898143Y-122765467D01*
X112860554Y-122781268D01*
X112822727Y-122796551D01*
X112817180Y-122799500D01*
X112387987Y-123031564D01*
X112354167Y-123054376D01*
X112320047Y-123076703D01*
X112315178Y-123080674D01*
X111939233Y-123391683D01*
X111910507Y-123420610D01*
X111881353Y-123449160D01*
X111877348Y-123454001D01*
X111568972Y-123832108D01*
X111546406Y-123866072D01*
X111523359Y-123899732D01*
X111520371Y-123905258D01*
X111291309Y-124336062D01*
X111275761Y-124373782D01*
X111259699Y-124411258D01*
X111257841Y-124417260D01*
X111116818Y-124884350D01*
X111108886Y-124924408D01*
X111100417Y-124964253D01*
X111099760Y-124970501D01*
X111052190Y-125455659D01*
X111050000Y-125477896D01*
X111050001Y-127550000D01*
X100450000Y-127550000D01*
X100450000Y-125602263D01*
X100750000Y-125602263D01*
X100750000Y-125897737D01*
X100807644Y-126187534D01*
X100920717Y-126460517D01*
X101084874Y-126706194D01*
X101293806Y-126915126D01*
X101539483Y-127079283D01*
X101812466Y-127192356D01*
X102102263Y-127250000D01*
X102397737Y-127250000D01*
X102687534Y-127192356D01*
X102960517Y-127079283D01*
X103206194Y-126915126D01*
X103415126Y-126706194D01*
X103579283Y-126460517D01*
X103692356Y-126187534D01*
X103750000Y-125897737D01*
X103750000Y-125602263D01*
X103692356Y-125312466D01*
X103579283Y-125039483D01*
X103415126Y-124793806D01*
X103206194Y-124584874D01*
X102960517Y-124420717D01*
X102687534Y-124307644D01*
X102397737Y-124250000D01*
X102102263Y-124250000D01*
X101812466Y-124307644D01*
X101539483Y-124420717D01*
X101293806Y-124584874D01*
X101084874Y-124793806D01*
X100920717Y-125039483D01*
X100807644Y-125312466D01*
X100750000Y-125602263D01*
X100450000Y-125602263D01*
X100450000Y-119946056D01*
X117283000Y-119946056D01*
X117283000Y-120083944D01*
X117309901Y-120219182D01*
X117362668Y-120346574D01*
X117439274Y-120461224D01*
X117536776Y-120558726D01*
X117651426Y-120635332D01*
X117778818Y-120688099D01*
X117914056Y-120715000D01*
X118051944Y-120715000D01*
X118187182Y-120688099D01*
X118314574Y-120635332D01*
X118382419Y-120590000D01*
X119567081Y-120590000D01*
X119634926Y-120635332D01*
X119762318Y-120688099D01*
X119897556Y-120715000D01*
X120035444Y-120715000D01*
X120170682Y-120688099D01*
X120298074Y-120635332D01*
X120365919Y-120590000D01*
X121256757Y-120590000D01*
X121285000Y-120592782D01*
X121313243Y-120590000D01*
X121313246Y-120590000D01*
X121397720Y-120581680D01*
X121506108Y-120548801D01*
X121605998Y-120495408D01*
X121693554Y-120423554D01*
X121711565Y-120401607D01*
X122361655Y-119751518D01*
X122441682Y-119735599D01*
X122569074Y-119682832D01*
X122683724Y-119606226D01*
X122781226Y-119508724D01*
X122857832Y-119394074D01*
X122910599Y-119266682D01*
X122937500Y-119131444D01*
X122937500Y-118993556D01*
X122910599Y-118858318D01*
X122857832Y-118730926D01*
X122781226Y-118616276D01*
X122683724Y-118518774D01*
X122569074Y-118442168D01*
X122441682Y-118389401D01*
X122306444Y-118362500D01*
X122168556Y-118362500D01*
X122033318Y-118389401D01*
X121905926Y-118442168D01*
X121791276Y-118518774D01*
X121693774Y-118616276D01*
X121617168Y-118730926D01*
X121564401Y-118858318D01*
X121548482Y-118938345D01*
X121046828Y-119440000D01*
X120365919Y-119440000D01*
X120298074Y-119394668D01*
X120170682Y-119341901D01*
X120035444Y-119315000D01*
X119897556Y-119315000D01*
X119762318Y-119341901D01*
X119634926Y-119394668D01*
X119567081Y-119440000D01*
X118382419Y-119440000D01*
X118314574Y-119394668D01*
X118187182Y-119341901D01*
X118051944Y-119315000D01*
X117914056Y-119315000D01*
X117778818Y-119341901D01*
X117651426Y-119394668D01*
X117536776Y-119471274D01*
X117439274Y-119568776D01*
X117362668Y-119683426D01*
X117309901Y-119810818D01*
X117283000Y-119946056D01*
X100450000Y-119946056D01*
X100450000Y-111930056D01*
X105091000Y-111930056D01*
X105091000Y-112067944D01*
X105117901Y-112203182D01*
X105170668Y-112330574D01*
X105247274Y-112445224D01*
X105344776Y-112542726D01*
X105459426Y-112619332D01*
X105586818Y-112672099D01*
X105666845Y-112688018D01*
X106253439Y-113274612D01*
X106271446Y-113296554D01*
X106293386Y-113314559D01*
X106359001Y-113368408D01*
X106458892Y-113421801D01*
X106567280Y-113454680D01*
X106651754Y-113463000D01*
X106651757Y-113463000D01*
X106680000Y-113465782D01*
X106708243Y-113463000D01*
X109855828Y-113463000D01*
X111159601Y-114766774D01*
X111159600Y-117964581D01*
X111114268Y-118032426D01*
X111061501Y-118159818D01*
X111034600Y-118295056D01*
X111034600Y-118432944D01*
X111061501Y-118568182D01*
X111114268Y-118695574D01*
X111190874Y-118810224D01*
X111288376Y-118907726D01*
X111403026Y-118984332D01*
X111530418Y-119037099D01*
X111665656Y-119064000D01*
X111803544Y-119064000D01*
X111938782Y-119037099D01*
X112066174Y-118984332D01*
X112180824Y-118907726D01*
X112278326Y-118810224D01*
X112354932Y-118695574D01*
X112407699Y-118568182D01*
X112434600Y-118432944D01*
X112434600Y-118295056D01*
X112407699Y-118159818D01*
X112354932Y-118032426D01*
X112309600Y-117964581D01*
X112309600Y-114556843D01*
X112312382Y-114528600D01*
X112309600Y-114500354D01*
X112301280Y-114415880D01*
X112283740Y-114358056D01*
X122972500Y-114358056D01*
X122972500Y-114495944D01*
X122999401Y-114631182D01*
X123052168Y-114758574D01*
X123128774Y-114873224D01*
X123226276Y-114970726D01*
X123340926Y-115047332D01*
X123468318Y-115100099D01*
X123603556Y-115127000D01*
X123741444Y-115127000D01*
X123876682Y-115100099D01*
X124004074Y-115047332D01*
X124118724Y-114970726D01*
X124216226Y-114873224D01*
X124292832Y-114758574D01*
X124345599Y-114631182D01*
X124361518Y-114551154D01*
X127005613Y-111907060D01*
X127027554Y-111889054D01*
X127061782Y-111847347D01*
X127099408Y-111801499D01*
X127152801Y-111701608D01*
X127163170Y-111667426D01*
X127185680Y-111593220D01*
X127194000Y-111508746D01*
X127194000Y-111508744D01*
X127196782Y-111480501D01*
X127194000Y-111452258D01*
X127194000Y-105809419D01*
X127239332Y-105741574D01*
X127292099Y-105614182D01*
X127319000Y-105478944D01*
X127319000Y-105341056D01*
X127292099Y-105205818D01*
X127239332Y-105078426D01*
X127162726Y-104963776D01*
X127065224Y-104866274D01*
X126950574Y-104789668D01*
X126823182Y-104736901D01*
X126687944Y-104710000D01*
X126550056Y-104710000D01*
X126414818Y-104736901D01*
X126287426Y-104789668D01*
X126172776Y-104866274D01*
X126075274Y-104963776D01*
X125998668Y-105078426D01*
X125945901Y-105205818D01*
X125919000Y-105341056D01*
X125919000Y-105478944D01*
X125945901Y-105614182D01*
X125998668Y-105741574D01*
X126044000Y-105809419D01*
X126044001Y-110715744D01*
X126044000Y-110715754D01*
X126044000Y-111242327D01*
X123548346Y-113737982D01*
X123468318Y-113753901D01*
X123340926Y-113806668D01*
X123226276Y-113883274D01*
X123128774Y-113980776D01*
X123052168Y-114095426D01*
X122999401Y-114222818D01*
X122972500Y-114358056D01*
X112283740Y-114358056D01*
X112268401Y-114307492D01*
X112215008Y-114207601D01*
X112161159Y-114141986D01*
X112143154Y-114120046D01*
X112121212Y-114102039D01*
X110520565Y-112501393D01*
X110502554Y-112479446D01*
X110414998Y-112407592D01*
X110315108Y-112354199D01*
X110206720Y-112321320D01*
X110122246Y-112313000D01*
X110122243Y-112313000D01*
X110094000Y-112310218D01*
X110065757Y-112313000D01*
X106918173Y-112313000D01*
X106480018Y-111874845D01*
X106464099Y-111794818D01*
X106411332Y-111667426D01*
X106334726Y-111552776D01*
X106237224Y-111455274D01*
X106122574Y-111378668D01*
X105995182Y-111325901D01*
X105859944Y-111299000D01*
X105722056Y-111299000D01*
X105586818Y-111325901D01*
X105459426Y-111378668D01*
X105344776Y-111455274D01*
X105247274Y-111552776D01*
X105170668Y-111667426D01*
X105117901Y-111794818D01*
X105091000Y-111930056D01*
X100450000Y-111930056D01*
X100450000Y-105450000D01*
X102522105Y-105450000D01*
X102542636Y-105447978D01*
X102558238Y-105448087D01*
X102564491Y-105447474D01*
X103049733Y-105396473D01*
X103089692Y-105388270D01*
X103129748Y-105380629D01*
X103135763Y-105378813D01*
X103601857Y-105234533D01*
X103639460Y-105218726D01*
X103677272Y-105203449D01*
X103682820Y-105200500D01*
X103779833Y-105148045D01*
X112211000Y-105148045D01*
X112211000Y-105401955D01*
X112260535Y-105650987D01*
X112357703Y-105885570D01*
X112498768Y-106096690D01*
X112678310Y-106276232D01*
X112889430Y-106417297D01*
X113124013Y-106514465D01*
X113373045Y-106564000D01*
X113626955Y-106564000D01*
X113875987Y-106514465D01*
X114110570Y-106417297D01*
X114321690Y-106276232D01*
X114501232Y-106096690D01*
X114642297Y-105885570D01*
X114739465Y-105650987D01*
X114789000Y-105401955D01*
X114789000Y-105148045D01*
X114739465Y-104899013D01*
X114642297Y-104664430D01*
X114501232Y-104453310D01*
X114321690Y-104273768D01*
X114110570Y-104132703D01*
X113875987Y-104035535D01*
X113626955Y-103986000D01*
X113373045Y-103986000D01*
X113124013Y-104035535D01*
X112889430Y-104132703D01*
X112678310Y-104273768D01*
X112498768Y-104453310D01*
X112357703Y-104664430D01*
X112260535Y-104899013D01*
X112211000Y-105148045D01*
X103779833Y-105148045D01*
X104112013Y-104968436D01*
X104145852Y-104945611D01*
X104179953Y-104923296D01*
X104184822Y-104919325D01*
X104560768Y-104608317D01*
X104589546Y-104579337D01*
X104618647Y-104550840D01*
X104622647Y-104546005D01*
X104622652Y-104546000D01*
X104622656Y-104545995D01*
X104931029Y-104167892D01*
X104953627Y-104133879D01*
X104976641Y-104100268D01*
X104979625Y-104094749D01*
X104979630Y-104094741D01*
X104979633Y-104094733D01*
X105208692Y-103663938D01*
X105224237Y-103626223D01*
X105240301Y-103588743D01*
X105242159Y-103582740D01*
X105383182Y-103115651D01*
X105391115Y-103075585D01*
X105399583Y-103035747D01*
X105400240Y-103029498D01*
X105447852Y-102543912D01*
X105450000Y-102522105D01*
X105450000Y-102102263D01*
X124250000Y-102102263D01*
X124250000Y-102397737D01*
X124307644Y-102687534D01*
X124420717Y-102960517D01*
X124584874Y-103206194D01*
X124793806Y-103415126D01*
X125039483Y-103579283D01*
X125312466Y-103692356D01*
X125602263Y-103750000D01*
X125897737Y-103750000D01*
X126187534Y-103692356D01*
X126460517Y-103579283D01*
X126706194Y-103415126D01*
X126915126Y-103206194D01*
X127079283Y-102960517D01*
X127192356Y-102687534D01*
X127250000Y-102397737D01*
X127250000Y-102102263D01*
X127192356Y-101812466D01*
X127079283Y-101539483D01*
X126915126Y-101293806D01*
X126706194Y-101084874D01*
X126460517Y-100920717D01*
X126187534Y-100807644D01*
X125897737Y-100750000D01*
X125602263Y-100750000D01*
X125312466Y-100807644D01*
X125039483Y-100920717D01*
X124793806Y-101084874D01*
X124584874Y-101293806D01*
X124420717Y-101539483D01*
X124307644Y-101812466D01*
X124250000Y-102102263D01*
X105450000Y-102102263D01*
X105450000Y-100450000D01*
X127550001Y-100450000D01*
X127550000Y-122550000D01*
M02*
