G04 #@! TF.FileFunction,Legend,Top*
%FSLAX46Y46*%
G04 Gerber Fmt 4.6, Leading zero omitted, Abs format (unit mm)*
G04 Created by KiCad (PCBNEW 4.0.7-e2-6376~61~ubuntu18.04.1) date Sat Feb  2 14:08:29 2019*
%MOMM*%
%LPD*%
G01*
G04 APERTURE LIST*
%ADD10C,0.100000*%
%ADD11C,0.250000*%
%ADD12C,0.150000*%
%ADD13C,0.120000*%
G04 APERTURE END LIST*
D10*
X100554286Y-116982857D02*
X100554286Y-117340000D01*
X100911429Y-117375714D01*
X100875714Y-117340000D01*
X100840000Y-117268571D01*
X100840000Y-117090000D01*
X100875714Y-117018571D01*
X100911429Y-116982857D01*
X100982857Y-116947142D01*
X101161429Y-116947142D01*
X101232857Y-116982857D01*
X101268571Y-117018571D01*
X101304286Y-117090000D01*
X101304286Y-117268571D01*
X101268571Y-117340000D01*
X101232857Y-117375714D01*
X100554286Y-116732856D02*
X101304286Y-116482856D01*
X100554286Y-116232856D01*
X100554286Y-120129999D02*
X100554286Y-119987142D01*
X100590000Y-119915714D01*
X100661429Y-119844285D01*
X100804286Y-119808571D01*
X101054286Y-119808571D01*
X101197143Y-119844285D01*
X101268571Y-119915714D01*
X101304286Y-119987142D01*
X101304286Y-120129999D01*
X101268571Y-120201428D01*
X101197143Y-120272857D01*
X101054286Y-120308571D01*
X100804286Y-120308571D01*
X100661429Y-120272857D01*
X100590000Y-120201428D01*
X100554286Y-120129999D01*
X100554286Y-119487143D02*
X101161429Y-119487143D01*
X101232857Y-119451428D01*
X101268571Y-119415714D01*
X101304286Y-119344285D01*
X101304286Y-119201428D01*
X101268571Y-119130000D01*
X101232857Y-119094285D01*
X101161429Y-119058571D01*
X100554286Y-119058571D01*
X100554286Y-118808571D02*
X100554286Y-118380000D01*
X101304286Y-118594286D02*
X100554286Y-118594286D01*
X100590000Y-122491428D02*
X100554286Y-122562857D01*
X100554286Y-122670000D01*
X100590000Y-122777143D01*
X100661429Y-122848571D01*
X100732857Y-122884286D01*
X100875714Y-122920000D01*
X100982857Y-122920000D01*
X101125714Y-122884286D01*
X101197143Y-122848571D01*
X101268571Y-122777143D01*
X101304286Y-122670000D01*
X101304286Y-122598571D01*
X101268571Y-122491428D01*
X101232857Y-122455714D01*
X100982857Y-122455714D01*
X100982857Y-122598571D01*
X101304286Y-122134286D02*
X100554286Y-122134286D01*
X101304286Y-121705714D01*
X100554286Y-121705714D01*
X101304286Y-121348572D02*
X100554286Y-121348572D01*
X100554286Y-121170000D01*
X100590000Y-121062857D01*
X100661429Y-120991429D01*
X100732857Y-120955714D01*
X100875714Y-120920000D01*
X100982857Y-120920000D01*
X101125714Y-120955714D01*
X101197143Y-120991429D01*
X101268571Y-121062857D01*
X101304286Y-121170000D01*
X101304286Y-121348572D01*
X126117000Y-107598571D02*
X126081286Y-107670000D01*
X126081286Y-107777143D01*
X126117000Y-107884286D01*
X126188429Y-107955714D01*
X126259857Y-107991429D01*
X126402714Y-108027143D01*
X126509857Y-108027143D01*
X126652714Y-107991429D01*
X126724143Y-107955714D01*
X126795571Y-107884286D01*
X126831286Y-107777143D01*
X126831286Y-107705714D01*
X126795571Y-107598571D01*
X126759857Y-107562857D01*
X126509857Y-107562857D01*
X126509857Y-107705714D01*
X126831286Y-107241429D02*
X126081286Y-107241429D01*
X126081286Y-106955714D01*
X126117000Y-106884286D01*
X126152714Y-106848571D01*
X126224143Y-106812857D01*
X126331286Y-106812857D01*
X126402714Y-106848571D01*
X126438429Y-106884286D01*
X126474143Y-106955714D01*
X126474143Y-107241429D01*
X126795571Y-106527143D02*
X126831286Y-106420000D01*
X126831286Y-106241429D01*
X126795571Y-106170000D01*
X126759857Y-106134286D01*
X126688429Y-106098571D01*
X126617000Y-106098571D01*
X126545571Y-106134286D01*
X126509857Y-106170000D01*
X126474143Y-106241429D01*
X126438429Y-106384286D01*
X126402714Y-106455714D01*
X126367000Y-106491429D01*
X126295571Y-106527143D01*
X126224143Y-106527143D01*
X126152714Y-106491429D01*
X126117000Y-106455714D01*
X126081286Y-106384286D01*
X126081286Y-106205714D01*
X126117000Y-106098571D01*
X126831286Y-104777142D02*
X126474143Y-105027142D01*
X126831286Y-105205714D02*
X126081286Y-105205714D01*
X126081286Y-104919999D01*
X126117000Y-104848571D01*
X126152714Y-104812856D01*
X126224143Y-104777142D01*
X126331286Y-104777142D01*
X126402714Y-104812856D01*
X126438429Y-104848571D01*
X126474143Y-104919999D01*
X126474143Y-105205714D01*
X126081286Y-104527142D02*
X126831286Y-104027142D01*
X126081286Y-104027142D02*
X126831286Y-104527142D01*
X125257857Y-111984286D02*
X125722143Y-111984286D01*
X125472143Y-112270000D01*
X125579285Y-112270000D01*
X125650714Y-112305714D01*
X125686428Y-112341429D01*
X125722143Y-112412857D01*
X125722143Y-112591429D01*
X125686428Y-112662857D01*
X125650714Y-112698571D01*
X125579285Y-112734286D01*
X125365000Y-112734286D01*
X125293571Y-112698571D01*
X125257857Y-112662857D01*
X126043571Y-112662857D02*
X126079286Y-112698571D01*
X126043571Y-112734286D01*
X126007857Y-112698571D01*
X126043571Y-112662857D01*
X126043571Y-112734286D01*
X126329286Y-111984286D02*
X126793572Y-111984286D01*
X126543572Y-112270000D01*
X126650714Y-112270000D01*
X126722143Y-112305714D01*
X126757857Y-112341429D01*
X126793572Y-112412857D01*
X126793572Y-112591429D01*
X126757857Y-112662857D01*
X126722143Y-112698571D01*
X126650714Y-112734286D01*
X126436429Y-112734286D01*
X126365000Y-112698571D01*
X126329286Y-112662857D01*
X127007858Y-111984286D02*
X127257858Y-112734286D01*
X127507858Y-111984286D01*
X108013572Y-125990000D02*
X107942143Y-125954286D01*
X107835000Y-125954286D01*
X107727857Y-125990000D01*
X107656429Y-126061429D01*
X107620714Y-126132857D01*
X107585000Y-126275714D01*
X107585000Y-126382857D01*
X107620714Y-126525714D01*
X107656429Y-126597143D01*
X107727857Y-126668571D01*
X107835000Y-126704286D01*
X107906429Y-126704286D01*
X108013572Y-126668571D01*
X108049286Y-126632857D01*
X108049286Y-126382857D01*
X107906429Y-126382857D01*
X108370714Y-126704286D02*
X108370714Y-125954286D01*
X108799286Y-126704286D01*
X108799286Y-125954286D01*
X109156428Y-126704286D02*
X109156428Y-125954286D01*
X109335000Y-125954286D01*
X109442143Y-125990000D01*
X109513571Y-126061429D01*
X109549286Y-126132857D01*
X109585000Y-126275714D01*
X109585000Y-126382857D01*
X109549286Y-126525714D01*
X109513571Y-126597143D01*
X109442143Y-126668571D01*
X109335000Y-126704286D01*
X109156428Y-126704286D01*
X115242571Y-122757286D02*
X115242571Y-122185857D01*
X115528286Y-122471571D02*
X114956857Y-122471571D01*
X114778286Y-121471572D02*
X114778286Y-121828715D01*
X115135429Y-121864429D01*
X115099714Y-121828715D01*
X115064000Y-121757286D01*
X115064000Y-121578715D01*
X115099714Y-121507286D01*
X115135429Y-121471572D01*
X115206857Y-121435857D01*
X115385429Y-121435857D01*
X115456857Y-121471572D01*
X115492571Y-121507286D01*
X115528286Y-121578715D01*
X115528286Y-121757286D01*
X115492571Y-121828715D01*
X115456857Y-121864429D01*
X114778286Y-121221571D02*
X115528286Y-120971571D01*
X114778286Y-120721571D01*
X120773143Y-113750286D02*
X120344571Y-113750286D01*
X120558857Y-113750286D02*
X120558857Y-113000286D01*
X120487428Y-113107429D01*
X120416000Y-113178857D01*
X120344571Y-113214571D01*
X121094571Y-113750286D02*
X121094571Y-113000286D01*
X121380286Y-113000286D01*
X121451714Y-113036000D01*
X121487429Y-113071714D01*
X121523143Y-113143143D01*
X121523143Y-113250286D01*
X121487429Y-113321714D01*
X121451714Y-113357429D01*
X121380286Y-113393143D01*
X121094571Y-113393143D01*
X121844571Y-113750286D02*
X121844571Y-113000286D01*
X122130286Y-113000286D01*
X122201714Y-113036000D01*
X122237429Y-113071714D01*
X122273143Y-113143143D01*
X122273143Y-113250286D01*
X122237429Y-113321714D01*
X122201714Y-113357429D01*
X122130286Y-113393143D01*
X121844571Y-113393143D01*
X122558857Y-113714571D02*
X122666000Y-113750286D01*
X122844571Y-113750286D01*
X122916000Y-113714571D01*
X122951714Y-113678857D01*
X122987429Y-113607429D01*
X122987429Y-113536000D01*
X122951714Y-113464571D01*
X122916000Y-113428857D01*
X122844571Y-113393143D01*
X122701714Y-113357429D01*
X122630286Y-113321714D01*
X122594571Y-113286000D01*
X122558857Y-113214571D01*
X122558857Y-113143143D01*
X122594571Y-113071714D01*
X122630286Y-113036000D01*
X122701714Y-113000286D01*
X122880286Y-113000286D01*
X122987429Y-113036000D01*
X119669857Y-126462286D02*
X120134143Y-126462286D01*
X119884143Y-126748000D01*
X119991285Y-126748000D01*
X120062714Y-126783714D01*
X120098428Y-126819429D01*
X120134143Y-126890857D01*
X120134143Y-127069429D01*
X120098428Y-127140857D01*
X120062714Y-127176571D01*
X119991285Y-127212286D01*
X119777000Y-127212286D01*
X119705571Y-127176571D01*
X119669857Y-127140857D01*
X120455571Y-127140857D02*
X120491286Y-127176571D01*
X120455571Y-127212286D01*
X120419857Y-127176571D01*
X120455571Y-127140857D01*
X120455571Y-127212286D01*
X120741286Y-126462286D02*
X121205572Y-126462286D01*
X120955572Y-126748000D01*
X121062714Y-126748000D01*
X121134143Y-126783714D01*
X121169857Y-126819429D01*
X121205572Y-126890857D01*
X121205572Y-127069429D01*
X121169857Y-127140857D01*
X121134143Y-127176571D01*
X121062714Y-127212286D01*
X120848429Y-127212286D01*
X120777000Y-127176571D01*
X120741286Y-127140857D01*
X121419858Y-126462286D02*
X121669858Y-127212286D01*
X121919858Y-126462286D01*
X116500000Y-125500000D02*
X116500000Y-128000000D01*
X111500000Y-125500000D02*
X111500000Y-128000000D01*
X114000000Y-123000000D02*
G75*
G03X111500000Y-125500000I0J-2500000D01*
G01*
X116500000Y-125500000D02*
G75*
G03X114000000Y-123000000I-2500000J0D01*
G01*
X100000000Y-128000000D02*
X111500000Y-128000000D01*
X107250000Y-125750000D02*
G75*
G03X107250000Y-125750000I-2000000J0D01*
G01*
X105000000Y-100000000D02*
X128000000Y-100000000D01*
X128000000Y-123000000D02*
X128000000Y-100000000D01*
X116500000Y-128000000D02*
X123000000Y-128000000D01*
X100000000Y-128000000D02*
X100000000Y-105000000D01*
X100000000Y-105000000D02*
X102500000Y-105000000D01*
X105000000Y-102500000D02*
X105000000Y-100000000D01*
X105000000Y-102500000D02*
G75*
G02X102500000Y-105000000I-2500000J0D01*
G01*
X123000000Y-125500000D02*
G75*
G02X125500000Y-123000000I2500000J0D01*
G01*
X123000000Y-125500000D02*
X123000000Y-128000000D01*
X125500000Y-123000000D02*
X128000000Y-123000000D01*
D11*
X124750000Y-102250000D02*
G75*
G03X124750000Y-102250000I-2000000J0D01*
G01*
D12*
X111488000Y-110965000D02*
X111488000Y-100965000D01*
X117888000Y-110965000D02*
X117888000Y-100965000D01*
X119688000Y-102765000D02*
X119688000Y-100965000D01*
X109688000Y-110965000D02*
X109688000Y-109165000D01*
X119688000Y-110965000D02*
X119688000Y-109165000D01*
X119688000Y-110965000D02*
X109688000Y-110965000D01*
X109138000Y-103425000D02*
G75*
G03X109138000Y-103425000I-250000J0D01*
G01*
X119688000Y-100965000D02*
X109688000Y-100965000D01*
X109688000Y-102765000D02*
X109688000Y-100965000D01*
D13*
X100752000Y-108955000D02*
X100752000Y-110755000D01*
X103972000Y-110755000D02*
X103972000Y-108305000D01*
X111719000Y-119264000D02*
X111719000Y-117464000D01*
X108499000Y-117464000D02*
X108499000Y-119914000D01*
X119104000Y-123506000D02*
X119104000Y-124906000D01*
X119104000Y-124906000D02*
X121904000Y-124906000D01*
X119104000Y-123506000D02*
X121904000Y-123506000D01*
X122704000Y-115508000D02*
X122704000Y-114108000D01*
X122704000Y-114108000D02*
X119904000Y-114108000D01*
X122704000Y-115508000D02*
X119904000Y-115508000D01*
X106561000Y-116160000D02*
X107561000Y-116160000D01*
X107561000Y-117520000D02*
X106561000Y-117520000D01*
X117674000Y-122737000D02*
X117674000Y-122707000D01*
X117674000Y-116277000D02*
X117674000Y-116307000D01*
X124134000Y-116277000D02*
X124134000Y-116307000D01*
X124134000Y-122707000D02*
X124134000Y-122737000D01*
X117674000Y-120807000D02*
X117674000Y-118207000D01*
X124134000Y-122737000D02*
X117674000Y-122737000D01*
X124134000Y-120807000D02*
X124134000Y-118207000D01*
X124134000Y-116277000D02*
X117674000Y-116277000D01*
X112436000Y-113273000D02*
X112436000Y-115073000D01*
X115656000Y-115073000D02*
X115656000Y-112623000D01*
X106846000Y-108593000D02*
X106846000Y-109593000D01*
X108546000Y-109593000D02*
X108546000Y-108593000D01*
X106006000Y-110355000D02*
X106006000Y-109355000D01*
X104306000Y-109355000D02*
X104306000Y-110355000D01*
X117690000Y-114673000D02*
X117690000Y-113673000D01*
X115990000Y-113673000D02*
X115990000Y-114673000D01*
X113880000Y-118864000D02*
X113880000Y-117864000D01*
X112180000Y-117864000D02*
X112180000Y-118864000D01*
X110672500Y-114466000D02*
X109672500Y-114466000D01*
X109672500Y-116166000D02*
X110672500Y-116166000D01*
X122673000Y-108620000D02*
X122673000Y-109820000D01*
X120913000Y-109820000D02*
X120913000Y-108620000D01*
X122673000Y-105445000D02*
X122673000Y-106645000D01*
X120913000Y-106645000D02*
X120913000Y-105445000D01*
X122945000Y-109820000D02*
X122945000Y-108620000D01*
X124705000Y-108620000D02*
X124705000Y-109820000D01*
X102714500Y-105990500D02*
X103914500Y-105990500D01*
X103914500Y-107750500D02*
X102714500Y-107750500D01*
X100529500Y-114138000D02*
X100529500Y-112938000D01*
X102289500Y-112938000D02*
X102289500Y-114138000D01*
X103540000Y-112658000D02*
X104740000Y-112658000D01*
X104740000Y-114418000D02*
X103540000Y-114418000D01*
X109509000Y-120532000D02*
X110709000Y-120532000D01*
X110709000Y-122292000D02*
X109509000Y-122292000D01*
X127245000Y-113827000D02*
X127245000Y-115027000D01*
X125485000Y-115027000D02*
X125485000Y-113827000D01*
X106816000Y-104359000D02*
X106816000Y-103159000D01*
X108576000Y-103159000D02*
X108576000Y-104359000D01*
X108292000Y-120007000D02*
X108292000Y-119007000D01*
X106592000Y-119007000D02*
X106592000Y-120007000D01*
X106518000Y-105441000D02*
X106518000Y-106141000D01*
X105318000Y-106141000D02*
X105318000Y-105441000D01*
X110459000Y-114138000D02*
X109759000Y-114138000D01*
X109759000Y-112938000D02*
X110459000Y-112938000D01*
X106816000Y-113185500D02*
X106816000Y-111985500D01*
X108576000Y-111985500D02*
X108576000Y-113185500D01*
D10*
X118554571Y-111222286D02*
X118554571Y-111829429D01*
X118590286Y-111900857D01*
X118626000Y-111936571D01*
X118697429Y-111972286D01*
X118840286Y-111972286D01*
X118911714Y-111936571D01*
X118947429Y-111900857D01*
X118983143Y-111829429D01*
X118983143Y-111222286D01*
X119733143Y-111972286D02*
X119304571Y-111972286D01*
X119518857Y-111972286D02*
X119518857Y-111222286D01*
X119447428Y-111329429D01*
X119376000Y-111400857D01*
X119304571Y-111436571D01*
X102362071Y-111793786D02*
X102362071Y-112400929D01*
X102397786Y-112472357D01*
X102433500Y-112508071D01*
X102504929Y-112543786D01*
X102647786Y-112543786D01*
X102719214Y-112508071D01*
X102754929Y-112472357D01*
X102790643Y-112400929D01*
X102790643Y-111793786D01*
X103112071Y-111865214D02*
X103147785Y-111829500D01*
X103219214Y-111793786D01*
X103397785Y-111793786D01*
X103469214Y-111829500D01*
X103504928Y-111865214D01*
X103540643Y-111936643D01*
X103540643Y-112008071D01*
X103504928Y-112115214D01*
X103076357Y-112543786D01*
X103540643Y-112543786D01*
X111760071Y-120175786D02*
X111760071Y-120782929D01*
X111795786Y-120854357D01*
X111831500Y-120890071D01*
X111902929Y-120925786D01*
X112045786Y-120925786D01*
X112117214Y-120890071D01*
X112152929Y-120854357D01*
X112188643Y-120782929D01*
X112188643Y-120175786D01*
X112867214Y-120425786D02*
X112867214Y-120925786D01*
X112688643Y-120140071D02*
X112510071Y-120675786D01*
X112974357Y-120675786D01*
X120350428Y-126069286D02*
X120350428Y-125319286D01*
X120529000Y-125319286D01*
X120636143Y-125355000D01*
X120707571Y-125426429D01*
X120743286Y-125497857D01*
X120779000Y-125640714D01*
X120779000Y-125747857D01*
X120743286Y-125890714D01*
X120707571Y-125962143D01*
X120636143Y-126033571D01*
X120529000Y-126069286D01*
X120350428Y-126069286D01*
X121493286Y-126069286D02*
X121064714Y-126069286D01*
X121279000Y-126069286D02*
X121279000Y-125319286D01*
X121207571Y-125426429D01*
X121136143Y-125497857D01*
X121064714Y-125533571D01*
X120350428Y-112734286D02*
X120350428Y-111984286D01*
X120529000Y-111984286D01*
X120636143Y-112020000D01*
X120707571Y-112091429D01*
X120743286Y-112162857D01*
X120779000Y-112305714D01*
X120779000Y-112412857D01*
X120743286Y-112555714D01*
X120707571Y-112627143D01*
X120636143Y-112698571D01*
X120529000Y-112734286D01*
X120350428Y-112734286D01*
X121064714Y-112055714D02*
X121100428Y-112020000D01*
X121171857Y-111984286D01*
X121350428Y-111984286D01*
X121421857Y-112020000D01*
X121457571Y-112055714D01*
X121493286Y-112127143D01*
X121493286Y-112198571D01*
X121457571Y-112305714D01*
X121029000Y-112734286D01*
X121493286Y-112734286D01*
X106303000Y-115516429D02*
X106053000Y-115516429D01*
X106053000Y-115909286D02*
X106053000Y-115159286D01*
X106410143Y-115159286D01*
X107088715Y-115909286D02*
X106660143Y-115909286D01*
X106874429Y-115909286D02*
X106874429Y-115159286D01*
X106803000Y-115266429D01*
X106731572Y-115337857D01*
X106660143Y-115373571D01*
X103128000Y-123287286D02*
X103128000Y-123823000D01*
X103092286Y-123930143D01*
X103020857Y-124001571D01*
X102913714Y-124037286D01*
X102842286Y-124037286D01*
X103878001Y-124037286D02*
X103449429Y-124037286D01*
X103663715Y-124037286D02*
X103663715Y-123287286D01*
X103592286Y-123394429D01*
X103520858Y-123465857D01*
X103449429Y-123501571D01*
D12*
X117036810Y-120573667D02*
X117074905Y-120459381D01*
X117074905Y-120268905D01*
X117036810Y-120192715D01*
X116998714Y-120154619D01*
X116922524Y-120116524D01*
X116846333Y-120116524D01*
X116770143Y-120154619D01*
X116732048Y-120192715D01*
X116693952Y-120268905D01*
X116655857Y-120421286D01*
X116617762Y-120497477D01*
X116579667Y-120535572D01*
X116503476Y-120573667D01*
X116427286Y-120573667D01*
X116351095Y-120535572D01*
X116313000Y-120497477D01*
X116274905Y-120421286D01*
X116274905Y-120230810D01*
X116313000Y-120116524D01*
X116274905Y-119849857D02*
X117074905Y-119659381D01*
X116503476Y-119507000D01*
X117074905Y-119354619D01*
X116274905Y-119164143D01*
X117074905Y-118440333D02*
X117074905Y-118897476D01*
X117074905Y-118668905D02*
X116274905Y-118668905D01*
X116389190Y-118745095D01*
X116465381Y-118821286D01*
X116503476Y-118897476D01*
D10*
X113474571Y-111476286D02*
X113474571Y-112083429D01*
X113510286Y-112154857D01*
X113546000Y-112190571D01*
X113617429Y-112226286D01*
X113760286Y-112226286D01*
X113831714Y-112190571D01*
X113867429Y-112154857D01*
X113903143Y-112083429D01*
X113903143Y-111476286D01*
X114188857Y-111476286D02*
X114653143Y-111476286D01*
X114403143Y-111762000D01*
X114510285Y-111762000D01*
X114581714Y-111797714D01*
X114617428Y-111833429D01*
X114653143Y-111904857D01*
X114653143Y-112083429D01*
X114617428Y-112154857D01*
X114581714Y-112190571D01*
X114510285Y-112226286D01*
X114296000Y-112226286D01*
X114224571Y-112190571D01*
X114188857Y-112154857D01*
X107571000Y-107201857D02*
X107535286Y-107237571D01*
X107428143Y-107273286D01*
X107356714Y-107273286D01*
X107249571Y-107237571D01*
X107178143Y-107166143D01*
X107142428Y-107094714D01*
X107106714Y-106951857D01*
X107106714Y-106844714D01*
X107142428Y-106701857D01*
X107178143Y-106630429D01*
X107249571Y-106559000D01*
X107356714Y-106523286D01*
X107428143Y-106523286D01*
X107535286Y-106559000D01*
X107571000Y-106594714D01*
X108285286Y-107273286D02*
X107856714Y-107273286D01*
X108071000Y-107273286D02*
X108071000Y-106523286D01*
X107999571Y-106630429D01*
X107928143Y-106701857D01*
X107856714Y-106737571D01*
X104840500Y-112345357D02*
X104804786Y-112381071D01*
X104697643Y-112416786D01*
X104626214Y-112416786D01*
X104519071Y-112381071D01*
X104447643Y-112309643D01*
X104411928Y-112238214D01*
X104376214Y-112095357D01*
X104376214Y-111988214D01*
X104411928Y-111845357D01*
X104447643Y-111773929D01*
X104519071Y-111702500D01*
X104626214Y-111666786D01*
X104697643Y-111666786D01*
X104804786Y-111702500D01*
X104840500Y-111738214D01*
X105090500Y-111666786D02*
X105554786Y-111666786D01*
X105304786Y-111952500D01*
X105411928Y-111952500D01*
X105483357Y-111988214D01*
X105519071Y-112023929D01*
X105554786Y-112095357D01*
X105554786Y-112273929D01*
X105519071Y-112345357D01*
X105483357Y-112381071D01*
X105411928Y-112416786D01*
X105197643Y-112416786D01*
X105126214Y-112381071D01*
X105090500Y-112345357D01*
X116715000Y-112281857D02*
X116679286Y-112317571D01*
X116572143Y-112353286D01*
X116500714Y-112353286D01*
X116393571Y-112317571D01*
X116322143Y-112246143D01*
X116286428Y-112174714D01*
X116250714Y-112031857D01*
X116250714Y-111924714D01*
X116286428Y-111781857D01*
X116322143Y-111710429D01*
X116393571Y-111639000D01*
X116500714Y-111603286D01*
X116572143Y-111603286D01*
X116679286Y-111639000D01*
X116715000Y-111674714D01*
X117357857Y-111853286D02*
X117357857Y-112353286D01*
X117179286Y-111567571D02*
X117000714Y-112103286D01*
X117465000Y-112103286D01*
X114821857Y-118489000D02*
X114857571Y-118524714D01*
X114893286Y-118631857D01*
X114893286Y-118703286D01*
X114857571Y-118810429D01*
X114786143Y-118881857D01*
X114714714Y-118917572D01*
X114571857Y-118953286D01*
X114464714Y-118953286D01*
X114321857Y-118917572D01*
X114250429Y-118881857D01*
X114179000Y-118810429D01*
X114143286Y-118703286D01*
X114143286Y-118631857D01*
X114179000Y-118524714D01*
X114214714Y-118489000D01*
X114143286Y-117810429D02*
X114143286Y-118167572D01*
X114500429Y-118203286D01*
X114464714Y-118167572D01*
X114429000Y-118096143D01*
X114429000Y-117917572D01*
X114464714Y-117846143D01*
X114500429Y-117810429D01*
X114571857Y-117774714D01*
X114750429Y-117774714D01*
X114821857Y-117810429D01*
X114857571Y-117846143D01*
X114893286Y-117917572D01*
X114893286Y-118096143D01*
X114857571Y-118167572D01*
X114821857Y-118203286D01*
X108281357Y-115441000D02*
X108317071Y-115476714D01*
X108352786Y-115583857D01*
X108352786Y-115655286D01*
X108317071Y-115762429D01*
X108245643Y-115833857D01*
X108174214Y-115869572D01*
X108031357Y-115905286D01*
X107924214Y-115905286D01*
X107781357Y-115869572D01*
X107709929Y-115833857D01*
X107638500Y-115762429D01*
X107602786Y-115655286D01*
X107602786Y-115583857D01*
X107638500Y-115476714D01*
X107674214Y-115441000D01*
X107602786Y-115191000D02*
X107602786Y-114691000D01*
X108352786Y-115012429D01*
X121668000Y-111591286D02*
X121418000Y-111234143D01*
X121239428Y-111591286D02*
X121239428Y-110841286D01*
X121525143Y-110841286D01*
X121596571Y-110877000D01*
X121632286Y-110912714D01*
X121668000Y-110984143D01*
X121668000Y-111091286D01*
X121632286Y-111162714D01*
X121596571Y-111198429D01*
X121525143Y-111234143D01*
X121239428Y-111234143D01*
X122382286Y-111591286D02*
X121953714Y-111591286D01*
X122168000Y-111591286D02*
X122168000Y-110841286D01*
X122096571Y-110948429D01*
X122025143Y-111019857D01*
X121953714Y-111055571D01*
X123319000Y-105241286D02*
X123069000Y-104884143D01*
X122890428Y-105241286D02*
X122890428Y-104491286D01*
X123176143Y-104491286D01*
X123247571Y-104527000D01*
X123283286Y-104562714D01*
X123319000Y-104634143D01*
X123319000Y-104741286D01*
X123283286Y-104812714D01*
X123247571Y-104848429D01*
X123176143Y-104884143D01*
X122890428Y-104884143D01*
X123604714Y-104562714D02*
X123640428Y-104527000D01*
X123711857Y-104491286D01*
X123890428Y-104491286D01*
X123961857Y-104527000D01*
X123997571Y-104562714D01*
X124033286Y-104634143D01*
X124033286Y-104705571D01*
X123997571Y-104812714D01*
X123569000Y-105241286D01*
X124033286Y-105241286D01*
X125688286Y-109345000D02*
X125331143Y-109595000D01*
X125688286Y-109773572D02*
X124938286Y-109773572D01*
X124938286Y-109487857D01*
X124974000Y-109416429D01*
X125009714Y-109380714D01*
X125081143Y-109345000D01*
X125188286Y-109345000D01*
X125259714Y-109380714D01*
X125295429Y-109416429D01*
X125331143Y-109487857D01*
X125331143Y-109773572D01*
X124938286Y-109095000D02*
X124938286Y-108630714D01*
X125224000Y-108880714D01*
X125224000Y-108773572D01*
X125259714Y-108702143D01*
X125295429Y-108666429D01*
X125366857Y-108630714D01*
X125545429Y-108630714D01*
X125616857Y-108666429D01*
X125652571Y-108702143D01*
X125688286Y-108773572D01*
X125688286Y-108987857D01*
X125652571Y-109059286D01*
X125616857Y-109095000D01*
X103380000Y-105876286D02*
X103130000Y-105519143D01*
X102951428Y-105876286D02*
X102951428Y-105126286D01*
X103237143Y-105126286D01*
X103308571Y-105162000D01*
X103344286Y-105197714D01*
X103380000Y-105269143D01*
X103380000Y-105376286D01*
X103344286Y-105447714D01*
X103308571Y-105483429D01*
X103237143Y-105519143D01*
X102951428Y-105519143D01*
X104022857Y-105376286D02*
X104022857Y-105876286D01*
X103844286Y-105090571D02*
X103665714Y-105626286D01*
X104130000Y-105626286D01*
X102872000Y-115401286D02*
X102622000Y-115044143D01*
X102443428Y-115401286D02*
X102443428Y-114651286D01*
X102729143Y-114651286D01*
X102800571Y-114687000D01*
X102836286Y-114722714D01*
X102872000Y-114794143D01*
X102872000Y-114901286D01*
X102836286Y-114972714D01*
X102800571Y-115008429D01*
X102729143Y-115044143D01*
X102443428Y-115044143D01*
X103550571Y-114651286D02*
X103193428Y-114651286D01*
X103157714Y-115008429D01*
X103193428Y-114972714D01*
X103264857Y-114937000D01*
X103443428Y-114937000D01*
X103514857Y-114972714D01*
X103550571Y-115008429D01*
X103586286Y-115079857D01*
X103586286Y-115258429D01*
X103550571Y-115329857D01*
X103514857Y-115365571D01*
X103443428Y-115401286D01*
X103264857Y-115401286D01*
X103193428Y-115365571D01*
X103157714Y-115329857D01*
X104777000Y-115401286D02*
X104527000Y-115044143D01*
X104348428Y-115401286D02*
X104348428Y-114651286D01*
X104634143Y-114651286D01*
X104705571Y-114687000D01*
X104741286Y-114722714D01*
X104777000Y-114794143D01*
X104777000Y-114901286D01*
X104741286Y-114972714D01*
X104705571Y-115008429D01*
X104634143Y-115044143D01*
X104348428Y-115044143D01*
X105419857Y-114651286D02*
X105277000Y-114651286D01*
X105205571Y-114687000D01*
X105169857Y-114722714D01*
X105098428Y-114829857D01*
X105062714Y-114972714D01*
X105062714Y-115258429D01*
X105098428Y-115329857D01*
X105134143Y-115365571D01*
X105205571Y-115401286D01*
X105348428Y-115401286D01*
X105419857Y-115365571D01*
X105455571Y-115329857D01*
X105491286Y-115258429D01*
X105491286Y-115079857D01*
X105455571Y-115008429D01*
X105419857Y-114972714D01*
X105348428Y-114937000D01*
X105205571Y-114937000D01*
X105134143Y-114972714D01*
X105098428Y-115008429D01*
X105062714Y-115079857D01*
X109984000Y-123275286D02*
X109734000Y-122918143D01*
X109555428Y-123275286D02*
X109555428Y-122525286D01*
X109841143Y-122525286D01*
X109912571Y-122561000D01*
X109948286Y-122596714D01*
X109984000Y-122668143D01*
X109984000Y-122775286D01*
X109948286Y-122846714D01*
X109912571Y-122882429D01*
X109841143Y-122918143D01*
X109555428Y-122918143D01*
X110234000Y-122525286D02*
X110734000Y-122525286D01*
X110412571Y-123275286D01*
X125180286Y-114552000D02*
X124823143Y-114802000D01*
X125180286Y-114980572D02*
X124430286Y-114980572D01*
X124430286Y-114694857D01*
X124466000Y-114623429D01*
X124501714Y-114587714D01*
X124573143Y-114552000D01*
X124680286Y-114552000D01*
X124751714Y-114587714D01*
X124787429Y-114623429D01*
X124823143Y-114694857D01*
X124823143Y-114980572D01*
X124751714Y-114123429D02*
X124716000Y-114194857D01*
X124680286Y-114230572D01*
X124608857Y-114266286D01*
X124573143Y-114266286D01*
X124501714Y-114230572D01*
X124466000Y-114194857D01*
X124430286Y-114123429D01*
X124430286Y-113980572D01*
X124466000Y-113909143D01*
X124501714Y-113873429D01*
X124573143Y-113837714D01*
X124608857Y-113837714D01*
X124680286Y-113873429D01*
X124716000Y-113909143D01*
X124751714Y-113980572D01*
X124751714Y-114123429D01*
X124787429Y-114194857D01*
X124823143Y-114230572D01*
X124894571Y-114266286D01*
X125037429Y-114266286D01*
X125108857Y-114230572D01*
X125144571Y-114194857D01*
X125180286Y-114123429D01*
X125180286Y-113980572D01*
X125144571Y-113909143D01*
X125108857Y-113873429D01*
X125037429Y-113837714D01*
X124894571Y-113837714D01*
X124823143Y-113873429D01*
X124787429Y-113909143D01*
X124751714Y-113980572D01*
D13*
X107562667Y-101961905D02*
X107296000Y-101580952D01*
X107105524Y-101961905D02*
X107105524Y-101161905D01*
X107410286Y-101161905D01*
X107486477Y-101200000D01*
X107524572Y-101238095D01*
X107562667Y-101314286D01*
X107562667Y-101428571D01*
X107524572Y-101504762D01*
X107486477Y-101542857D01*
X107410286Y-101580952D01*
X107105524Y-101580952D01*
X107943619Y-101961905D02*
X108096000Y-101961905D01*
X108172191Y-101923810D01*
X108210286Y-101885714D01*
X108286477Y-101771429D01*
X108324572Y-101619048D01*
X108324572Y-101314286D01*
X108286477Y-101238095D01*
X108248381Y-101200000D01*
X108172191Y-101161905D01*
X108019810Y-101161905D01*
X107943619Y-101200000D01*
X107905524Y-101238095D01*
X107867429Y-101314286D01*
X107867429Y-101504762D01*
X107905524Y-101580952D01*
X107943619Y-101619048D01*
X108019810Y-101657143D01*
X108172191Y-101657143D01*
X108248381Y-101619048D01*
X108286477Y-101580952D01*
X108324572Y-101504762D01*
D10*
X102955286Y-126730000D02*
X102205286Y-126730000D01*
X102741000Y-126480000D01*
X102205286Y-126230000D01*
X102955286Y-126230000D01*
X102955286Y-125872857D02*
X102205286Y-125872857D01*
X102562429Y-125872857D02*
X102562429Y-125444285D01*
X102955286Y-125444285D02*
X102205286Y-125444285D01*
X102955286Y-124694285D02*
X102955286Y-125122857D01*
X102955286Y-124908571D02*
X102205286Y-124908571D01*
X102312429Y-124980000D01*
X102383857Y-125051428D01*
X102419571Y-125122857D01*
X125815286Y-103235000D02*
X125065286Y-103235000D01*
X125601000Y-102985000D01*
X125065286Y-102735000D01*
X125815286Y-102735000D01*
X125815286Y-102377857D02*
X125065286Y-102377857D01*
X125422429Y-102377857D02*
X125422429Y-101949285D01*
X125815286Y-101949285D02*
X125065286Y-101949285D01*
X125136714Y-101627857D02*
X125101000Y-101592143D01*
X125065286Y-101520714D01*
X125065286Y-101342143D01*
X125101000Y-101270714D01*
X125136714Y-101235000D01*
X125208143Y-101199285D01*
X125279571Y-101199285D01*
X125386714Y-101235000D01*
X125815286Y-101663571D01*
X125815286Y-101199285D01*
X106312857Y-119632000D02*
X106348571Y-119667714D01*
X106384286Y-119774857D01*
X106384286Y-119846286D01*
X106348571Y-119953429D01*
X106277143Y-120024857D01*
X106205714Y-120060572D01*
X106062857Y-120096286D01*
X105955714Y-120096286D01*
X105812857Y-120060572D01*
X105741429Y-120024857D01*
X105670000Y-119953429D01*
X105634286Y-119846286D01*
X105634286Y-119774857D01*
X105670000Y-119667714D01*
X105705714Y-119632000D01*
X105955714Y-119203429D02*
X105920000Y-119274857D01*
X105884286Y-119310572D01*
X105812857Y-119346286D01*
X105777143Y-119346286D01*
X105705714Y-119310572D01*
X105670000Y-119274857D01*
X105634286Y-119203429D01*
X105634286Y-119060572D01*
X105670000Y-118989143D01*
X105705714Y-118953429D01*
X105777143Y-118917714D01*
X105812857Y-118917714D01*
X105884286Y-118953429D01*
X105920000Y-118989143D01*
X105955714Y-119060572D01*
X105955714Y-119203429D01*
X105991429Y-119274857D01*
X106027143Y-119310572D01*
X106098571Y-119346286D01*
X106241429Y-119346286D01*
X106312857Y-119310572D01*
X106348571Y-119274857D01*
X106384286Y-119203429D01*
X106384286Y-119060572D01*
X106348571Y-118989143D01*
X106312857Y-118953429D01*
X106241429Y-118917714D01*
X106098571Y-118917714D01*
X106027143Y-118953429D01*
X105991429Y-118989143D01*
X105955714Y-119060572D01*
X105793000Y-103518857D02*
X105757286Y-103554571D01*
X105650143Y-103590286D01*
X105578714Y-103590286D01*
X105471571Y-103554571D01*
X105400143Y-103483143D01*
X105364428Y-103411714D01*
X105328714Y-103268857D01*
X105328714Y-103161714D01*
X105364428Y-103018857D01*
X105400143Y-102947429D01*
X105471571Y-102876000D01*
X105578714Y-102840286D01*
X105650143Y-102840286D01*
X105757286Y-102876000D01*
X105793000Y-102911714D01*
X106078714Y-102911714D02*
X106114428Y-102876000D01*
X106185857Y-102840286D01*
X106364428Y-102840286D01*
X106435857Y-102876000D01*
X106471571Y-102911714D01*
X106507286Y-102983143D01*
X106507286Y-103054571D01*
X106471571Y-103161714D01*
X106043000Y-103590286D01*
X106507286Y-103590286D01*
X109984000Y-112662857D02*
X109948286Y-112698571D01*
X109841143Y-112734286D01*
X109769714Y-112734286D01*
X109662571Y-112698571D01*
X109591143Y-112627143D01*
X109555428Y-112555714D01*
X109519714Y-112412857D01*
X109519714Y-112305714D01*
X109555428Y-112162857D01*
X109591143Y-112091429D01*
X109662571Y-112020000D01*
X109769714Y-111984286D01*
X109841143Y-111984286D01*
X109948286Y-112020000D01*
X109984000Y-112055714D01*
X110626857Y-111984286D02*
X110484000Y-111984286D01*
X110412571Y-112020000D01*
X110376857Y-112055714D01*
X110305428Y-112162857D01*
X110269714Y-112305714D01*
X110269714Y-112591429D01*
X110305428Y-112662857D01*
X110341143Y-112698571D01*
X110412571Y-112734286D01*
X110555428Y-112734286D01*
X110626857Y-112698571D01*
X110662571Y-112662857D01*
X110698286Y-112591429D01*
X110698286Y-112412857D01*
X110662571Y-112341429D01*
X110626857Y-112305714D01*
X110555428Y-112270000D01*
X110412571Y-112270000D01*
X110341143Y-112305714D01*
X110305428Y-112341429D01*
X110269714Y-112412857D01*
X106574786Y-112710500D02*
X106574786Y-113067643D01*
X105824786Y-113067643D01*
X106574786Y-112067642D02*
X106574786Y-112496214D01*
X106574786Y-112281928D02*
X105824786Y-112281928D01*
X105931929Y-112353357D01*
X106003357Y-112424785D01*
X106039071Y-112496214D01*
X111793786Y-123120428D02*
X111793786Y-122691857D01*
X112543786Y-122906143D02*
X111793786Y-122906143D01*
X112543786Y-122441857D02*
X111793786Y-122441857D01*
X111793786Y-122156142D01*
X111829500Y-122084714D01*
X111865214Y-122048999D01*
X111936643Y-122013285D01*
X112043786Y-122013285D01*
X112115214Y-122048999D01*
X112150929Y-122084714D01*
X112186643Y-122156142D01*
X112186643Y-122441857D01*
X112543786Y-121298999D02*
X112543786Y-121727571D01*
X112543786Y-121513285D02*
X111793786Y-121513285D01*
X111900929Y-121584714D01*
X111972357Y-121656142D01*
X112008071Y-121727571D01*
X125037572Y-111095286D02*
X125466143Y-111095286D01*
X125251857Y-111845286D02*
X125251857Y-111095286D01*
X125716143Y-111845286D02*
X125716143Y-111095286D01*
X126001858Y-111095286D01*
X126073286Y-111131000D01*
X126109001Y-111166714D01*
X126144715Y-111238143D01*
X126144715Y-111345286D01*
X126109001Y-111416714D01*
X126073286Y-111452429D01*
X126001858Y-111488143D01*
X125716143Y-111488143D01*
X126430429Y-111166714D02*
X126466143Y-111131000D01*
X126537572Y-111095286D01*
X126716143Y-111095286D01*
X126787572Y-111131000D01*
X126823286Y-111166714D01*
X126859001Y-111238143D01*
X126859001Y-111309571D01*
X126823286Y-111416714D01*
X126394715Y-111845286D01*
X126859001Y-111845286D01*
X107638572Y-124938286D02*
X108067143Y-124938286D01*
X107852857Y-125688286D02*
X107852857Y-124938286D01*
X108317143Y-125688286D02*
X108317143Y-124938286D01*
X108602858Y-124938286D01*
X108674286Y-124974000D01*
X108710001Y-125009714D01*
X108745715Y-125081143D01*
X108745715Y-125188286D01*
X108710001Y-125259714D01*
X108674286Y-125295429D01*
X108602858Y-125331143D01*
X108317143Y-125331143D01*
X108995715Y-124938286D02*
X109460001Y-124938286D01*
X109210001Y-125224000D01*
X109317143Y-125224000D01*
X109388572Y-125259714D01*
X109424286Y-125295429D01*
X109460001Y-125366857D01*
X109460001Y-125545429D01*
X109424286Y-125616857D01*
X109388572Y-125652571D01*
X109317143Y-125688286D01*
X109102858Y-125688286D01*
X109031429Y-125652571D01*
X108995715Y-125616857D01*
X100208667Y-105280667D02*
X100608667Y-105280667D01*
X100408667Y-105980667D02*
X100408667Y-105280667D01*
X100842000Y-105980667D02*
X100842000Y-105280667D01*
X101108666Y-105280667D01*
X101175333Y-105314000D01*
X101208666Y-105347333D01*
X101242000Y-105414000D01*
X101242000Y-105514000D01*
X101208666Y-105580667D01*
X101175333Y-105614000D01*
X101108666Y-105647333D01*
X100842000Y-105647333D01*
X101842000Y-105514000D02*
X101842000Y-105980667D01*
X101675333Y-105247333D02*
X101508666Y-105747333D01*
X101942000Y-105747333D01*
X125065286Y-106991428D02*
X125065286Y-106562857D01*
X125815286Y-106777143D02*
X125065286Y-106777143D01*
X125815286Y-106312857D02*
X125065286Y-106312857D01*
X125065286Y-106027142D01*
X125101000Y-105955714D01*
X125136714Y-105919999D01*
X125208143Y-105884285D01*
X125315286Y-105884285D01*
X125386714Y-105919999D01*
X125422429Y-105955714D01*
X125458143Y-106027142D01*
X125458143Y-106312857D01*
X125065286Y-105205714D02*
X125065286Y-105562857D01*
X125422429Y-105598571D01*
X125386714Y-105562857D01*
X125351000Y-105491428D01*
X125351000Y-105312857D01*
X125386714Y-105241428D01*
X125422429Y-105205714D01*
X125493857Y-105169999D01*
X125672429Y-105169999D01*
X125743857Y-105205714D01*
X125779571Y-105241428D01*
X125815286Y-105312857D01*
X125815286Y-105491428D01*
X125779571Y-105562857D01*
X125743857Y-105598571D01*
M02*
